<svg xmlns="http://www.w3.org/2000/svg" id="Layer_1" data-name="Layer 1" viewBox="0 0 317 100">
    <path style="fill:currentColor" d="m56.75 25.73-.16-.9c7.89-5.28 17.59-9.81 27.01-11.63 26.81-5.17 34.77 11.64 22.29 33.76-6.58 11.65-17.16 21.79-28.04 29.39l12.4 23.66-3.35-.19-13.51-25.06c-13.01-20.85-45.7-18.11-66.93-18.2-1.94-.06-1.78-2.94.03-3 21.24.09 56.19 3.82 39.84-29.02-3.76-7.56-8.26-14.8-12.09-22.33C33.42.09 36.02-.77 37.07.89c6.22 10.35 11.1 22.71 17.73 32.68 8.07 12.14 22.47 20.41 37.26 19.8 5.55-8.24 9.59-22.71.15-29.74-7.94-5.91-21-3.03-29.59 0-.9.32-5.37 2.5-5.87 2.11Zm33.5 30.8h-6.79c-.44 0-2.66.75-3.25.98-6.73 2.63-7.14 8.83-4.3 14.71 5.33-4.69 10.35-9.8 14.34-15.69Z"/>
    <path style="fill:currentColor" d="M34.7 26.34h-8.3c-1.4 0-3.5 1.24-3.45 2.83.09 3.32 5.17 9.21 5.98 12.65l-.75.8c-.45.08-.76-.48-.97-.79-3-4.32-4.1-10.62-9.09-13.25-1.2-.63-5.27-1.95-6.5-1.95H.74c-.05 0-.7-.64-.73-.8-.09-.31.65-1.01.73-1.01H9.8c.18 0 2.13-.69 2.47-.85 3.47-1.61 2.63-4.62 1.35-7.51-.56-1.27-4.5-7.53-4.14-8.24.52-1.05 1.13-.52 1.63.19 4.71 6.76 5.46 15.47 15.9 16.4 1.98.18 5.53-.39 7.18.07.85.24.74.78.52 1.45ZM266.4 66.19c3.55.59 3.88 4.43 3.45 7.37-.11.74-.86 1.81-.82 2.08.06.43.73 1.11.85 2.17.25 2.22-.18 4.83 0 7.1h-2.42v-6.79c0-.87-1.55-1.28-2.27-1.36-3.38-.35-7.45.18-10.88.11l-.44.34v7.7h-2.72V66.64l.45-.45h14.79Zm-12.53 8.15h12.53c1.32 0 1.55-5.43 0-5.43h-12.53v5.43ZM182.48 43.85c3.25.54 3.51 4.48 3.14 7.07-.12.82-.77 1.69-.81 2.19s.73 1.75.84 2.67c.24 2.13-.18 4.62 0 6.8h-2.72v-7.4c0-.07-.94-.75-1.06-.75h-12.08c-.3.19-.39.42-.45.75-.19 1.04.29 7.1 0 7.4h-2.42V43.86h15.55Zm-13.14 2.71v4.98l.45.45h12.08c.09 0 .82-.47.91-.6l-.19-4.79-13.24-.04ZM161.95 66.19c3.7.55 3.96 4.68 3.46 7.68-.13.78-.79 1.24-.84 1.58-.03.18.76 1.53.86 2.36.25 2.22-.18 4.83 0 7.1h-2.42v-7.1c0-1.61-4.97-.74-5.89-.74-2.38 0-5.48-1.01-7.7.13v7.7H147l.15-18.72h14.79Zm0 2.72h-12.53v5.43h12.53c1.23 0 1.77-5.12 0-5.43ZM249.04 68.91h-15.25l-.45.45v4.53l.45.45h12.23c.11 3.39.06 2.46-2.25 2.4-2.68-.07-6.86-.3-9.39 0-.44.05-.78.04-1.04.47v4.83l.45.45h15.25v2.42h-18.11V66.19h17.66c.79.64.37 1.81.45 2.72ZM195.31 21.51v4.98c0 .74-1.5 2.26-2.21 2.62l-13.6 5.95c-.34.38-.73 2.44-.04 2.44h15.85v2.72h-18.72v-5.28c0-.88 1.75-2.2 2.51-2.62 3.47-1.92 9.72-3.34 12.69-5.43.92-.64 1.38-1.59.97-2.69l-16.17-.28V21.5h18.72ZM215.84 21.51v2.41h-15.25l-.45.46v4.83l.45.45h11.62v2.41h-12.07v5.44h15.7v2.71h-18.12V21.51h18.12zM149.04 43.92c1.86-.38 10.25-.32 12.32-.08 1.82.22 3.25 1.64 3.47 3.47.31 2.55.26 8.89 0 11.49-.19 1.98-1.42 3.52-3.48 3.77-2.55.31-8.56.24-11.19 0-2.13-.19-3.79-1.19-4.07-3.48s-.31-9.88.03-12.06c.21-1.37 1.56-2.84 2.92-3.12Zm-.22 3.1V59.4l.45.45h12.38c.26-.25.5-.54.62-.89.35-1.09.32-9.25.14-10.74-.16-1.34-.64-1.81-1.96-1.96-1.49-.17-9.64-.21-10.74.14-.35.11-.64.36-.89.62ZM171.08 66.26c2.22-.37 9.38-.34 11.7-.07 2.13.24 3.53 1.62 3.77 3.77.29 2.57.24 8.26.01 10.88-.19 2.13-1.19 3.79-3.48 4.07-2.55.31-8.89.26-11.49 0-1.98-.19-3.52-1.42-3.77-3.48-.27-2.26-.31-9.88.03-12.06.25-1.62 1.66-2.85 3.22-3.12Zm12.38 15.86c.34-.47.34-1.02.39-1.58.2-2.37.3-8.03 0-10.29-.13-.99-.36-1.23-1.36-1.36-2.17-.28-8.05-.22-10.3 0-.79.08-1.63.26-1.88 1.14-.3 1.06-.24 9.09-.07 10.51.1.84.33 1.54 1.2 1.82 1.2.39 8.78.29 10.45.15.55-.05 1.11-.04 1.58-.39ZM258.1 21.51v2.42c-.52.49-12.27-.25-14.34 0-1.35.16-2.43 1.18-1.51 2.4 1.09 1.43 10.92 4.66 13.34 6s3.59 4.28 1.5 6.59c-.16.18-1.74 1.31-1.86 1.31h-15.85v-2.72h15.25c.59 0 .94-1.44.61-2.12-.53-1.08-11.49-5.01-13.5-6.12s-2.81-2.63-2.22-5.07c.18-.76 1.78-2.7 2.44-2.7h16.15ZM218.25 24.07c.17-.8 1.85-2.23 2.7-2.44 3.07-.74 4.21.63 5.41 3.08 1.89 3.84 3.24 8.19 5.17 12.04.52.74 1.27 1 2.11.6l.61-.6V21.5h2.72v15.55c0 1.03-2.21 2.89-3.24 3.1-2.61.53-3.92-1.01-4.96-3.05-1.97-3.84-3.36-8.34-5.25-12.26-.62-1.44-2.85-.66-2.85.43v14.94h-2.42V24.06ZM207.68 66.19v2.72h-15.55c-.57 0-1.1 2.15-.13 2.55 3.94 2.01 8.58 3.33 12.47 5.34 2.07 1.07 3.79 2.48 3.07 5.1-.26.95-2.06 3.01-3.03 3.01h-15.55v-2.42h14.64c1.04 0 2.09-2.21.75-2.86-3.98-1.94-8.58-3.31-12.48-5.33-2.44-1.27-3.71-2.68-2.78-5.71.21-.69 2.15-2.4 2.73-2.4h15.85ZM71.52 76.16l1.5 3.43a87.596 87.596 0 0 1-14.78 7.87c-10.04 4.16-27 8.51-36.06.45-.45-.4-1.66-1.31-1.22-1.8 6.28 5.08 14.71 4.81 22.25 3.22 9.86-2.07 19.31-7.21 27.43-13.03l.88-.15ZM212.51 84.91h-2.72l.3-18.72h15.25c.99 0 2.58 1.52 2.99 2.45.75 1.7.51 5.93-.87 7.22-1.66 1.55-8.07.78-10.59.89-1.3.05-2.58.71-3.93.09l-.44.38v7.7Zm12.84-16h-12.83v5.43h12.53c.12 0 .68-.35.78-.51.45-.9.54-4.62-.47-4.93ZM128.29 84.91h-2.42V66.19h15.25c.56 0 2 1.02 2.42 1.5 1.58 1.8 1.49 6.07 0 7.87-.22.27-1.3 1.2-1.52 1.2h-13.28l-.45.45v7.7Zm0-10.57h12.83c1.1 0 1.1-5.43 0-5.43h-12.83v5.43ZM144.29 21.51v2.42h-14.94c-.15 0-.71.45-.91.6-.3.5-.32 10.46-.17 11.64.05.4.39 1.34.77 1.34h15.25v2.72h-15.55c-.38 0-2.11-1.12-2.41-1.52-.51-.68-.7-1.71-.77-2.55-.22-2.49-.33-9.14.03-11.47.17-1.09 1.82-3.19 2.85-3.19h15.85ZM143.99 43.85v2.72h-15.7v4.98l.45.45h11.62v2.42h-11.62l-.45.45v7.25c0 .06.45.34.3.45h-2.72V43.86h18.11ZM300.67 66.19v7.09c0 .12.35.68.51.78l11.96.22c.27-.08.7-.44.84-.67.67-1.13.17-5.89-.02-7.41l2.73.13c.33.23.26.59.3.93.09.79-.2 5.85-.33 6.62-.17 1.03-1.06 2.09-1.98 2.55-2.08 1.04-3.72.11-5.85.64v7.85h-2.72v-7.85c-2.35-.13-5.39.42-7.1-1.5-.21-.23-1.05-1.54-1.05-1.67v-7.7h2.72ZM295.84 66.19v2.72h-8.15v16h-2.72v-16h-7.85v-2.72h18.72zM169.65 21.51v2.41h-7.7l-.45.46v15.84h-2.42V24.38l-.45-.46h-7.7v-2.41h18.72zM146.4 21.51h2.42c.09 6.24-.03 12.47 0 18.72h-2.42V21.51ZM171.76 21.51h2.42v18.72h-2.42zM272.29 66.19h2.42v18.72h-2.42z"/>
    <path style="fill:currentColor" d="M154.77 51.15c2.77-.84 3.93 3.33 1.38 4.11-2.77.84-3.93-3.33-1.38-4.11ZM176.81 73.48c2.68-.49 3.44 3.75.82 4.18-3.1.52-3.43-3.71-.82-4.18Z"/>
</svg>