<svg xmlns="http://www.w3.org/2000/svg" data-name="Layer 1" viewBox="0 0 488 100">
    <path style="fill:currentColor" d="M254.31 53.43v16.18h23.57V53.43h11.29V95.1h-10.56l-.73-.74V70.1l-8.11 7.84h-14.72l-.74.74V95.1h-10.56l-.73-.74V53.43h11.29zM385.88 53.43v8.33h-32.89v24.51h32.89v8.82h-32.65c-2.76-3.05-7.91-5.18-10.58-8.06-.71-.76-.84-.86-.98-1.96-.9-6.9.64-15.85.12-22.97l10.95-8.67h33.14ZM434.49 4.9v8.33H401.6v24.51h32.89v8.09l-.74.74h-31.91c-2.66-3-8.03-5.3-10.58-8.07-.7-.77-.84-.85-.98-1.96-.9-6.9.64-15.85.12-22.97l10.95-8.67h33.14ZM104.57 95.1H83.22L50.79 68.6l-23.3 15.71 22.6-27.19h9.31l45.17 37.98zM0 100V78.19l26.52-32.36-16.21-23.28L37.1 44.57c1.15 1.43 1 9.35.14 11.01L0 100ZM108.99 21.81 82.56 53.76 97.7 75.98 71.29 54.8l-.37-8.99L108.99 0v21.81zM26.27 4.9l32.02 26.41L81.5 15.68l-21.81 26.5c-1.11.73-8.75.72-10.08.19-.73-.29-3.72-2.91-4.67-3.67C31.15 27.84 17.97 16.06 4.42 4.9h21.85ZM462.47 53.43v8.33h-11.29v7.84H488v17.16l-11.54 8.33H465.9v-8.82h10.8v-7.84h-36.82V61.27c1.98-.14 9.9-7.84 10.56-7.84h12.03ZM171.34 4.9v8.34h-31.42v25l-11.29 7.84V12.75l11.04-7.85h31.67zM171.34 53.43v8.33h-31.42v24.27l-11.29 8.58v-32.6l11.04-8.58h31.67zM452.65 33.82v-8.33h20.62V13.24h-20.62V4.9l20.74.13c.69.21 10.35 7.37 10.71 7.93.67 1.01.75 11.32.2 12.53l-10.79 8.34h-20.87ZM404.05 82.35v-8.33h20.62V61.77h-20.62v-8.33h20.87c2.45 2.52 8.35 5.32 10.35 7.8 1.5 1.86.52 10.06.45 12.78l-10.79 8.34h-20.87ZM248.42 4.9v8.33h-11.78v24.51h11.78v7.11c0 .49-.28 1.4-.74 1.72h-10.8l-11.43-8.44V13.58c1.19-1.15 10.24-8.68 10.94-8.68h12.03ZM210.37 4.9l10.94 7.95v13.03l-10.94 7.94H190v-8.33h20.12V13.24H190V4.9h20.37zM251.36 46.57v-8.82h11.29V13.24h-11.29V4.9h12.03l10.47 8.17c-.55 7.49 1 16.69.11 23.97-.08.69-.06.86-.53 1.43-.44.53-10.35 8.1-11.04 8.1h-11.05ZM213.07 53.43v8.33h-11.29v24.51h11.29v8.82h-11.05c-.63 0-9.25-6.77-10.07-7.59-.41-.41-.89-.74-1.21-1.24l-.15-24.15c1.19-1.16 10.24-8.68 10.95-8.68h11.54ZM292.6 13.24V4.9h16.94l11.05 8.58v32.35l-.74.74h-10.31l-.63-.74c-.01-.2.39-.37.39-.49V13.97l-.74-.74H292.6ZM386.87 4.9l-.74 41.67h-10.31l-.74-.74V4.9h11.79zM449.71 4.9v41.67h-11.29V4.9c3.91-.54 7.38-.54 11.29 0ZM389.81 53.43h11.29V95.1h-11.29zM289.17 4.9v41.67h-10.56l-.73-.74V4.9h11.29zM186.56 4.9v41.67H176l-.73-.74V4.9h11.29zM186.56 53.43V95.1H176l-.73-.74V53.43h11.29zM239.09 69.61v16.91l-11.54 8.58h-11.04v-8.83h11.29v-7.84h-13.26v-8.82h24.55zM371.65 13.24h-48.12V4.9h40.02l8.1 8.34zM338.75 61.76H292.6v-8.33h38.05l8.1 8.33zM309.54 64.71h10.31l.74.73v28.92l-.74.74h-10.31V64.71zM352.01 16.18v30.39h-10.8V17.4c0-.17-.87-.54.25-1.23h10.56Z"/>
    <path style="fill:currentColor" d="m380.48 69.61-8.2 8.23-15.85.59v-8.82h24.05zM166.92 69.61l-8.2 8.23c-4.93-.13-9.95.4-14.85.39-.57 0-.64-.03-1-.53v-8.09h24.06ZM429.09 21.08l-8.1 8.33h-15.96v-8.33h24.06zM166.92 21.08l-8.1 8.33h-15.95v-7.6l.73-.73h23.32zM228.54 53.43l10.55 8.33h-22.58v-8.33h12.03zM487.02 46.57h-14.48l-9.58-9.32h14.48l9.58 9.32zM438.41 95.1h-14.48l-9.57-9.32h14.97l9.08 9.32zM476.95 53.43 488 61.76h-22.09v-8.33h11.04zM462.47 86.27v8.83h-11.05l-9.08-8.83h20.13zM223.87 46.57h-14.48l-9.08-9.32h14.48l9.08 9.32z"/>
</svg>