<svg xmlns="http://www.w3.org/2000/svg" id="Layer_1" data-name="Layer 1" viewBox="0 0 188 100">
    <path style="fill:currentColor" d="m85.23 100 .57-15.29-5.64 2.28c-.11 1.43-.6 4.1-.28 5.42.04.16 1.74 1 .57 2.14-1.3 1.27-3.81-.99-4-2.67-.48-4.3-.1-10.01.63-14.28.68-4 2.08-7.86 3.14-11.76.28-.69 1.15-.46 1.73-.3 1.13.3 1.79 1.29 1.77 2.45-.05 2.15-.73 6-1.21 8.17-.19.84-1.81 5.54-1.47 5.88l5.44-1.33c1.14-7.57 3.65-14.75 6-21.99-1.5-.1-3.17.14-4.65-.02-.83-.09-3.45-1.09-3.83-1.05-.36.04-.42.6-1.15.33-.89-.33-.78-1.05-1.18-1.37-.74-.58-2.33-1.22-3.25-1.86-1.74-1.2-2.84-2.25-4.7-3.31s-1.35-1.52-2.4-2.94c-.71-.96-2.02-1.81-2.75-2.79-3.92-5.24-5.3-12.74-4.87-19.2.2-3.02 3.09-10.37 4.8-12.97.39-.59.92-1.02 1.33-1.72.55-.93.82-2.26 1.33-3.06 1.43-2.19 6.96-5.14 9.5-5.78.7-.18 1.62-.1 2.3-.37C84.09 2.17 84.54.96 86.3.97c2.31 0 2.54-.26 4.66-.66 6.8-1.29 15.69 1.74 21.05 6.06 1.26 1.01 6.22 7.14 7.03 8.63.46.85.6 1.81 1 2.63 1.41 2.86 2.56 2.69 3.13 6.61.07.47 0 .94.02 1.41 1.6-.09 9.5.09 10.31 1.23.65.91-.21 3.13-.89 3.92-1.3 1.52-4.54 1.8-6.46 1.93-.91.06-3.41-.27-3.93.27-.32.33-.63 1.55-.81 2.06-1.41 4.23-1.99 7.19-4.26 11.22-4 7.09-9.35 9.79-16.96 11.86-.71.19-2.62.28-2.93.7-4.56 13.26-8.46 27.01-8.6 41.18h-3.43Zm32.8-67.1c-4.44.46-8.82.8-13.07 2.29-4.69 1.65-8.91 4.47-13.01 7.23-.89.6-3.79 2.96-4.45 3.19-3.39 1.16-3.43-2.22-1.7-4.38 4.59-5.76 20.3-12.4 27.49-14.12 1.4-.33 3.36-.48 4.63-.9.19-.06.39-.05.47-.29-1.44-8.32-9.21-17.33-17.3-19.72C93.65 4 83.53 4.71 77.36 9.79c-1.4 1.15-2.42 2.58-3.68 3.82-.79.78-1.84 1.25-2.58 2.19-1.52 1.93-3 5.02-3.24 7.46-.56 5.7-1.1 10.07 1 15.63.78 2.08 3.53 6.59 5.2 7.97 1.56 1.28 3.86 2.97 5.53 4.21 4.24 3.14 9.19 3.75 14.37 3.41.74-1.61 1.35-3.61 2.21-5.14.7-1.25 1.39-1.15 2.57-.45 2.02 1.19.83 2.92.4 4.67 4.2-1.21 7.94-2.91 11.07-6.02s5.52-7.45 7.08-11.44c.4-1.03.81-2.04.73-3.19ZM133.1 64.25c-.29-.26-2.58.25-3.13.19s-.74-.55-1.26-.57c-.08 3.5-.88 6.95-1.33 10.42-.56 4.29-1.09 8.68-1.53 13-.27 2.73-.23 5.73-.59 8.4-.12.87-.63.96-1.4.68-.94-.34-1.31-1.3-1.42-2.22-.33-2.79.57-6.91.12-9.3-.3-1.61-2.94-6.67-3.82-8.4-.59-1.15-1.22-2.32-1.95-3.4-.44 2.23-.8 4.53-1.05 6.79-.22 2-.44 4.11-.57 6.12-.06.95.2 3.09-.03 3.79-.32.99-2.51-.43-2.85-1.29-.19-.47-.33-1.57-.37-2.11-.25-3.44.15-8.7.39-12.24.16-2.4.58-4.83.8-7.22.57-.88 1.68-1.06 2.63-.81 2.75.71 5.61 6.94 6.84 9.39.1.2-.1.36.4.27.32-3.13.55-6.53 1.2-9.6.18-.84.92-3.6 1.38-4.16.93-1.12 2.5.46 2.76.19-.23-.75.79-1.31 1.39-1.57 1.32-.55 3.01-.57 4.33-1.21.54-1.23 1.46-6.21 3.11-6.16 1.09.03 2.66 1.45 2.74 2.56.04.53-.58 2.41-.02 2.53.3.07 3.5-.63 4.21-.72 1.95-.23 4.55-.87 5.87.94.29.4 1.03 1.89.79 2.28-.46.73-1.18 0-1.72 0-1.78-.02-7.84.95-9.64 1.43-.36.1-.84.11-1.04.49-.66 2.21-1 4.5-1.48 6.74-1.37 6.39-4.03 17.65-3.18 23.93.16 1.17.92 1.79 1.49 2.72-.62 1.25-2.67-.7-3.21-1.37-3.14-3.86-1.54-12.77-.93-17.56.55-4.32 1.35-8.64 2.07-12.93Z"/>
    <path style="fill:currentColor" d="M56.42 90.64s-.98 0-1.34-.09c-1.81-.45-2.53-2.03-3.54-3.33-1.73.24-4.95 2.49-6.46 2.46-.61-.01-3.02-1.13-3.14-1.83-.11-.63.3-2.27.44-2.99 1.47-7.64 4.62-15.07 7.6-22.2 1.03-1.28 3.98.32 4.28 1.6-.19 6.31-1.03 12.65-.03 18.94 1.07.38 2.14.54 2.87 1.52.16-1.16.15-2.35.31-3.51.37-2.74.86-5.88 1.59-8.53.25-.89 1.57-4.09 1.4-4.64-.12-.4-.61-.38-.54-1.17.13-1.41 2.03-3.05 3.18-3.71.41-.23 3.22-1.73 3.41-1.76.75-.09.89.31 1.33.37 2.43.32 4.17-.1 6.37 1.46 4.77 3.37 3.9 7.84 1.24 12.3s-7.22 9.6-10.85 13.4c-.95 1-3.18 3.27-4.47 3.54-1.03.22-2.68.02-3.37-.85-.32-.4-.24-.93-.28-.96Zm5.84-5.06c3.48-3.78 11.75-13.71 11.88-18.77 0-.26-.15-1.63-.21-1.85-.5-1.72-6.39-1.15-7.75-.29-.31 2.64-1.49 5.07-2.22 7.61-1.34 4.63-2.71 9.5-2.76 14.34.41-.27.74-.68 1.06-1.04Zm-14.98-.3 3.41-1.27-.93-6.57c-.72.77-.73 2.2-1.05 3.25-.19.65-1.62 4.38-1.43 4.59Zm9.87.81c-.37-.4-2.37.12-2.41.43l1.61 3.56c.87-.57 1.96-.43 2.75-1.07.09-.39-1.19-.78-1.5-1.36-.25-.47-.19-1.28-.45-1.56ZM16.19 99.04h-3.34l-.25-.32c-.63-5.66 1.12-11.48 2.25-17l-.28-.65-5.73 2.67C8.38 87.51 7.3 91.18 7.39 95c-1.39.77-3.61-2.11-3.61-3.14v-5.64c-1.03 1.44-4 .29-3.78-1.2s3.47-3.31 4.5-4.3c.45-2.36.92-4.72 1.33-7.08.24-1.39.25-2.96.49-4.29.13-.71 1.12-4.79 1.39-5.11.95-1.13 3.6 1.02 4 2.09.57 1.5-.02 3.65-.35 5.21-.52 2.48-1.48 4.86-1.66 7.41.09.09 2.08-.62 2.44-.71.9-.21 2.54-.29 3.24-.56.21-.08.29-.22.33-.44.99-4.24 1.9-8.54 3.15-12.71.64-2.12 1.85-6.3 3.07-8.01 1.28-1.8 4.99.35 4.12 2.6-3.33 10.22-6.83 20.47-8.86 31.07-.56 2.91-1.11 5.87-1.01 8.84ZM172.51 72.98c-.85.91-2.22 2.18-3.17 3.03-1.93 1.73-4.21 3.1-5.91 5.06 4.13-.61 8.05-2.35 11.54-4.6.66.47 1.26 1.18.83 1.99-1.12 2.11-8.6 5.53-11 5.99-1.33.25-2.53.17-3.8.49-.27.24-.77 4.52-.81 5.21-.02.37-.04.77 0 1.14.09.67.97 1.43-.63 1.21-3.13-.43-1.9-5.28-1.88-7.48-1.19-.92-2.47-1.57-.74-2.8-1.11 0-2.31.4-3.39.71-5.32 1.57-10.14 4.28-14.87 7.09-1.84 0-3.24-1.62-1.95-3.3 2.69-3.5 12.46-6.31 16.78-7.08 2.17-.39 3.34-.64 4.48 1.62.31-.18.23-.41.29-.66.56-2.56.8-5.35 1.39-7.97.18-.79 1.1-3.18 1.08-3.7-.03-.57-1.28-1.01-1.06-1.81.13-.46.97-1.37 1.35-1.72 2.08-1.9 3.92-2.76 6.73-3.19 2.42-.37 5.11-.54 6.91 1.38 3.03 3.21.18 6.9-2.17 9.4Zm.64-7.96c-1.33-.39-6.07-.24-6.96.77-.34.38-2.32 6.83-2.63 7.88-.12.42-.86 2.82-.71 3.01.34-.11.6-.34.86-.57 2.12-1.79 5.28-5.11 7.05-7.27.95-1.15 1.97-2.37 2.38-3.82Z"/>
    <path style="fill:currentColor" d="M183.06 68.46c-2.53 3.24-2.85 8.72-.99 12.37 1.22 2.39 5.73 4.73 2.01 7.29-2.09 1.44-9.84 3.16-12.02 1.98-.25-.14-.49-.27-.61-.55-.29-1.12 1.87-.77 2.51-.87 1.63-.27 7.02-1.65 7.02-3.68 0-.85-2.04-3.27-2.59-4.3-1.66-3.08-2.32-6.14-1.78-9.63s2.76-7.79 6.85-6.51c.31-.24.17-1.63 1.24-1.83.95-.18 2.93.53 3.25 1.52.46 1.43-1.64 6.09-2.11 7.85-.21.78-.59 4.2-1.18 4.38-.76.24-1.77-.44-1.92-1.27-.36-2 .09-4.72.33-6.74ZM97.48 65.45c.51-.49 2.45-.33 3.01.23 1.24 1.21.24 5.91.17 7.65-.07 1.94-.31 6.69.87 8.13 1.48 1.79 3.04-2.85 3.39-3.86 1.52-4.38 1.92-9.33 3.2-13.8.49-.7 2.67-.19 2.99.61.46 1.14.03 4.87-.17 6.23-.56 3.89-2.44 12.66-6.66 13.97-8.43 2.63-8.74-11.48-7.76-16.57.1-.52.63-2.27.95-2.58ZM29.73 74.19c3.13-.65 7.12-2.85 10.23-3.04 1.45-.09 2.79 1.82 1.86 2.45-6.16 1.84-11.76 5.01-17.5 7.81-4.5-2.82-.89-3.79 1.3-5.5.71-.55 1.31-1.43 2-2.01 1.9-1.58 4.15-3.15 6.3-4.3.15-.85-1.14.15-1.53.29-1.17.4-5.19 1.8-6.15 1.59s-2.22-2.01-1.76-3.02c.57-1.25 4.8-2.48 6.15-2.82 1.78-.44 4.26-.95 6.07-1.18.72-.09 2.56-.32 3.18-.17.76.18 1.74 1.45 1.82 2.21.09.85-.73.54-1.31.71-1.83.54-4.51 2.46-6.15 3.58-1.54 1.06-3.09 2.19-4.52 3.4ZM145.49 73.81l.25.35c2.37-.75 4.79-1.73 7.19-2.36 2.16-.57 4.42-1.52 4.94 1.5l-.17.22c-6.22 1.79-11.86 5.02-17.61 7.89-4.71-2.8-.76-3.93 1.49-5.7.74-.58 1.37-1.48 2.11-2.09 1.9-1.57 4.09-2.76 6-4.31l-5.15 1.72c-1.18.21-2.03.87-3.15.09-1.71-1.19-1.74-2.71.09-3.73 2.67-1.49 10.18-3.1 13.26-3.16 1.54-.03 3.05 1.48 2.39 2.99-.18.13-.65-.12-1-.08-1.21.14-5.88 3.43-7.15 4.32-1.12.79-2.22 1.86-3.49 2.34ZM42.31 82.22c-2.51-.04-5.12.9-7.48 1.77-2.78 1.02-5.47 2.33-8.06 3.78-1.65.93-3.69 3.22-5.48 1.72-1.4-1.17-.97-2.13.13-3.26 2.9-2.97 13.26-6.47 17.39-6.85 2.24-.21 3.19.65 3.5 2.84ZM98.92 86.48c2.12-.23 7.32-.26 9.28.34.85.26 1.53.9 1.62 1.83.15 1.6-.71.87-1.61.84-3.78-.13-7.51 1.21-11.07 1.34-1.79.07-2.28-1.74-1.9-3.26.24-.4 3.08-1.02 3.68-1.09ZM54.27 91.27c.28.29.94 1.5.33 1.65-.23.05-.57-.18-.89-.14-3.03.41-7.54 3.47-10.21 3.54-1.13.03-3.18-2.04-2.24-3.03.77-.81 7.43-2.58 8.84-2.8s3.03-.41 4.17.77Z"/>
    <path style="fill:currentColor" d="M95.11 19.68c.07-.12.08-.64.01-.72-1.9-.43-4.05-.67-5.62-1.93-.17-1.69.88-4.54 2.87-4.56.96 0 5.56 1.66 5.8 1.49l1.57-3.41c.77-.36 3.47.42 3.38 1.38-.06.64-1.82 3.24-1.66 3.82 2.29 2.11 5.58 3.62 3.03 7.11-.13.18-1.02 1.09-1.15 1.14-2.15.92-3.7-2.8-4.63-2.56-.3.08-1.7 1.71-2.14 2.08-1.39 1.15-3.02 2.19-4.87 2.39-1.8-1.79-.91-3.4.79-4.76.52-.42 2.54-1.35 2.62-1.48ZM83.65 16.89c.14.13.62 1.15.64 1.38.06 1.01-.94 4.55-.77 5.14 1.35.67 3.31 1.95 3.23 3.65s-1.62 4.49-3.63 3.64c-.41-.17-1.41-1.71-1.81-1.62-.67 1.2-1.26 2.48-2.29 3.44-2.02 1.87-4.37 1.18-3.2-1.87.5-1.31 1.69-2.1 2.34-3.29-.23-.3-4.51-.65-5.34-1.25-1.58-1.14.65-4.25 1.64-5.21l5.23.83c.39-1.64.94-4.78 3-5.05.31-.04.72-.02.95.21Z"/>
</svg>