<svg xmlns="http://www.w3.org/2000/svg" id="Layer_1" data-name="Layer 1" viewBox="0 0 400 400">
    <defs>
        <style>.cls-1{fill:#fff}</style>
    </defs>
    <path style="fill:currentColor" d="M186.61.27c129.88-6.53 233.01 105.24 210.22 234.66-22.54 128-161.66 201.6-280.54 146.66C-4.62 325.71-38.64 169.06 49.49 68.12 83.27 29.43 134.87 2.87 186.61.27Zm5.88 10.3C102.21 13.98 26 81.96 12.64 171.25c-18.67 124.8 86.61 232.56 211.78 216.51 83.16-10.66 150.34-76.33 162.75-159.26C404.8 110.64 311.45 6.07 192.49 10.57Z"/>
    <path d="M192.49 10.57c118.96-4.5 212.31 100.07 194.68 217.94-12.41 82.93-79.59 148.6-162.75 159.26C99.25 403.81-6.03 296.05 12.64 171.25 26 81.96 102.21 13.98 192.49 10.57Zm35.35 10.2-25.89-1.93-2.22 26.65 26.05 2.21.58-5.75-19.41-1.47c.44-.82.02-4.83.78-5.01l14.61.85c.88-.29.3-4.2.78-5.25l-15.29-1.18.29-4.71 18.93 1.43c.38-.1.42-.36.48-.69.26-1.4-.07-3.61.29-5.15ZM160.5 50.48l20.59-3.38c2.96-.67 6.16-3.12 6.69-6.25s-1.14-13.96-2.92-16.64c-2.18-3.29-5.53-3.71-9.21-3.43l-19.22 3.27 4.08 26.43Zm119.68 2.06c1.75-.13 4.4.12 5.59-1.32.54-.66 3-5.75 3.17-6.54s.14-1.73-.38-2.43l-24.08-11.5-11.33 23.96c.09.37 2.83 1.62 3.4 1.9 5.65 2.79 12.18 6.15 17.94 8.53 1.77.73 3.65 1.81 5.06-.15.55-.77 3.42-6.63 3.52-7.39.22-1.68-2.07-3.71-2.89-5.06Zm-127.91.29-22.44-19.2-6.53 2.73c-.54 7.71-.56 15.39-.72 23.1-.02.89-.9 6.54.13 6.6l6.18-2.93.18-5.27 12.76-5.54 3.83 3.16 6.61-2.65Zm-42.63 22.06 5.25-4.5-16.91-20.47-5.7 4.83 4.71 20.74-19.31-8.78-5.97 4.81 17.2 20.73 5.13-4.53-9.1-11.05 14.34 6.41c.41.1.72-.08 1.06-.27s3.45-2.76 3.72-3.06c.23-.27.37-.4.24-.78l-3.77-15.23 9.12 11.18Zm197.89-4.12 1.44-15.09-5.85-4.61-1.54 21.25-5.81 7.56 5.14 4.12 6.41-7.12c5.86-2.13 13.61-2.62 19.27-4.85.36-.14 1.06-.26.94-.82-.08-.34-4.71-3.99-5.43-4.44l-14.56 3.99ZM193.38 52.92C77.3 57.86 12.2 191.09 80.58 285.85c62.59 86.73 194.43 79.72 247.19-13.24C384.96 171.83 308.5 48.02 193.39 52.92Zm185.01 173.43.61-6.92-9.24-1.35-14.73-14.09-1.04-.28-.75 7.35c3.39 3.15 7.14 6.04 10.46 9.26.32.31.69.51.58 1.03l-13.16 6.55-.96 7.28 1.39-.23 17.36-9.71 9.48 1.11ZM46.12 206.64l-5.88.59 1.47 11.17-20.88 2.65.9 6.75 20.67-2.65 1.66 10.9 5.6-.73-3.54-28.69ZM353.4 244.3c-1.64-.46-3.19-1.31-4.8-1.83-.29-.09-.29-.44-.63.05l-10.16 26.91 5.3 1.91 3.83-10.29 19.03 7.6.81-.25 2.2-6.16-19.39-7.38 3.81-10.56Zm-300.85.61-24.89 10.1 2.47 6.06c1.47-.03 9.11-4.01 9.79-3.53l5.34 13.61-9.31 4 2.53 6.48 24.68-10.02c.33-.38-2.17-6.32-2.52-6.43l-9.8 3.49-5.29-13.78 9.27-3.84-2.27-6.14Zm279.43 32.94c-.23 1.06-3.56 5.22-3.15 5.85l22.82 13.69c.59-1.57 2.54-3.48 3.09-4.89.16-.42.24-.68-.13-1.03l-22.62-13.62ZM69.04 290.47l11.33 15.27c.84-1.12 3.25-2.11 4-3.06.21-.26.33-.42.16-.76l-15.32-20.55-21.3 16.04 15.45 20.97c.66.2 4.03-2.82 4.81-3.37l-11.43-15.55c.63-.58 3.38-3.08 4.08-2.71l8.97 11.9L74 305.3l-9.06-12.06 4.1-2.79Zm245.55 25.58 22.49.58 4.81-4.85-19.75-18.06-4.59 4.83 12.34 11.61-22.49-.29-.61.27c-.43 1.3-4.13 3.77-3.97 4.85l19.32 17.79 4.78-4.87-12.32-11.87Zm-28.5 35.56-10.9-17.5c-.22-.24-.37-.09-.59 0-.55.25-5.2 3.22-5.22 3.53 4 6.08 7.53 12.89 11.68 18.83 1.92 2.74 2.28 3.7 5.68 1.85 5.42-2.95 13.42-7.97 18.41-11.59 1.47-1.06 2.23-1.58 1.66-3.66l-13.24-20.81-5.71 3.61L299 343.96l-12.91 7.63Zm-160.88-5.27c.67-2.18 4.63-6.25 4.41-8.36-.12-1.14-1.1-1.65-1.9-2.24-4.67-3.46-13.45-9.02-18.59-11.7-1.9-.99-2.68-1.62-4.33.26l-11.7 18.59c-.48 1.12-.36 2.52.67 3.28 6.52 3.49 12.82 8.8 19.3 12.17 1.45.75 2.53 1.56 4.06.36.45-.35 4.04-5.88 4.33-6.56.15-.37.38-.69.1-1.09l-5.32-3.24c-.6 0-2.24 3.05-2.51 3.81l-.65-.03-12.26-7.77 8.1-13.08 12.77 7.67-2.33 4.23 5.85 3.71Zm140.86 22.35-7.54-25.86-6.9 1.93-3.8 20.99-14.17-15.53-7.59 1.71 7.36 25.87 6.48-1.94-3.55-13.34 10.34 11.43 5.82-1.58 2.95-16.02 4.14 13.79 6.44-1.44Zm-124.18-25.53c-.54.16-1.29 1.17-1.53 1.7-1.59 3.52-3.18 10.21-4.34 14.19-.55 1.89-2.22 6.34-1.96 8 .28 1.81 2.43 2.01 3.95 2.53 7.14 2.44 14.55 4.33 21.76 6.48 1.56-.07 2.03-1.25 2.52-2.51 1.98-5.07 3.99-12.45 5.43-17.8.39-1.44 1.2-3.11.41-4.52-.63-1.11-5.06-2.15-6.5-2.61-5.3-1.69-11.6-3.89-16.92-5.13-.9-.21-1.87-.6-2.79-.32ZM188 353.1h-7.5l-.29 26.76h6.76l.3-14.12 7.19 14.43 5.99-.07 6.96-14.07c.17 3.75.28 7.58.16 11.34-.02.53-.74 3.08.13 3.08h6.18l.74-26.76c-1.62.17-6.36-.94-7.5 0l-9.71 18.82L188 353.1Z"
          class="cls-1"/>
    <path style="fill:currentColor" d="M193.38 52.92c115.11-4.89 191.57 118.91 134.38 219.69-52.75 92.96-184.6 99.97-247.19 13.24-68.38-94.76-3.28-227.99 112.8-232.93Zm5.94 242.39v8.09c-32.9-3.87-65.34-17.54-86.15-43.98-28.69-36.47-29.8-91.26-3.49-129.34 8.95-12.96 20.56-23.47 33.76-31.96-3.53 1.71-6.89 3.96-10.09 6.23-40.99 29.07-55.59 78.12-40.2 125.97 13.43 41.74 50.4 67.02 92.04 75.73l-12.86 3.6c-.82.8.46 4.53 1.48 5.01l25.8-5.67v7.94c.23.17.59-.6.59-.74v-7.21l25.59 5.76c1.28-.4 2.54-4.46 1.56-5.2l-12.74-3.5c30.55-6.58 59.9-21.94 78.16-47.85 19.97-28.33 25.29-69.93 13.51-102.51-8.28-22.89-25.27-42.57-45.82-55.34-1.27-.79-2.68-1.73-4.09-2.23 12.49 8.05 23.55 17.84 32.29 29.9 31.26 43.13 26.39 107.24-13.17 143.47-20.55 18.82-47.55 28.57-74.99 31.91v-8.09c1.63-.9 4.11-.3 6.04-.43 92.03-6.03 130.04-121.57 59.38-181.17-18.03-15.21-42.01-24.03-65.72-23.83-.29-.29.58-3.46-.58-3.82v3.82c-47.76-.36-89.88 34.08-99.89 80.53-13.26 61.52 30.94 120.3 93.57 124.46 1.07.07 5.79-.33 6.03.44ZM126.09 86.36c-6.59 4.24-11.04 15.79-9.97 23.35.55 3.86 3.73-.16 4.8-1.62 4.24-5.78 6.98-14.67 5.17-21.74Zm147.63 0c-1.8 7.1.9 15.93 5.17 21.74 1.07 1.46 4.25 5.47 4.8 1.62 1.08-7.56-3.38-19.11-9.97-23.35Zm-165.66 35.18c1.56-1.39 3.65-6.41 4.3-8.49 1.6-5.18 2.41-12.07-.22-16.98-4.01 3.67-6.17 9.57-6.87 14.88-.26 1.99-.72 10.17 1.14 11.16.57.32 1.24-.19 1.66-.57Zm179.62-25.47c-3.31 6.52-1.29 17.05 2.45 23.13.47.77 2.12 3.26 3.08 3.01.73-.39 1.06-1.53 1.24-2.31 1.08-4.62 0-11.32-1.63-15.75-1.12-3.05-2.7-5.9-5.15-8.08Zm-187.17 12.34c-.63-.47-2.53 2.99-2.79 3.53-2.41 5.11-3.45 16.87-.66 21.83 1.82 3.24 3.51-1.17 4.18-3.03 2.57-7.14 2.66-15.48-.73-22.34Zm198.79 0c-3.5 7.04-3.35 16.43-.23 23.6 2.5 5.75 4.11 1.92 4.84-2.08 1.1-5.98.5-15.83-3.49-20.74-.31-.38-.5-.9-1.12-.78ZM89.64 121.35c-3.43 6.75-3.45 15.24-1.02 22.34s4.6 5.26 5.64-1.1c1.11-6.83.37-16.03-4.62-21.24Zm220.53 0c-4.39 4.52-5.4 12.27-5.01 18.39.34 5.25 2.59 13.99 6.03 3.95 2.43-7.1 2.4-15.59-1.02-22.34ZM80.82 135.18c-1.91 5.98-1.49 12.27.51 18.17.51 1.51 3.61 8.88 5.48 8.57.97-.16 1.57-3.39 1.65-4.24.53-5.82-.8-13.22-3.77-18.28-.32-.55-3.22-4.81-3.87-4.21Zm237.09.38c-3.67 3.22-6.25 11.74-6.57 16.51-.1 1.54-.22 9.52 1.67 9.84s4.97-7.06 5.48-8.57c1.86-5.5 2.85-12.89.07-18.16-.19.17-.46.21-.65.38ZM74.05 149.88c-1.7 7.46.94 16.09 5.22 22.27 1.32 1.9 4.7 6.35 5.33 1.67 1.01-7.44-3.83-20.01-10.56-23.94Zm251.71 0c-5.33 3.28-8.47 9.97-9.79 15.93-.68 3.05-1.7 7.6.27 10.22 1.67.38 5.11-5.11 5.86-6.44 3.3-5.9 5.2-13 3.67-19.71ZM69.93 166.94v5.15c0 3.86 4.79 12.28 7.36 15.28.77.9 4.95 5.29 6.15 4.26.81-3.33-.35-7.21-1.53-10.36-2.08-5.58-6.38-11.97-11.99-14.33Zm259.95 0c-6.01 2.62-10.33 9.38-12.35 15.44-.98 2.92-1.95 6.18-1.16 9.26 3.73-.42 7.36-5.46 9.23-8.54 1.36-2.25 4.29-8.55 4.29-11.01v-5.15ZM84.05 205.47c.35-3.33-1.01-6.52-2.49-9.42-2.94-5.73-8.06-11.41-14.27-13.52-.02 7.73 5.25 15.51 11.03 20.28 1.59 1.31 3.58 2.77 5.73 2.66Zm231.72-.01c2.13.13 4.14-1.34 5.72-2.65 5.78-4.78 11.05-12.56 11.03-20.28-6.21 2.16-11.31 7.77-14.26 13.52-1.41 2.76-2.99 6.28-2.48 9.41ZM66.11 198.7c.69 7.67 9.4 17.28 16.39 19.93 5.44 2.06 3.61-1.74 1.99-4.94-3.35-6.61-10.88-13.8-18.38-14.99Zm267.59 0c-7.53 1.2-15.02 8.35-18.38 14.99-1.62 3.2-3.44 6.99 1.99 4.94 6.99-2.64 15.7-12.25 16.39-19.93ZM89.34 231.93c1.11-1.13-3.22-6.79-4.11-7.8-4.58-5.24-11.69-9.98-18.83-10.14 2.08 6.37 7.42 11.64 13.14 14.94 2.92 1.68 6.35 3.34 9.79 3ZM333.41 214c-7.17.16-14.21 4.89-18.83 10.14-1.83 2.08-4.15 4.94-4.11 7.8 3.44.34 6.87-1.32 9.79-3 5.72-3.3 11.07-8.55 13.14-14.94ZM68.76 229.58c3.27 6.67 10.06 11.4 16.98 13.74 2.57.87 5.51 1.81 8.18.98 1.14-1.61-3.58-6.07-4.73-7.07-5.35-4.64-13.25-8.46-20.43-7.65Zm262.29 0c-7.15-.82-15.11 3.03-20.43 7.65-1.16 1-5.87 5.46-4.73 7.07 3.65.91 7.97-.73 11.33-2.24 5.67-2.55 11.08-6.82 13.83-12.49ZM73.46 245.17c1.25 2.84 4.06 5.11 6.61 6.77 3.93 2.56 10.36 4.89 15.04 5.25 6.01.46 7.47-.79 2.6-4.95-6.26-5.35-16.07-8.5-24.25-7.07Zm252.89 0c-8.17-1.44-17.99 1.71-24.25 7.07-1.52 1.3-5 4.43-1.16 4.96 5.35.75 14.29-2.32 18.8-5.26 2.55-1.66 5.36-3.93 6.61-6.77ZM79.64 259.88c3.66 4.84 10.45 7.54 16.37 8.48 2.66.42 9.64 1.05 11.85-.41 2.01-1.33-2.04-3.82-3.13-4.49-7.16-4.35-17.02-6.19-25.08-3.58Zm240.53 0c-8.07-2.61-17.92-.77-25.08 3.58-1.7 1.03-5.75 3.55-2.27 4.8 3.84 1.37 11.13.29 15.06-.82 4.45-1.25 9.58-3.77 12.29-7.56ZM87.58 273.7c5.13 5.3 14.22 6.64 21.33 6.18 1.36-.09 8.46-1.09 8.59-2.8-.94-2.01-3.21-2.87-5.15-3.61-7.94-3.01-16.99-3.44-24.77.22Zm224.65 0c-7.71-3.66-16.9-3.25-24.77-.22-1.88.72-4.25 1.67-5.15 3.61.13 1.71 7.23 2.72 8.59 2.8 7.09.45 16.22-.89 21.33-6.18Zm-184.46 11.26c-.96-1.09-4.56-2.05-6.02-2.35-7.27-1.48-15.55-.9-22.09 2.73-.26.4-2.02.93-1.79 1.44.41.9 5.87 2.68 7.05 2.95 5.86 1.34 14.12.86 19.7-1.48 1.04-.44 4.4-1.86 3.15-3.29Zm174.17 1.39c-7.05-4.51-16.01-5.4-24.12-3.69-4.84 1.02-9.43 2.93-2.2 5.75 6.79 2.65 16.77 2.89 23.49-.05.54-.23 3.26-1.4 2.83-2.01Zm-192.9 12.05c7.7 3.28 17.09 2.2 24.6-1.12 2-.88 4.71-2.21 5.65-4.27-.39-2.32-10.02-2.37-11.87-2.25-6.35.42-14.13 2.73-18.38 7.64Zm181.73 0c-5.48-6.08-15.73-8.2-23.67-7.64-1.25.09-6.35.79-6.59 2.25-.31 1.9 7.34 4.99 8.85 5.48 6.95 2.25 14.56 2.83 21.4-.09Zm-139.99.32c-3.65-1.59-8.49-.99-12.34-.18-4.44.93-9.26 2.92-12.9 5.62-.56.42-4.73 3.9-4.14 4.53 8.27 2.27 18.27-.44 25.26-5.17.85-.57 4.88-3.72 4.12-4.8Zm127.64 9.97c.59-.63-3.58-4.11-4.14-4.53-3.33-2.48-7.47-4.26-11.49-5.27-4.25-1.07-9.65-1.9-13.75-.17-1.02 1.44 5.04 5.38 6.15 6.01 6.8 3.87 15.54 6.09 23.23 3.96Zm-142.18 8.83c1.51.22 3.94 0 5.59 0 5.4 0 17.83-6.96 20.85-11.5 2.1-3.15.54-3.33-2.64-3.22-8.65.31-20.19 6.65-24.54 14.28-.03.09.65.43.73.44Zm121.74 0c1.68.17 3.83 0 5.59 0 .04 0 .76-.35.73-.44-4.39-7.65-15.82-13.97-24.54-14.28-3.18-.11-4.74.07-2.64 3.22 3.38 5.07 14.84 10.89 20.85 11.5Z"/>
    <path style="fill:currentColor" d="m109.64 74.89-9.12-11.18 3.77 15.23c.13.38 0 .52-.24.78-.27.3-3.38 2.87-3.72 3.06s-.65.37-1.06.27l-14.34-6.41 9.1 11.05-5.13 4.53-17.2-20.73 5.97-4.81 19.31 8.78-4.71-20.74 5.7-4.83 16.91 20.47-5.25 4.5ZM188 353.1l9.41 19.41 9.71-18.82c1.13-.94 5.88.17 7.5 0l-.74 26.76h-6.18c-.87 0-.15-2.54-.13-3.08.12-3.76 0-7.59-.16-11.34l-6.96 14.07-5.99.07-7.19-14.43-.3 14.12h-6.76l.29-26.76h7.5ZM266.07 368.69l-6.44 1.44-4.15-13.79-2.95 16.02-5.82 1.58-10.34-11.43 3.55 13.34-6.48 1.95-7.37-25.87 7.59-1.71 14.17 15.53 3.8-20.99 6.9-1.93 7.54 25.86zM280.18 52.54c.82 1.35 3.11 3.38 2.89 5.06-.1.76-2.97 6.62-3.52 7.39-1.41 1.96-3.29.88-5.06.15-5.76-2.38-12.29-5.74-17.94-8.53-.57-.28-3.32-1.53-3.4-1.9l11.33-23.96 24.08 11.5c.52.7.55 1.6.38 2.43s-2.62 5.88-3.17 6.54c-1.19 1.44-3.85 1.2-5.59 1.32Zm-.07-5.37c.15-.14 1.35-2.41.96-2.71l-12.64-6.04-2.04 4.98 9.31 4.38c.64.12 4.06-.26 4.41-.6Zm-5.24 11.81 1.43-3.31-2.29-3.29-9.99-4.85-2.36 5.58 13.21 5.87ZM141.89 343.16c.93-.28 1.9.11 2.79.32 5.32 1.24 11.63 3.44 16.92 5.13 1.45.46 5.88 1.5 6.5 2.61.8 1.41-.02 3.08-.41 4.52-1.44 5.35-3.45 12.74-5.43 17.8-.49 1.26-.95 2.44-2.52 2.51-7.21-2.16-14.62-4.05-21.76-6.48-1.52-.52-3.67-.71-3.95-2.53-.25-1.66 1.41-6.11 1.96-8 1.16-3.98 2.75-10.66 4.34-14.19.24-.53.99-1.54 1.53-1.7Zm18.91 11.13-14.7-4.42-4.41 15 14.7 4.41 4.41-14.99ZM160.5 50.48l-4.08-26.43 19.22-3.27c3.68-.28 7.03.14 9.21 3.43 1.78 2.69 3.45 13.48 2.92 16.64s-3.74 5.58-6.69 6.25l-20.59 3.38Zm18.14-22.86c-.61-.66-2.1-1-2.98-.98-3.43.09-7.98 1.66-11.51 2.05l2.23 15.01c2.7-.87 12.3-1.15 13.83-3.16.7-.92.63-2.35.58-3.45-.09-1.7-1.16-8.4-2.14-9.47ZM314.59 316.05l12.32 11.87-4.78 4.87L302.81 315c-.16-1.08 3.54-3.55 3.97-4.85l.61-.27 22.49.29-12.34-11.61 4.59-4.83 19.75 18.06-4.81 4.85-22.49-.58ZM125.21 346.34l-5.85-3.71 2.33-4.23-12.77-7.67-8.1 13.08 12.26 7.77.65.03c.27-.77 1.91-3.82 2.51-3.81l5.32 3.24c.28.4.06.72-.1 1.09-.29.68-3.88 6.21-4.33 6.56-1.53 1.21-2.61.4-4.06-.36-6.48-3.37-12.78-8.68-19.3-12.17-1.03-.76-1.15-2.16-.67-3.28l11.7-18.59c1.65-1.88 2.43-1.25 4.33-.26 5.14 2.68 13.93 8.24 18.59 11.7.8.59 1.79 1.1 1.9 2.24.21 2.11-3.74 6.17-4.41 8.36ZM227.84 20.77c-.37 1.54-.04 3.75-.29 5.15-.06.34-.1.59-.48.69l-18.93-1.43-.29 4.71 15.29 1.18c-.48 1.05.1 4.96-.78 5.25l-14.61-.85c-.76.18-.35 4.19-.78 5.01l19.41 1.47-.58 5.75-26.05-2.21 2.22-26.65 25.89 1.93ZM69.04 290.47l-4.1 2.79L74 305.32l-4.21 3.35-8.97-11.9c-.7-.37-3.45 2.12-4.08 2.71l11.43 15.55c-.78.55-4.15 3.56-4.81 3.37l-15.45-20.97 21.3-16.04 15.32 20.55c.18.34.05.49-.16.76-.75.95-3.16 1.94-4 3.06l-11.33-15.27ZM52.55 244.91l2.27 6.14-9.27 3.84 5.29 13.78 9.8-3.49c.35.11 2.85 6.05 2.52 6.43l-24.68 10.02-2.53-6.48 9.31-4-5.34-13.61c-.68-.48-8.32 3.5-9.79 3.53l-2.47-6.06 24.89-10.1ZM286.09 351.61l12.91-7.63-11.14-18.09 5.71-3.61 13.24 20.81c.57 2.09-.19 2.6-1.66 3.66-4.99 3.62-12.99 8.63-18.41 11.59-3.4 1.85-3.77.9-5.68-1.85-4.15-5.94-7.68-12.75-11.68-18.83.03-.31 4.67-3.29 5.22-3.53.22-.1.37-.25.59 0l10.9 17.5ZM152.27 52.83l-6.61 2.65-3.83-3.16-12.76 5.54-.18 5.27-6.18 2.93c-1.03-.06-.15-5.7-.13-6.6.16-7.71.18-15.4.72-23.1l6.53-2.73 22.44 19.2Zm-23.23-.88 8.23-3.68-8.23-7.21v10.88ZM353.4 244.3l-3.81 10.56 19.39 7.38-2.2 6.16-.81.25-19.03-7.6-3.83 10.29-5.3-1.91 10.16-26.91c.33-.49.34-.15.63-.05 1.61.52 3.16 1.37 4.8 1.83ZM46.12 206.64l3.54 28.69-5.6.72-1.67-10.9-20.67 2.65-.9-6.75 20.88-2.65-1.47-11.17 5.89-.59zM307.53 70.77l14.56-3.99c.72.45 5.35 4.1 5.43 4.44.12.56-.58.68-.94.82-5.66 2.22-13.41 2.72-19.27 4.85l-6.41 7.12-5.14-4.12 5.81-7.56 1.54-21.25 5.85 4.61-1.44 15.09ZM378.39 226.35l-9.48-1.11-17.36 9.71-1.39.23.96-7.28 13.16-6.55c.1-.51-.27-.72-.58-1.03-3.32-3.22-7.07-6.11-10.46-9.26l.75-7.35 1.04.28 14.73 14.09 9.24 1.35-.61 6.92ZM331.98 277.85l22.62 13.62c.37.36.29.62.13 1.03-.55 1.41-2.5 3.33-3.09 4.89l-22.82-13.69c-.41-.62 2.92-4.78 3.15-5.85Z"/>
    <path d="M199.32 295.31c-.24-.78-4.96-.37-6.03-.44-62.63-4.15-106.82-62.93-93.57-124.46 10.01-46.44 52.13-80.89 99.89-80.53v-3.82c1.17.36.29 3.53.59 3.82 23.7-.2 47.69 8.62 65.72 23.83 70.66 59.6 32.65 175.14-59.38 181.17-1.93.13-4.41-.47-6.04.43v8.09c27.44-3.34 54.44-13.09 74.99-31.91 39.57-36.23 44.43-100.34 13.17-143.47-8.74-12.06-19.8-21.85-32.29-29.9 1.41.5 2.82 1.44 4.09 2.23 20.55 12.77 37.55 32.45 45.82 55.34 11.78 32.58 6.47 74.18-13.51 102.51-18.26 25.91-47.61 41.27-78.16 47.85l12.74 3.5c.98.74-.28 4.8-1.56 5.2l-25.59-5.76v7.21c0 .14-.36.9-.59.74V309l-25.8 5.67c-1.01-.49-2.3-4.21-1.48-5.01l12.86-3.6c-41.65-8.71-78.61-33.98-92.04-75.73-15.39-47.85-.79-96.9 40.2-125.97 3.2-2.27 6.56-4.51 10.09-6.23-13.21 8.49-24.81 19-33.76 31.96-26.31 38.08-25.21 92.86 3.49 129.34 20.8 26.44 53.25 40.11 86.15 43.98v-8.09Zm-.3-2.94c-.21-2 .15-4.29 0-6.32-50.12.28-93.25-42.83-92.67-93.04l-.44-.44-1.58-.19 1.58-.19.44-.44c-.51-50.24 42.52-93.19 92.67-93.04l.29-7.36c-17.3.16-34.54 4.69-49.49 13.3-42.48 24.46-61.6 75.57-44.91 122.14 14.08 39.28 52.41 66.72 94.4 66.61.17-.43-.27-.82-.29-1.03Zm1.47 1.03c46.75.15 87.98-33.39 98.07-78.81 13.62-61.31-31.62-120.89-94.38-123.24-.75-.03-3.52-.16-3.85.3l.46 7.07c28.8.11 56.24 14.1 73.63 36.79 12.38 16.15 19.2 36.3 19.29 56.73l1.77.15-1.77.15c-.05 21-7.27 41.49-20.17 57.91-17.3 22.02-44.54 35.64-72.75 35.61l-.29 7.35Zm-1.47-192.34c-18.92.17-37.49 6.33-52.73 17.41-23.17 16.83-37.88 44.55-37.55 73.47l22.89-2.4c.75-35.19 31.06-64.95 66.2-65.25l1.18-23.23Zm92.34 90.88c-.14-29.25-14.57-56.78-38.13-73.77-15.16-10.92-33.69-16.98-52.44-17.11l1.18 23.24c35.19.31 65.37 30.05 66.2 65.25l23.19 2.4Zm-94.1-62.35c-6.19.51-12.22 1.48-18.09 3.52-23.9 8.33-41.2 31.6-41.6 57.06 17.22-2.04 42.64-1.66 51.52-19.79 2.05-4.19 3.53-9.99 4.56-14.56 1.92-8.53 3.11-17.5 3.62-26.23Zm64.98 60.58c-.33-23.19-14.96-44.88-35.77-54.66-7.57-3.56-15.58-5.34-23.92-5.92.63 9.68 1.88 19.71 4.26 29.12.89 3.52 2.1 7.81 3.63 11.08 8.75 18.77 34.22 18.31 51.8 20.39Zm-130.59 5.03-22.9-2.38c-.76 49 41.33 91.17 90.27 90.87l-1.18-23.23c-35.16-.19-65.49-30.09-66.2-65.26Zm159.7-2.38-23.2 2.38c-.74 35.18-31.03 65.03-66.2 65.26l-1.18 23.24c40.42.09 76.74-28.21 87.25-66.99 2.12-7.81 3.16-15.79 3.32-23.89Zm-94.09 62.35c-.51-8.73-1.69-17.7-3.62-26.23-.87-3.84-2-8.2-3.43-11.86-8.23-21-33.8-20.16-52.64-22.49.49 27.99 21 52.84 48.22 58.97 3.79.85 7.61 1.3 11.47 1.61Zm64.98-60.59c-16.37 2.12-39.47 1.46-49.76 16.84-3.59 5.36-5.54 13.6-6.85 19.92-1.61 7.78-2.64 15.89-3.08 23.83 3.94-.32 7.85-.78 11.71-1.67 27.09-6.23 47.49-31.02 47.98-58.91Z"
          class="cls-1"/>
    <path d="M257.98 317.52c-6.01-.61-17.47-6.42-20.85-11.5-2.1-3.15-.54-3.33 2.64-3.22 8.72.31 20.15 6.63 24.54 14.28.03.09-.69.44-.73.44-1.75 0-3.9.17-5.59 0ZM136.24 317.52c-.08-.01-.76-.35-.73-.44 4.34-7.62 15.88-13.97 24.54-14.28 3.18-.11 4.74.07 2.64 3.22-3.02 4.54-15.45 11.5-20.85 11.5-1.64 0-4.08.22-5.59 0ZM150.78 298.72c.76 1.08-3.27 4.23-4.12 4.8-6.99 4.73-16.99 7.44-25.26 5.17-.59-.63 3.58-4.11 4.14-4.53 3.64-2.71 8.46-4.69 12.9-5.62 3.85-.81 8.69-1.41 12.34.18ZM278.42 308.69c-7.7 2.13-16.43-.09-23.23-3.96-1.11-.63-7.16-4.57-6.15-6.01 4.1-1.73 9.49-.89 13.75.17 4.03 1.01 8.16 2.79 11.49 5.27.56.42 4.73 3.9 4.14 4.53ZM109.04 298.4c4.25-4.91 12.03-7.22 18.38-7.64 1.85-.12 11.49-.08 11.87 2.25-.94 2.06-3.65 3.39-5.65 4.27-7.51 3.32-16.9 4.4-24.6 1.12ZM290.77 298.4c-6.84 2.92-14.45 2.34-21.4.09-1.51-.49-9.16-3.58-8.85-5.48.24-1.46 5.34-2.16 6.59-2.25 7.94-.56 18.19 1.56 23.67 7.64ZM127.77 284.96c1.25 1.43-2.11 2.85-3.15 3.29-5.58 2.34-13.84 2.81-19.7 1.48-1.18-.27-6.64-2.05-7.05-2.95-.23-.52 1.53-1.04 1.79-1.44 6.55-3.63 14.82-4.21 22.09-2.73 1.47.3 5.07 1.26 6.02 2.35ZM301.94 286.35c.43.62-2.3 1.78-2.83 2.01-6.71 2.94-16.7 2.7-23.49.05-7.23-2.82-2.64-4.74 2.2-5.75 8.11-1.7 17.07-.82 24.12 3.69ZM87.58 273.7c7.78-3.66 16.84-3.23 24.77-.22 1.93.73 4.21 1.59 5.15 3.61-.13 1.72-7.23 2.72-8.59 2.8-7.11.46-16.2-.88-21.33-6.18ZM312.23 273.7c-5.11 5.3-14.24 6.63-21.33 6.18-1.36-.09-8.46-1.09-8.59-2.8.9-1.93 3.27-2.88 5.15-3.61 7.87-3.03 17.07-3.43 24.77.22ZM320.17 259.88c-2.71 3.79-7.84 6.31-12.29 7.56-3.93 1.11-11.22 2.2-15.06.82-3.49-1.25.57-3.77 2.27-4.8 7.16-4.35 17.02-6.19 25.08-3.58ZM79.64 259.88c8.07-2.61 17.92-.77 25.08 3.58 1.09.66 5.13 3.16 3.13 4.49-2.2 1.46-9.18.83-11.85.41-5.91-.94-12.7-3.64-16.37-8.48ZM73.46 245.17c8.17-1.44 17.99 1.71 24.25 7.07 4.87 4.16 3.41 5.42-2.6 4.95-4.68-.36-11.11-2.68-15.04-5.25-2.55-1.66-5.36-3.93-6.61-6.77ZM326.35 245.17c-1.25 2.84-4.06 5.11-6.61 6.77-4.51 2.94-13.45 6.01-18.8 5.26-3.84-.54-.36-3.67 1.16-4.96 6.26-5.35 16.07-8.5 24.25-7.07ZM68.76 229.58c7.18-.81 15.08 3.01 20.43 7.65 1.16 1 5.87 5.46 4.73 7.07-2.67.84-5.61-.11-8.18-.98-6.92-2.35-13.71-7.07-16.98-13.74ZM331.05 229.58c-2.75 5.67-8.16 9.94-13.83 12.49-3.36 1.51-7.68 3.14-11.33 2.24-1.14-1.61 3.58-6.07 4.73-7.07 5.32-4.62 13.28-8.47 20.43-7.65ZM333.41 214c-2.07 6.39-7.42 11.64-13.14 14.94-2.92 1.68-6.35 3.34-9.79 3-.04-2.86 2.28-5.72 4.11-7.8 4.61-5.24 11.65-9.98 18.83-10.14ZM89.34 231.93c-3.44.34-6.87-1.32-9.79-3-5.72-3.3-11.06-8.57-13.14-14.94 7.14.16 14.25 4.9 18.83 10.14.89 1.02 5.22 6.67 4.11 7.8ZM333.7 198.7c-.69 7.67-9.4 17.28-16.39 19.93-5.44 2.06-3.61-1.74-1.99-4.94 3.36-6.64 10.85-13.79 18.38-14.99ZM66.11 198.7c7.51 1.19 15.04 8.38 18.38 14.99 1.62 3.2 3.44 6.99-1.99 4.94-6.99-2.64-15.7-12.25-16.39-19.93ZM84.05 205.47c-2.15.11-4.13-1.34-5.73-2.66-5.78-4.78-11.05-12.55-11.03-20.28 6.21 2.11 11.33 7.79 14.27 13.52 1.49 2.9 2.85 6.09 2.49 9.42ZM315.77 205.46c-.51-3.13 1.07-6.65 2.48-9.41 2.95-5.75 8.05-11.37 14.26-13.52.02 7.73-5.25 15.51-11.03 20.28-1.58 1.3-3.58 2.78-5.72 2.65ZM69.93 166.94c5.61 2.36 9.91 8.75 11.99 14.33 1.17 3.15 2.34 7.03 1.53 10.36-1.2 1.03-5.38-3.36-6.15-4.26-2.57-3-7.36-11.42-7.36-15.28v-5.15ZM329.88 166.94v5.15c0 2.46-2.93 8.76-4.29 11.01-1.87 3.08-5.5 8.12-9.23 8.54-.79-3.07.18-6.34 1.16-9.26 2.03-6.06 6.34-12.82 12.35-15.44ZM74.05 149.88c6.73 3.93 11.57 16.5 10.56 23.94-.63 4.68-4.02.23-5.33-1.67-4.29-6.18-6.93-14.81-5.22-22.27ZM325.76 149.88c1.53 6.71-.36 13.81-3.67 19.71-.75 1.33-4.19 6.82-5.86 6.44-1.97-2.62-.95-7.16-.27-10.22 1.33-5.97 4.47-12.65 9.79-15.93ZM317.91 135.56c.19-.17.46-.21.65-.38 2.78 5.26 1.79 12.65-.07 18.16-.51 1.51-3.61 8.88-5.48 8.57s-1.77-8.3-1.67-9.84c.32-4.77 2.9-13.29 6.57-16.51ZM80.82 135.18c.65-.6 3.55 3.67 3.87 4.21 2.97 5.06 4.3 12.46 3.77 18.28-.08.85-.68 4.08-1.65 4.24-1.87.31-4.97-7.06-5.48-8.57-1.99-5.9-2.41-12.19-.51-18.17ZM89.64 121.35c4.98 5.2 5.72 14.4 4.62 21.24-1.03 6.37-3.13 8.41-5.64 1.1s-2.4-15.59 1.02-22.34ZM310.17 121.35c3.43 6.75 3.45 15.24 1.02 22.34-3.44 10.04-5.69 1.31-6.03-3.95-.4-6.12.62-13.87 5.01-18.39ZM100.51 108.41c3.38 6.86 3.3 15.2.73 22.34-.67 1.85-2.36 6.27-4.18 3.03-2.78-4.96-1.75-16.72.66-21.83.25-.54 2.15-4 2.79-3.53ZM108.06 121.54c-.42.38-1.09.89-1.66.57-1.86-.99-1.4-9.17-1.14-11.16.7-5.31 2.86-11.21 6.87-14.88 2.63 4.92 1.82 11.8.22 16.98-.64 2.09-2.74 7.11-4.3 8.49ZM299.3 108.41c.62-.11.81.4 1.12.78 3.99 4.91 4.59 14.76 3.49 20.74-.74 4-2.34 7.82-4.84 2.08-3.13-7.17-3.27-16.57.23-23.6ZM287.68 96.07c2.45 2.17 4.03 5.03 5.15 8.08 1.62 4.44 2.71 11.14 1.63 15.75-.18.78-.52 1.92-1.24 2.31-.96.25-2.61-2.24-3.08-3.01-3.74-6.08-5.76-16.61-2.45-23.13ZM273.72 86.36c6.59 4.24 11.04 15.79 9.97 23.35-.55 3.86-3.73-.16-4.8-1.62-4.26-5.81-6.97-14.64-5.17-21.74ZM126.09 86.36c1.81 7.06-.93 15.96-5.17 21.74-1.07 1.46-4.25 5.47-4.8 1.62-1.08-7.56 3.38-19.11 9.97-23.35ZM274.87 58.98l-13.21-5.86 2.35-5.59 10 4.86 2.29 3.28-1.43 3.31zM280.11 47.17c-.35.34-3.78.73-4.41.6l-9.31-4.38 2.04-4.98 12.64 6.04c.4.3-.81 2.57-.96 2.71ZM160.8 354.29l-4.42 14.99-14.7-4.42 4.42-15 14.7 4.43zM178.64 27.62c.98 1.07 2.05 7.77 2.14 9.47.06 1.11.12 2.54-.58 3.45-1.53 2.01-11.12 2.29-13.83 3.16l-2.23-15.01c3.53-.39 8.08-1.96 11.51-2.05.88-.02 2.38.32 2.98.98ZM129.04 51.95V41.07l8.23 7.2-8.23 3.68z"
          class="cls-1"/>
    <path style="fill:currentColor" d="M291.35 192.82c-.16 8.1-1.2 16.07-3.32 23.89-10.52 38.78-46.83 67.08-87.25 66.99l1.18-23.24c35.16-.23 65.45-30.07 66.2-65.26l23.2-2.38ZM291.36 191.94l-23.19-2.4c-.83-35.19-31.01-64.93-66.2-65.25l-1.18-23.24c18.75.13 37.28 6.19 52.44 17.11 23.57 16.98 38 44.51 38.13 73.77ZM131.65 195.2c.71 35.16 31.04 65.06 66.2 65.26l1.18 23.23c-48.94.3-91.04-41.88-90.27-90.87l22.9 2.38ZM199.02 101.06l-1.18 23.23c-35.15.3-65.45 30.06-66.2 65.25l-22.89 2.4c-.33-28.92 14.37-56.64 37.55-73.47 15.24-11.07 33.81-17.24 52.73-17.41Z"/>
    <path style="fill:currentColor" d="M262.24 190.17c-17.59-2.07-43.05-1.61-51.8-20.39-1.52-3.27-2.74-7.56-3.63-11.08-2.38-9.41-3.63-19.44-4.26-29.12 8.34.59 16.36 2.37 23.92 5.92 20.81 9.78 35.44 31.47 35.77 54.66ZM262.24 194.58c-.49 27.89-20.9 52.68-47.98 58.91-3.86.89-7.76 1.35-11.71 1.67.44-7.93 1.48-16.05 3.08-23.83 1.31-6.32 3.26-14.56 6.85-19.92 10.29-15.38 33.39-14.72 49.76-16.84ZM197.26 129.59c-.5 8.73-1.7 17.69-3.62 26.23-1.03 4.57-2.5 10.37-4.56 14.56-8.88 18.13-34.3 17.75-51.52 19.79.41-25.45 17.71-48.73 41.6-57.06 5.87-2.05 11.9-3.02 18.09-3.52ZM197.26 255.17c-3.86-.32-7.68-.76-11.47-1.61-27.22-6.13-47.73-30.98-48.22-58.97 18.84 2.33 44.41 1.49 52.64 22.49 1.43 3.66 2.56 8.02 3.43 11.86 1.93 8.53 3.11 17.5 3.62 26.23Z"/>
    <path style="fill:currentColor" d="m200.49 293.4.29-7.35c28.21.02 55.45-13.59 72.75-35.61 12.9-16.42 20.12-36.91 20.17-57.91l1.77-.15-1.77-.15c-.09-20.43-6.91-40.58-19.29-56.73-17.39-22.69-44.83-36.69-73.63-36.79l-.46-7.07c.33-.46 3.1-.33 3.85-.3 62.76 2.36 108 61.94 94.38 123.24-10.09 45.43-51.32 78.96-98.07 78.81ZM199.02 292.37c.02.2.46.6.29 1.03-41.98.11-80.32-27.32-94.4-66.61-16.69-46.57 2.43-97.68 44.91-122.14 14.95-8.61 32.19-13.14 49.49-13.3l-.29 7.36c-50.15-.15-93.18 42.8-92.67 93.04l-.44.44-1.58.19 1.58.19.44.44c-.58 50.21 42.55 93.32 92.67 93.04.15 2.03-.21 4.32 0 6.32Z"/>
</svg>