<svg xmlns="http://www.w3.org/2000/svg" id="Layer_1" data-name="Layer 1" viewBox="0 0 400 400">
    <defs>
        <style>.cls-1{fill:#fff}</style>
    </defs>
    <path style="fill:currentColor" d="M193.75.12c101.57-3.5 190.66 71.72 204.35 172.19 17.95 131.8-93.98 243.75-225.79 225.79-81.59-11.11-148.88-73-167.17-153.12C-23.01 121.66 67.96 4.45 193.75.12Zm35.72 11.07L202.2 9.03l-2.19 28.21 27.31 2.04.59-5.75-20.45-1.56.31-5.58 16.12 1.24.3-5.57-15.8-1.25.31-5.27 19.97 1.57.8-5.91Zm-71 31.01 22.02-3.56c6.38-2.17 7.2-5.85 6.45-12.05-.82-6.8-1.62-15.54-10.34-15.65l-22.35 3.63 4.21 27.62Zm126.19 2.17c1.5-.04 4.6.25 5.72-.95.41-.44 3.3-6.4 3.44-7.1.2-.96.28-1.65-.34-2.49l-25.11-12.38-12.24 25.7L282 58.93c.59-.16 1.31-.39 1.74-.84s3.91-7.8 3.96-8.38c.14-1.6-2.52-3.81-3.04-5.34Zm-135.18.61-23.35-20.24c-.29-.2-.52-.16-.84-.09-1.65.35-4.25 2.43-6.16 2.7l-.97 31.27 6.77-2.84.1-5.48L138 44.5c1.51-.78 3.88 3.04 4.86 3.23l6.62-2.75ZM95.22 56.46l9.6 11.33 5.58-4.35-18.11-21.53-5.74 5.08 5.25 21.88-20.75-9.17-5.88 4.73 17.8 21.79 4.97-4.01.11-.72-9.58-11.68 15.48 6.98c.91-.17 4.92-3.53 5-4.04l-3.73-16.27Zm218.28 7.13L315 48l-5.69-4.86c-.41 0-.72 2.96-.77 3.56-.52 6.14-.53 12.38-1 18.54l-5.98 7.35-.11.89 5.35 4.06 6.3-7.37 21.48-5.34c.29-.38-.94-1.42-1.23-1.71-1.26-1.21-2.97-2.22-4.23-3.49l-15.62 3.96ZM192.82 45.08C71.18 50.35 2.8 189.42 73.26 289.41c63.53 90.16 198.65 86.66 257.73-6.33C398.4 176.99 317.67 39.66 192.82 45.07Zm196.34 175.71-9.92-1.41-15.34-14.73-1.1-.3-.78 7.43c3.57 3.54 7.74 6.57 11.3 10.11.26.26.44.28.33.75l-14.2 7.2-.68 7.38 1.15-.24 18.29-10.23 10.01 1.17.94-7.13ZM37.54 207.15l-5.89.62 1.55 11.78-21.72 2.93c-.23.15-.29.37-.3.64-.1 1.56.94 4.58.97 6.33l21.79-2.78 1.74 11.49 5.6-.76-3.74-30.25Zm324.33 39.69-5.57-1.85-10.87 28.51 5.58 1.86 4.04-10.85 20.36 8.02c.28.08.4-.08.56-.26.2-.22 2.12-5.12 2.21-5.58.06-.33.17-.55-.18-.79l-20.15-7.93 4.01-11.13ZM36.92 258l9.79-4.03c.26-.33.09-.61 0-.94-.14-.55-2.23-5.47-2.53-5.55l-25.86 10.69 2.66 6.36 10.05-3.92 5.86 14.55-9.9 4.24 2.49 6.5 26.34-10.69-2.97-6.34-10.03 4L36.91 258Zm302.63 24.18c-.18 1.18-3.8 5.39-3.28 6.2l23.75 14.44c.26-.16 3.05-4.66 3.25-5.15.13-.33.3-.59.02-.92l-23.73-14.56ZM73.52 311.64l4.94-3.56-16.27-21.86-22.45 16.62 16.28 22.13 2.27-1.42 2.5-2.12-12.05-16.57c1.16-.2 3.66-3.31 4.63-2.68l9.45 12.56 4.18-3.27-9.25-12.75c-.12-.78 3.14-2.61 3.84-3.12l11.94 16.05Zm263.54 4.65h-24.03l-4.49 4.81 20.67 19.02 4.73-5.03-13-12.6 24.02.61 4.79-5.06-20.6-19.1-4.78 5.15 12.69 12.2Zm-37.83 13.02-6.22 3.59 11.45 18.85-13.3 8.43-11.49-18.45c-.6-.43-5.36 2.94-6.16 3.59l.27.91c4.28 6.14 7.76 12.86 11.99 19.02 1.12 1.64 1.58 3.16 3.98 2.81l21.86-13.5c.92-.66 1.43-1.61 1.25-2.74l-13.64-22.51Zm-187.89 26.67c-.21.81-2.21 4.41-2.89 4.3l-13.2-8.48 8.65-13.66 13.36 8.07.16.49-2.35 3.84 5.73 3.87c1.61-2.76 7.11-7.85 3.54-10.65-6.14-4.82-14.8-8.47-21.15-13.27-1.19-.54-2.46-.31-3.33.62-3.38 6.26-8.47 12.34-11.72 18.58-2.13 4.11-.44 4.29 2.76 6.42 6.29 4.2 12.92 8 19.37 11.95.49.06.98.05 1.46-.05 1.76-.4 4.49-6.54 5.8-8.13l-6.19-3.9Zm158.44 22.01-7.76-27.28-7.38 2.24-4.25 22.25-15.05-16.59-7.41 2.22 7.42 26.78 6.8-2.05-4.01-14.69 11.48 12.57 6.15-1.45 2.83-17.01 4.36 14.55 6.8-1.53Zm-130.93-26.6c-1.2.27-1.48 1.46-1.86 2.48-2.49 6.65-3.86 14.22-6.35 20.94-.38 1.65.25 3.09 1.93 3.5 7.58 1.86 15.26 5.2 22.8 6.97 2.4.56 3.54 1.11 4.66-1.54 2.83-6.74 4.03-15.2 6.76-22.1.13-1.75-.66-2.4-2.12-3.01-5.61-2.33-16.04-5.28-22.08-6.75-1.27-.31-2.38-.78-3.74-.47Zm47.52 38.69v-13.8c0-.08.3-1.48.62-1.39l6.88 15.14 6.46-.1 7.49-14.53c1.25-1.31.26.07.26.26v14.73h6.82l.62-28.22h-7.6l-10.54 20.15-9.82-20.41-7.7-.36-.62 28.22 7.13.31Z"/>
    <path d="M192.82 45.08C317.67 39.67 398.4 177 330.99 283.09c-59.08 92.99-194.2 96.48-257.73 6.33-70.46-100-2.08-239.07 119.56-244.34Zm7.51 38.66v-5.43c0-.05-.42-.49-.62-.47v5.89c-34.62.02-67.43 17.11-87.56 44.99-28.27 39.17-27.06 92.56 2.79 130.47 20.09 25.51 51.25 41.08 83.94 41.26.21.06.52.7.52.79v7.91c-23.14-2.97-45.7-9.73-65.15-22.75-66.22-44.31-65.23-144.23-.49-189.09l10.46-6.75c-14.37 7.02-27.66 17.9-37.82 30.24-26.06 31.62-31.64 74.25-18.62 112.87 14.45 42.87 53.28 69.56 96.44 78.28l-13.2 3.69c-1.38 1.13.43 5.16 1.93 5.85 8.76-2.59 17.71-5.01 26.78-6.14v11.47c.24.18.62-.63.62-.78v-10.7c9.08 1.12 18.01 3.57 26.78 6.14 1.5-.7 3.31-4.73 1.93-5.85l-13.2-3.69c31.52-6.53 61.97-22.6 81.18-48.89 25.81-35.34 29.38-88.39 7.55-126.5-11.22-19.59-29.1-36.39-49.35-46.3l15.33 10.24c57.04 42.89 60.09 133.2 4.66 178.88-21.17 17.45-47.5 26.39-74.56 29.77v-8.68c33.2.07 64.84-15.9 85.08-41.89 29.32-37.65 30.34-90.52 2.61-129.36-20.15-28.22-53.08-45.49-88-45.48Zm-78.14-3.41c-5.56 3.06-8.81 10.42-10.08 16.43-1.35 6.37-1.35 15.46 5.25 5.56 4.09-6.15 6.75-14.67 4.83-21.98Zm155.65 0c-1.92 7.31.74 15.84 4.83 21.98 3.38 5.08 6.61 6.88 6.01-1.36-.51-7.04-4.46-17.05-10.84-20.62Zm-176.7 37.79c1.15.72 3.12-2.16 3.62-2.97 4.18-6.64 6.15-17.66 2.7-24.89-6.07 5.71-8.25 15.28-7.61 23.41.06.78.79 4.13 1.29 4.44Zm197.75 0c.49-.31 1.23-3.67 1.29-4.44.64-8.13-1.53-17.71-7.61-23.41-3.44 7.17-1.49 18.07 2.58 24.7.51.83 2.54 3.92 3.74 3.16ZM94.75 103.28c-4.96 5.86-5.97 15.01-4.72 22.39.35 2.04.97 4.71 2.59 6.09 2.29.45 4.37-7.91 4.67-9.51 1.2-6.31 1.06-13.45-2.54-18.97Zm210.53 0c-3.6 5.52-3.74 12.67-2.54 18.97.3 1.6 2.39 9.96 4.67 9.51 1.62-1.38 2.24-4.05 2.59-6.09 1.25-7.37.24-16.52-4.72-22.39ZM83.9 117.23c-3.76 5.44-3.78 13.24-2.49 19.54.64 3.15 1.79 7.16 4.35 9.22 1.9.16 3.17-7.57 3.27-9.06.46-6.67-.59-14.55-5.13-19.7Zm232.23 0c-4.58 5.19-5.61 13.27-5.11 19.99.1 1.41 1.38 8.92 3.26 8.76 2.56-2.06 3.7-6.07 4.35-9.22 1.29-6.3 1.27-14.09-2.49-19.54ZM74.45 131.49c-2.9 7.55-1.43 17.39 2.42 24.39 2.38 4.32 5.03 6.27 5.63-.37.65-7.17-1.42-17.58-6.51-22.93-.27-.28-1.14-1.4-1.54-1.09Zm251.14 0c-.39-.3-1.27.81-1.54 1.09-5.13 5.39-7.17 15.71-6.51 22.93.6 6.63 3.25 4.69 5.63.37 3.84-6.97 5.36-16.87 2.42-24.39ZM67.47 147.31c-.94.19-.87 6.83-.79 7.92.38 5.11 3.49 12.57 6.7 16.55 4.56 5.65 5.53 2.6 5.09-3.22-.57-7.4-4.58-17.13-11-21.24Zm264.79 0c-6.68 4.82-11.76 17.19-10.68 25.24.69 5.09 4.58-.01 5.99-2.02 4.02-5.73 6.48-13.84 5.72-20.86-.06-.52-.25-2.54-1.04-2.36ZM77.19 191.29c1.22-6.89-3.13-16.09-7.7-21.21-.86-.96-5.25-5.01-6.35-4.8s-.24 5.26-.07 6.26c.76 4.49 2.95 9.05 5.54 12.75 1.09 1.55 6.42 8.35 8.59 6.99Zm245.64.02c3.14.09 5.76-3.3 7.54-5.58 2.94-3.79 5.78-9.1 6.61-13.85.18-1.02.92-6.38-.08-6.58-1.1-.22-5.5 3.84-6.35 4.8-4.62 5.16-8.85 14.23-7.72 21.22Zm-245 14.58c.58-3.6-1.32-7.6-3.03-10.73-3.09-5.65-8.5-11.79-14.93-13.43.2 7.93 5.39 16.09 11.32 21.07 1.78 1.5 4.18 3.48 6.64 3.09Zm262.33-24.17c-6.54 1.68-11.92 7.89-15.04 13.63-1.69 3.11-3.51 6.95-2.92 10.53 3.8.22 7.82-3.94 10.22-6.64 4.24-4.78 7.59-11 7.74-17.53ZM58.63 198.47c.73 6.79 5.79 13.22 11.01 17.35 1.41 1.12 8.77 6.43 10.25 4.37.99-1.39-2.4-7.11-3.34-8.49-4.19-6.22-10.41-11.68-17.92-13.23Zm282.77 0c-7.51 1.55-13.73 7.01-17.92 13.23-.93 1.39-4.33 7.1-3.34 8.49 1.48 2.06 8.84-3.25 10.25-4.37 5.23-4.14 10.29-10.57 11.01-17.35Zm-258.01 35.3c.98-1.57-3.17-6.9-4.29-8.18-4.76-5.44-12.42-10.67-19.85-10.69 1.66 6.67 7.76 12.38 13.55 15.75 1.44.84 9.49 4.87 10.59 3.12Zm257.39-18.87c-7.41-.02-15.12 5.27-19.85 10.69-1.12 1.28-5.27 6.61-4.29 8.18 2.06.85 4.51-.27 6.46-1.05 7.33-2.96 15.65-9.92 17.68-17.82ZM62.24 231.07c-.56.17-.5.43-.38.89 1.2 4.74 10.22 10.86 14.54 12.75 3.59 1.58 16.92 6.17 9.98-2.23-3.84-4.65-11.36-9.27-17.21-10.7-1.49-.36-5.63-1.12-6.93-.72Zm272.59.04c-5.23.45-10.46 2.78-14.73 5.73s-15.5 13.28-1.95 9.83c6.67-1.7 15.92-7.1 19.28-13.28 1.62-2.99.27-2.53-2.59-2.28ZM95.5 259.83c1.31-1.82-6.87-7.2-8.25-7.97-6.24-3.49-13.75-5.63-20.86-4.09-.23.22.6 1.25.8 1.52 4.48 6.05 13.73 10.18 21.09 11.15 2.53.33 4.86.57 7.22-.61Zm238.15-12.06c-7.12-1.54-14.63.61-20.86 4.09-3.1 1.73-7.32 4.38-8.27 7.98 2.4 1.16 4.69.94 7.24.6 7.36-.97 16.61-5.1 21.09-11.15.2-.27 1.04-1.3.8-1.52Zm-230.1 23.83c1.44-2.31-7.08-6.3-8.65-6.93-6.81-2.72-14.63-3.79-21.7-1.4-.29.39 2.06 2.6 2.48 2.95 3.59 3.01 9.01 5.09 13.58 5.95s9.96 1.41 14.29-.57Zm223.28-8.33c-7.06-2.39-14.9-1.33-21.7 1.4-1.95.78-9.26 4.19-8.71 6.77 1.18.77 2.85 1.25 4.25 1.4 7.3.77 18-1.85 23.69-6.62.42-.35 2.76-2.56 2.48-2.95Zm-214.04 18.82c.27-.3.47-.75.26-1.14-2.14-2.44-5.76-3.68-8.85-4.51-7.5-2.01-15.57-2.12-22.63 1.4-.09.66.53 1.01.96 1.36 4.1 3.45 12.22 5.34 17.48 5.47 2.68.07 11.04-.62 12.79-2.59Zm205.67-4.24c-8.01-3.99-17.92-3.44-26.12-.24-2.01.78-4.42 1.67-5.45 3.75-.04 1.63 5.61 2.77 6.96 2.96 6.05.84 13.32.06 18.93-2.39.8-.35 6.32-3.14 5.68-4.08Zm-194.5 11.86c-1.18-1.34-6.07-2.52-7.9-2.8-7.97-1.21-17.46-.44-23.94 4.72 7.49 5.09 18.89 5.03 27.27 2.16 1.23-.42 6.09-2.36 4.57-4.08Zm152.12 0c-1.52 1.73 3.34 3.66 4.57 4.08 8.4 2.88 19.75 2.93 27.27-2.16-6.48-5.16-15.97-5.93-23.94-4.72-1.83.28-6.72 1.46-7.9 2.8Zm-171.87 14.48c8.39 3.26 18.39 2.13 26.47-1.59 1.96-.9 4.75-2.25 5.42-4.41-.29-1.55-5.31-2.27-6.62-2.37-6.64-.51-15.05.89-20.82 4.28-.76.44-3.95 2.62-4.3 3.15-.21.31-.16.59-.15.93Zm191.62 0c.02-.34.06-.62-.15-.93-.35-.53-3.54-2.7-4.3-3.15-5.78-3.39-14.18-4.79-20.82-4.28-1.31.1-6.33.82-6.62 2.37.67 2.15 3.46 3.5 5.42 4.41 8.08 3.72 18.08 4.86 26.47 1.59Zm-147.62.03c-5.28-2.04-12.36-.73-17.66 1.05s-10.38 4.87-13.63 9.31c0 1.15 8.68 1.18 9.77 1.1 5.45-.4 12.95-3.33 17.42-6.45 1.7-1.19 3.99-2.77 4.09-5Zm103.61 0c.1 2.23 2.39 3.82 4.09 5 4.47 3.12 11.97 6.06 17.42 6.45 1.09.08 9.77.05 9.77-1.1-4.26-5.73-11.4-9.16-18.28-10.55-4.1-.83-9.1-1.53-13 .18Zm-119.71 19.82c7.3 1.16 14.95-1.59 21.06-5.45 1.95-1.23 9.52-6.73 8.68-9.23-2.63-1.73-7.01-.53-9.9.27-7.5 2.06-16.58 7.05-19.84 14.42Zm135.81 0c-3.26-7.36-12.35-12.36-19.84-14.42-2.89-.79-7.26-1.99-9.9-.27-.83 2.51 6.74 8 8.68 9.23 6.13 3.87 13.74 6.58 21.06 5.45Z"
          class="cls-1"/>
    <path d="m95.22 56.46 3.73 16.27c-.08.52-4.09 3.87-5 4.04l-15.48-6.98 9.58 11.68-.11.72-4.97 4.01-17.8-21.79 5.88-4.73 20.75 9.17-5.25-21.88 5.74-5.08 18.11 21.53-5.58 4.35-9.6-11.33ZM186.37 390.08l-7.13-.31.62-28.22 7.7.36 9.82 20.41 10.54-20.15h7.6l-.62 28.22h-6.82v-14.73c0-.2.99-1.57-.26-.26l-7.49 14.53-6.46.1-6.88-15.14c-.31-.09-.62 1.32-.62 1.39v13.8ZM269.78 377.99l-6.8 1.53-4.36-14.55-2.83 17.01-6.15 1.45-11.48-12.57 4.01 14.69-6.81 2.05-7.42-26.78 7.41-2.22 15.05 16.59 4.25-22.25 7.37-2.24 7.76 27.29zM284.66 44.37c.52 1.54 3.18 3.75 3.04 5.34-.05.58-3.52 7.92-3.96 8.38s-1.14.68-1.74.84l-25.87-11.78 12.24-25.7 25.11 12.38c.61.84.53 1.53.34 2.49-.14.7-3.03 6.66-3.44 7.1-1.12 1.19-4.22.91-5.72.95Zm1.24-8.36-13.19-6.22c-.96.02-2.17 3.97-2.9 4.81l10.68 5.1c3.11-.36 4.86-.03 5.41-3.7Zm-18.09 3.42-2.55 5.56 13.83 6.38 1.53-3.44-2.46-3.72-10.35-4.77ZM138.85 351.39c1.36-.31 2.47.16 3.74.47 6.04 1.48 16.47 4.43 22.08 6.75 1.46.61 2.25 1.27 2.12 3.01-2.73 6.9-3.93 15.37-6.76 22.1-1.11 2.65-2.26 2.1-4.66 1.54-7.54-1.77-15.22-5.11-22.8-6.97-1.69-.41-2.32-1.85-1.93-3.5 2.49-6.72 3.86-14.28 6.35-20.94.38-1.02.66-2.21 1.86-2.48Zm19.92 11.42-15.51-4.54-4.82 15.7 15.65 4.61 4.67-15.77ZM158.47 42.2l-4.21-27.62 22.35-3.63c8.72.11 9.52 8.85 10.34 15.65.75 6.2-.07 9.88-6.45 12.05l-22.02 3.56Zm6.2-6.83c3.83-1.13 8.84-.98 12.54-2.19 1.72-.56 2.93-1.94 2.93-3.83 0-1.57-1.3-8.83-1.96-10.13-.75-1.46-1.85-1.9-3.42-2.09l-12.52 2.15 2.44 16.08ZM337.06 316.29l-12.69-12.21 4.79-5.15 20.59 19.11-4.79 5.06-24.02-.61 13 12.6-4.73 5.03-20.67-19.03 4.49-4.8h24.03zM111.34 355.98l6.19 3.9c-1.31 1.59-4.04 7.73-5.8 8.13-.48.11-.97.12-1.46.05-6.45-3.95-13.08-7.75-19.37-11.95-3.2-2.14-4.89-2.32-2.76-6.42 3.24-6.25 8.33-12.32 11.72-18.58.87-.93 2.14-1.15 3.33-.62 6.35 4.8 15 8.45 21.15 13.27 3.57 2.8-1.94 7.88-3.54 10.65l-5.73-3.87 2.35-3.84-.16-.49-13.36-8.07-8.65 13.66 13.2 8.48c.68.11 2.69-3.49 2.89-4.3ZM73.52 311.64l-11.94-16.05c-.7.51-3.96 2.35-3.84 3.12l9.25 12.75-4.18 3.27-9.45-12.56c-.97-.63-3.47 2.48-4.63 2.68l12.05 16.57-2.5 2.12-2.27 1.42-16.28-22.13 22.45-16.62 16.27 21.86-4.94 3.56ZM229.47 11.19l-.8 5.91-19.97-1.57-.31 5.27 15.79 1.26-.29 5.56-16.12-1.24-.31 5.58 20.45 1.57-.59 5.74-27.31-2.04 2.19-28.2 27.27 2.16zM36.92 258l5.91 14.87 10.03-4 2.97 6.34-26.34 10.69-2.49-6.5 9.9-4.24-5.86-14.55-10.05 3.92-2.66-6.36 25.86-10.69c.3.08 2.39 5 2.53 5.55.08.33.25.61 0 .94L36.93 258ZM299.23 329.31l13.64 22.51c.18 1.13-.34 2.09-1.25 2.74l-21.86 13.5c-2.4.36-2.86-1.17-3.98-2.81-4.23-6.16-7.71-12.88-11.99-19.02l-.27-.91c.8-.65 5.56-4.01 6.16-3.59l11.49 18.45 13.3-8.43-11.45-18.85 6.22-3.59ZM149.48 44.98l-6.62 2.75c-.98-.19-3.34-4.01-4.86-3.23l-12.97 5.8-.1 5.48-6.77 2.84.97-31.27c1.91-.27 4.5-2.35 6.16-2.7.32-.07.55-.11.84.09l23.35 20.24Zm-24.19-12.71v11.78l8.99-3.72-8.99-8.06ZM361.87 246.84l-4.01 11.13 20.15 7.93c.35.24.24.45.18.79-.09.46-2.01 5.36-2.21 5.58-.16.18-.29.34-.56.26l-20.36-8.02-4.04 10.85-5.58-1.86 10.87-28.51 5.57 1.85ZM37.54 207.15l3.74 30.25-5.6.76-1.74-11.49-21.79 2.78c-.03-1.75-1.07-4.76-.97-6.33.02-.26.07-.48.3-.64l21.72-2.93-1.55-11.78 5.89-.62ZM313.5 63.59l15.62-3.96c1.25 1.27 2.97 2.29 4.23 3.49.3.28 1.53 1.33 1.23 1.71l-21.48 5.34-6.3 7.37-5.35-4.06.11-.89 5.98-7.35c.47-6.15.47-12.39 1-18.54.05-.61.36-3.57.77-3.56L315 48l-1.5 15.59ZM389.16 220.79l-.94 7.13-10.01-1.17-18.29 10.23-1.15.24.68-7.38 14.2-7.2c.11-.48-.07-.5-.33-.75-3.55-3.54-7.73-6.57-11.3-10.11l.78-7.43 1.1.3 15.34 14.73 9.92 1.41ZM339.55 282.18l23.73 14.56c.28.34.11.59-.02.92-.19.49-2.99 4.99-3.25 5.15l-23.75-14.44c-.52-.82 3.1-5.02 3.28-6.2Z"
          class="cls-1"/>
    <path style="fill:currentColor" d="M200.33 83.74c34.92 0 67.85 17.26 88 45.48 27.73 38.84 26.71 91.71-2.61 129.36-20.24 25.99-51.88 41.96-85.08 41.89v8.68c27.06-3.38 53.39-12.33 74.56-29.77 55.43-45.68 52.38-135.99-4.66-178.88l-15.33-10.24c20.25 9.9 38.14 26.71 49.35 46.3 21.82 38.11 18.26 91.17-7.55 126.5-19.21 26.29-49.66 42.36-81.18 48.89l13.2 3.69c1.38 1.13-.43 5.16-1.93 5.85-8.77-2.57-17.7-5.02-26.78-6.14v10.7c0 .15-.38.95-.62.78v-11.47c-9.07 1.13-18.02 3.55-26.78 6.14-1.5-.69-3.3-4.72-1.93-5.85l13.2-3.69c-43.16-8.72-81.99-35.42-96.44-78.28-13.02-38.61-7.43-81.25 18.62-112.87 10.16-12.33 23.45-23.21 37.82-30.24l-10.46 6.75c-64.74 44.87-65.73 144.78.49 189.09 19.46 13.02 42.01 19.78 65.15 22.75v-7.91c0-.09-.32-.72-.52-.79-32.69-.18-63.85-15.75-83.94-41.26-29.85-37.91-31.06-91.3-2.79-130.47 20.13-27.88 52.94-44.97 87.56-44.99v-5.89c.2-.02.62.41.62.47v5.43Zm-1.24 214.88v-7.44c-21.67-.34-42.79-7.69-59.81-20.96-23.6-18.41-38.18-47.25-38.16-77.43l-2.19-.67 2.19-.67c-.24-49.32 38.94-92.7 87.93-97.73 3.34-.34 6.7-.21 10.02-.67l.33-7.43c-32.6.13-63.48 15.58-83.39 41.1-28.8 36.9-29.91 88.44-3.06 126.75 19.48 27.78 52 45.02 86.14 45.17Zm1.86 0c36.22-.07 70.36-19.44 89.43-49.95 29.23-46.75 17.94-107.83-25.59-141.17-18.26-13.99-41.05-21.75-64.15-21.89l.33 7.43c3.23.47 6.5.32 9.75.64 49.09 4.87 88.69 48.3 88.2 97.77l2.19.67-2.19.67c.42 40.39-26.08 77.55-63.47 91.8-11.04 4.21-22.66 6.34-34.49 6.59v7.44Zm-2.17-202.79c-19.9.31-39.25 6.73-55.29 18.35-24.39 17.67-39.72 46.79-39.59 77.15l23.87-2.17c1.11-32.97 25.87-61.74 58.24-67.8 3.92-.73 7.86-.96 11.82-1.35l.95-24.17Zm97.67 95.51c-.32-11.45-2.24-22.55-6.28-33.26-13.86-36.77-49.41-61.87-88.91-62.25l.95 24.17c9.45.48 18.52 2.32 27.17 6.16 24.91 11.05 41.83 35.61 42.89 62.99l24.18 2.18Zm-99.22-65.12c-33.77.56-62.2 29.66-62.95 63.26 8.63-.65 17.59-1.26 26.1-2.89 23.78-4.54 29.62-15.17 33.9-37.72 1.42-7.47 2.25-15.07 2.94-22.64Zm68.52 63.26c-.78-33.61-29.16-62.67-62.95-63.26.55 6.34 1.21 12.7 2.26 18.98 4.03 23.94 8.95 36.49 34.58 41.39 8.51 1.63 17.47 2.24 26.1 2.89Zm-137.98 5.58-23.87-2.17c-.09 17.67 5.14 35.29 14.45 50.21 17.18 27.53 47.75 45.05 80.44 45.3l-.93-24.19c-14.27-.49-27.84-4.92-39.48-13.08-18.18-12.74-29.79-33.73-30.6-56.06Zm168.68-2.18-24.18 2.18c-.62 12.38-4.17 24.51-10.73 35.01-12.79 20.46-35.06 33.49-59.35 34.13l-.93 24.19c39.1-.16 74.53-25.14 88.6-61.32 4.25-10.93 6.28-22.45 6.59-34.19Zm-99.23 65.43c-1.57-13.55-2.66-29.53-8.31-42.07-8.91-19.74-36.2-19.76-54.63-21.5.85 30.06 22.97 56.23 52.39 62.18 3.49.71 7.03.91 10.55 1.38Zm68.53-63.57c-18.44 1.73-45.71 1.74-54.63 21.5-1.35 3-2.47 6.81-3.33 10-2.79 10.37-4.07 21.38-4.98 32.07 2.02-.46 4.21-.38 6.31-.66 31.4-4.26 55.68-31.21 56.63-62.9Z"/>
    <path style="fill:currentColor" d="M132.11 324.04c3.26-7.36 12.35-12.36 19.84-14.42 2.89-.79 7.26-1.99 9.9-.27.83 2.51-6.74 8-8.68 9.23-6.11 3.86-13.76 6.61-21.06 5.45ZM267.92 324.04c-7.32 1.13-14.93-1.58-21.06-5.45-1.95-1.23-9.52-6.73-8.68-9.23 2.63-1.73 7.01-.53 9.9.27 7.5 2.06 16.58 7.05 19.84 14.42ZM148.21 304.22c-.1 2.23-2.39 3.82-4.09 5-4.47 3.12-11.97 6.06-17.42 6.45-1.09.08-9.77.05-9.77-1.1 3.25-4.43 8.46-7.58 13.63-9.31s12.38-3.1 17.66-1.05ZM251.82 304.22c3.9-1.71 8.9-1.01 13-.18 6.89 1.39 14.03 4.82 18.28 10.55 0 1.15-8.68 1.18-9.77 1.1-5.45-.4-12.95-3.33-17.42-6.45-1.7-1.19-3.99-2.77-4.09-5ZM295.83 304.19c-8.39 3.26-18.39 2.13-26.47-1.59-1.96-.9-4.75-2.25-5.42-4.41.29-1.55 5.31-2.27 6.62-2.37 6.64-.51 15.05.89 20.82 4.28.76.44 3.95 2.62 4.3 3.15.21.31.16.59.15.93ZM104.21 304.19c-.02-.34-.06-.62.15-.93.35-.53 3.54-2.7 4.3-3.15 5.78-3.39 14.18-4.79 20.82-4.28 1.31.1 6.33.82 6.62 2.37-.67 2.15-3.46 3.5-5.42 4.41-8.08 3.72-18.08 4.86-26.47 1.59ZM123.96 289.71c1.52 1.73-3.34 3.66-4.57 4.08-8.38 2.87-19.78 2.94-27.27-2.16 6.48-5.16 15.97-5.93 23.94-4.72 1.83.28 6.72 1.46 7.9 2.8ZM276.08 289.71c1.18-1.34 6.07-2.52 7.9-2.8 7.97-1.21 17.46-.44 23.94 4.72-7.52 5.08-18.86 5.04-27.27 2.16-1.23-.42-6.09-2.36-4.57-4.08ZM318.46 277.85c.64.94-4.88 3.73-5.68 4.08-5.61 2.45-12.88 3.23-18.93 2.39-1.35-.19-7-1.33-6.96-2.96 1.02-2.08 3.44-2.96 5.45-3.75 8.2-3.2 18.11-3.75 26.12.24ZM112.79 282.09c-1.74 1.97-10.1 2.65-12.79 2.59-5.26-.13-13.38-2.01-17.48-5.47-.43-.36-1.04-.71-.96-1.36 7.06-3.51 15.13-3.41 22.63-1.4 3.09.83 6.71 2.06 8.85 4.51.2.39 0 .84-.26 1.14ZM103.55 271.6c-4.32 1.98-9.72 1.43-14.29.57s-10-2.94-13.58-5.95c-.42-.35-2.76-2.56-2.48-2.95 7.06-2.39 14.89-1.33 21.7 1.4 1.57.63 10.09 4.62 8.65 6.93ZM326.83 263.27c.29.39-2.06 2.6-2.48 2.95-5.68 4.77-16.38 7.39-23.69 6.62-1.4-.15-3.06-.63-4.25-1.4-.55-2.59 6.76-5.99 8.71-6.77 6.8-2.72 14.64-3.79 21.7-1.4ZM95.5 259.83c-2.37 1.18-4.69.95-7.22.61-7.36-.97-16.61-5.1-21.09-11.15-.2-.27-1.04-1.3-.8-1.52 7.12-1.54 14.63.61 20.86 4.09 1.39.77 9.57 6.15 8.25 7.97ZM333.65 247.77c.23.22-.6 1.25-.8 1.52-4.48 6.05-13.74 10.18-21.09 11.15-2.55.34-4.84.55-7.24-.6.95-3.6 5.17-6.25 8.27-7.98 6.24-3.49 13.75-5.63 20.86-4.09ZM62.24 231.07c1.3-.4 5.44.36 6.93.72 5.85 1.43 13.37 6.05 17.21 10.7 6.94 8.4-6.39 3.81-9.98 2.23-4.32-1.9-13.34-8.02-14.54-12.75-.12-.47-.18-.73.38-.89ZM334.83 231.11c2.87-.25 4.22-.7 2.59 2.28-3.36 6.18-12.61 11.58-19.28 13.28-13.55 3.45-2.34-6.87 1.95-9.83s9.51-5.28 14.73-5.73ZM340.78 214.9c-2.03 7.89-10.35 14.86-17.68 17.82-1.95.79-4.4 1.9-6.46 1.05-.98-1.57 3.17-6.9 4.29-8.18 4.73-5.41 12.44-10.71 19.85-10.69ZM83.39 233.77c-1.1 1.75-9.15-2.28-10.59-3.12-5.79-3.37-11.89-9.08-13.55-15.75 7.43.02 15.09 5.24 19.85 10.69 1.12 1.28 5.27 6.61 4.29 8.18ZM341.4 198.47c-.73 6.79-5.79 13.22-11.01 17.35-1.41 1.12-8.77 6.43-10.25 4.37-.99-1.39 2.4-7.11 3.34-8.49 4.19-6.22 10.41-11.68 17.92-13.23ZM58.63 198.47c7.51 1.55 13.73 7.01 17.92 13.23.93 1.39 4.33 7.1 3.34 8.49-1.48 2.06-8.84-3.25-10.25-4.37-5.23-4.14-10.29-10.57-11.01-17.35ZM340.16 181.72c-.15 6.52-3.5 12.75-7.74 17.53-2.4 2.7-6.43 6.86-10.22 6.64-.59-3.58 1.23-7.42 2.92-10.53 3.12-5.74 8.5-11.96 15.04-13.63ZM77.83 205.89c-2.46.38-4.86-1.59-6.64-3.09-5.94-4.99-11.13-13.14-11.32-21.07 6.44 1.65 11.84 7.78 14.93 13.43 1.71 3.13 3.61 7.13 3.03 10.73ZM322.83 191.31c-1.13-6.98 3.1-16.06 7.72-21.22.86-.96 5.25-5.01 6.35-4.8 1 .2.26 5.56.08 6.58-.84 4.75-3.67 10.06-6.61 13.85-1.78 2.29-4.4 5.67-7.54 5.58ZM77.19 191.29c-2.16 1.36-7.5-5.44-8.59-6.99-2.59-3.71-4.78-8.27-5.54-12.75-.17-1-.99-6.05.07-6.26s5.5 3.84 6.35 4.8c4.58 5.12 8.92 14.32 7.7 21.21ZM67.47 147.31c6.42 4.11 10.43 13.84 11 21.24.45 5.82-.53 8.88-5.09 3.22-3.21-3.98-6.32-11.44-6.7-16.55-.08-1.09-.15-7.73.79-7.92ZM332.26 147.31c.79-.18.98 1.85 1.04 2.36.75 7.02-1.7 15.14-5.72 20.86-1.41 2-5.3 7.11-5.99 2.02-1.08-8.05 4-20.42 10.68-25.24ZM325.59 131.49c2.93 7.52 1.42 17.42-2.42 24.39-2.38 4.32-5.03 6.27-5.63-.37-.66-7.22 1.39-17.54 6.51-22.93.27-.28 1.14-1.4 1.54-1.09ZM74.45 131.49c.39-.3 1.27.81 1.54 1.09 5.09 5.36 7.17 15.76 6.51 22.93-.6 6.63-3.25 4.69-5.63.37-3.85-7-5.33-16.84-2.42-24.39ZM316.13 117.23c3.76 5.44 3.78 13.24 2.49 19.54-.64 3.15-1.79 7.16-4.35 9.22-1.88.16-3.15-7.36-3.26-8.76-.5-6.72.53-14.8 5.11-19.99ZM83.9 117.23c4.54 5.15 5.59 13.03 5.13 19.7-.1 1.48-1.37 9.22-3.27 9.06-2.56-2.06-3.7-6.07-4.35-9.22-1.29-6.3-1.27-14.09 2.49-19.54ZM305.28 103.28c4.96 5.86 5.97 15.01 4.72 22.39-.35 2.04-.97 4.71-2.59 6.09-2.29.45-4.37-7.91-4.67-9.51-1.2-6.31-1.06-13.45 2.54-18.97ZM94.75 103.28c3.6 5.52 3.74 12.67 2.54 18.97-.3 1.6-2.39 9.96-4.67 9.51-1.62-1.38-2.24-4.05-2.59-6.09-1.25-7.37-.24-16.52 4.72-22.39ZM101.14 118.12c-.49-.31-1.23-3.67-1.29-4.44-.64-8.13 1.53-17.71 7.61-23.41 3.46 7.23 1.49 18.25-2.7 24.89-.51.8-2.47 3.69-3.62 2.97ZM298.89 118.12c-1.2.75-3.23-2.33-3.74-3.16-4.07-6.63-6.02-17.52-2.58-24.7 6.07 5.71 8.25 15.28 7.61 23.41-.06.78-.79 4.13-1.29 4.44ZM277.84 80.33c6.39 3.58 10.33 13.58 10.84 20.62.6 8.24-2.63 6.44-6.01 1.36-4.09-6.15-6.75-14.67-4.83-21.98ZM122.19 80.33c1.92 7.31-.74 15.84-4.83 21.98-6.59 9.9-6.59.82-5.25-5.56 1.27-6.01 4.52-13.37 10.08-16.43ZM267.81 39.43l10.35 4.77 2.46 3.73-1.53 3.44-13.83-6.38 2.55-5.56zM285.9 36.01c-.54 3.67-2.3 3.34-5.41 3.7l-10.68-5.1c.72-.84 1.93-4.8 2.9-4.81l13.19 6.22ZM158.77 362.81l-4.67 15.77-15.66-4.61 4.82-15.7 15.51 4.54zM164.67 35.37l-2.44-16.08 12.52-2.15c1.58.19 2.68.63 3.42 2.09.66 1.29 1.96 8.56 1.96 10.13 0 1.89-1.21 3.27-2.93 3.83-3.7 1.21-8.71 1.06-12.54 2.19ZM125.29 32.27l8.99 8.06-8.99 3.72V32.27z"/>
    <path d="M296.45 192.88c-.31 11.73-2.34 23.26-6.59 34.19-14.08 36.18-49.5 61.15-88.6 61.32l.93-24.19c24.29-.64 46.57-13.67 59.35-34.13 6.56-10.5 10.1-22.63 10.73-35.01l24.18-2.18ZM296.45 191.34l-24.18-2.18c-1.06-27.38-17.99-51.95-42.89-62.99-8.65-3.84-17.72-5.68-27.17-6.16l-.95-24.17c39.5.38 75.05 25.48 88.91 62.25 4.04 10.71 5.96 21.81 6.28 33.26ZM127.77 195.06c.81 22.33 12.42 43.32 30.6 56.06 11.64 8.16 25.2 12.59 39.48 13.08l.93 24.19c-32.69-.24-63.26-17.77-80.44-45.3-9.3-14.91-14.53-32.54-14.45-50.21l23.87 2.17ZM198.78 95.83l-.95 24.17c-3.96.39-7.9.62-11.82 1.35-32.36 6.07-57.12 34.84-58.24 67.8l-23.87 2.17c-.13-30.36 15.2-59.48 39.59-77.15 16.04-11.62 35.39-18.05 55.29-18.35Z"
          class="cls-1"/>
    <path d="M265.75 189.48c-8.63-.65-17.59-1.26-26.1-2.89-25.63-4.89-30.55-17.44-34.58-41.39-1.06-6.28-1.71-12.64-2.26-18.98 33.79.58 62.16 29.64 62.95 63.26ZM197.23 126.22c-.69 7.58-1.52 15.17-2.94 22.64-4.28 22.55-10.12 33.18-33.9 37.72-8.51 1.63-17.47 2.24-26.1 2.89.75-33.6 29.17-62.7 62.95-63.26ZM197.22 258.31c-3.51-.47-7.06-.68-10.55-1.38-29.42-5.95-51.54-32.12-52.39-62.18 18.42 1.74 45.72 1.75 54.63 21.5 5.66 12.54 6.74 28.52 8.31 42.07ZM265.75 194.74c-.95 31.69-25.23 58.64-56.63 62.9-2.1.29-4.29.2-6.31.66.91-10.69 2.19-21.69 4.98-32.07.86-3.19 1.98-7 3.33-10 8.92-19.76 36.19-19.77 54.63-21.5Z"
          class="cls-1"/>
    <path d="M200.95 298.62v-7.44c11.83-.25 23.45-2.38 34.49-6.59 37.4-14.25 63.9-51.41 63.47-91.8l2.19-.67-2.19-.67c.49-49.47-39.11-92.9-88.2-97.77-3.25-.32-6.52-.17-9.75-.64l-.33-7.43c23.1.15 45.89 7.9 64.15 21.89 43.53 33.34 54.81 94.42 25.59 141.17-19.07 30.5-53.21 49.88-89.43 49.95ZM199.09 298.62c-34.14-.15-66.66-17.39-86.14-45.17-26.85-38.3-25.75-89.84 3.06-126.75 19.92-25.52 50.79-40.97 83.39-41.1l-.33 7.43c-3.32.46-6.68.33-10.02.67-48.99 5.04-88.17 48.41-87.93 97.73l-2.19.67 2.19.67c-.02 30.18 14.55 59.03 38.16 77.43 17.02 13.27 38.14 20.62 59.81 20.96v7.44Z"
          class="cls-1"/>
</svg>