<svg xmlns="http://www.w3.org/2000/svg" data-name="Layer 1" viewBox="0 0 200 200">
    <path style="fill:currentColor" d="M68.52.02 32.05 36.77l5.06 6.76 55.02 49.12c-7.18 5.64-15.77 19.98-25.81 12.22-14.11-13.82-29.56-26.3-44.1-39.65C16.75 60.2 7.24 52.77 2.88 47.71c-4.89-5.67-3.18-10.86 2.3-15.17 9.83-7.75 36.94-19.71 49.53-26.18 4.45-2.29 9.02-4.81 13.81-6.34ZM134.9 103.35c-3.97 3.02-5.06 5.02-11.3 3.07-1.31-.41-15.71-12.73-15.68-13.77l55.66-49.46 4.4-6.43L132.04 0l62.83 32.54c5.85 4.21 6.92 9.81 2.05 15.42-21.3 16.83-40.6 39.1-62.02 55.4Z"/>
    <path style="fill:currentColor" d="M68.1 122.96c1.21 1.03 4.11 4.68 5.68 4.41l21.3-18.55 2.96 22.55-9.21-6.79-6.54 7.25c5.37 4.89 15.2 11.04 15.69 18.81.84 13.24-7.66 25.8-5.76 39.96.44 3.27 2.53 6.11 2.86 9.4-8.68-7.65-11.82-19.42-11.96-30.72l-4.76-2.19c-4.84 5.58-8.48 13.63-6.91 21.15-8.06-7.23-2.97-21.43 0-30.38-7.27.96-9.96 7.47-13.94 12.09-.88 1.02-.97 2.05-2.79 1.63-.81-4.29-1.55-8.75-.9-13.15s4.14-7.07 4.83-11.35l-16.72 9.8c-2.38-18.7 17.86-17.68 25.59-30.38-3.47.25-7.82 2.53-11.27 1.97-4.02-.65-9.1-8.47-12.62-10.05-4.84-2.18-13.98-2.15-19.43-2.72-.43-2.24.14-1.56 1.26-2.19 3.07-1.71 7.1-1.92 10.55-1.74-2.75-8.12-8.46-15.59-8.37-24.5 13.65 11.7 26.76 24.07 40.46 35.7ZM164.03 111.76c3.45-.18 7.48.03 10.55 1.74 1.12.62 1.68-.05 1.26 2.19-5.44.56-14.59.53-19.43 2.72-3.94 1.78-7.9 9.31-12.65 10.03-3.55.53-7.72-1.66-11.24-1.95 7.73 12.7 27.97 11.68 25.59 30.38l-16.72-9.8c.69 4.29 4.17 6.86 4.83 11.35s-.09 8.85-.9 13.15c-1.82.42-1.91-.61-2.79-1.63-3.98-4.62-6.67-11.13-13.94-12.09 2.99 8.88 7.47 21.63.99 29.41-.5-7.31-2.89-14.69-7.89-20.17l-4.76 2.19c-.14 11.3-3.29 23.08-11.96 30.72 2.41-6.74 3.72-12.82 2.95-20.1-1.14-10.78-10.04-26.23-2.97-36.27 2.82-4 9.01-8.49 12.81-11.79l-6.54-7.25-9.21 6.79 2.96-22.55 21.99 18.54 45.93-40.11c-.98 8.85-5.79 16.35-8.85 24.5Z"/>
</svg>