<svg xmlns="http://www.w3.org/2000/svg" data-name="Layer 1" viewBox="0 0 100 90">
    <path style="fill:currentColor" d="m50.83 23.15-.15-.81c7.06-4.75 15.76-8.83 24.19-10.47 24.01-4.65 31.14 10.48 19.96 30.39-5.89 10.49-15.37 19.61-25.11 26.45L80.83 90l-3-.17-12.1-22.56C54.08 48.51 24.8 50.97 5.78 50.89c-1.74-.06-1.59-2.65.03-2.7 19.02.08 50.33 3.44 35.68-26.12-3.37-6.8-7.4-13.32-10.83-20.09C29.93.07 32.25-.7 33.2.79c5.57 9.31 9.94 20.44 15.88 29.42 7.23 10.93 20.13 18.37 33.37 17.82 4.97-7.42 8.59-20.44.13-26.77-7.11-5.32-18.81-2.73-26.5 0-.81.29-4.81 2.25-5.26 1.9Zm30 27.72h-6.08c-.39 0-2.39.68-2.91.88-6.03 2.37-6.39 7.95-3.85 13.24 4.77-4.22 9.27-8.82 12.84-14.12Z"/>
    <path style="fill:currentColor" d="M31.08 23.7h-7.44c-1.25 0-3.13 1.11-3.09 2.55.08 2.98 4.63 8.29 5.36 11.39l-.67.72c-.41.07-.68-.43-.87-.71-2.69-3.89-3.67-9.56-8.14-11.92-1.08-.57-4.72-1.75-5.82-1.75H.66s-.63-.58-.66-.72c-.08-.28.58-.91.65-.91h8.11c.16 0 1.91-.62 2.21-.76 3.11-1.45 2.35-4.16 1.21-6.76-.5-1.15-4.03-6.78-3.71-7.42.47-.95 1.01-.47 1.46.18 4.22 6.08 4.89 13.92 14.24 14.76 1.78.16 4.95-.35 6.43.06.76.21.67.7.46 1.3ZM64.06 68.55l1.35 3.09a77.552 77.552 0 0 1-13.24 7.08c-8.99 3.74-24.18 7.66-32.3.41-.4-.36-1.49-1.18-1.09-1.62 5.63 4.57 13.18 4.33 19.93 2.9 8.83-1.86 17.3-6.49 24.56-11.73l.79-.13Z"/>
</svg>