<svg xmlns="http://www.w3.org/2000/svg" id="Layer_1" version="1.1" viewBox="0 0 100 100"><defs><style>.st0{fill:#0d0d0d;fill-rule:evenodd}</style></defs><path d="M31.24 38.63c.12-.31.05-.66.64-.67.7-.02 1.39-.1 2.02-.71.65-.63 1.6-.99 2.47-1.37 1.33-.58 2.74-.98 4.03-1.62.96-.48 2.08-.65 2.87-1.47.93-.12 1.65-.73 2.47-1.1.18-.08.47-.16.5-.29.12-.52.38-.27.7-.26.49.03.96-.04 1.43-.39.79-.58 1.62-1.14 2.65-1.32.5-.09.95-.48 1.41-.74.1-.06.19-.2.29-.21.47-.02.98.11 1.4-.05.39-.14.64-.68 1.03-.85.84-.36 1.74-.6 2.61-.89 4.74-1.58 9.5-3.1 14.48-3.79 1.91-.27 3.79-.74 5.69-1.08 1.66-.3 3.33-.5 4.98-.85 1.48-.31 3.01-.45 4.43-1.07.52-.23 1.18-.15 1.77-.25 2.75-.45 5.52-.65 8.31-.54.6.02 1.2.13 1.79.26.55.12.83.5.77.92-.07.44-.41.7-.98.69-.72-.01-1.47-.2-2.16-.07-1.7.31-3.38.76-5.06 1.16-1.72.41-3.27 1.26-4.91 1.89-1.72.67-3.55 1.03-5.32 1.59-2.53.81-5.03 1.72-7.57 2.51-2.28.71-4.41 1.76-6.56 2.79-2.11 1.01-4.25 1.96-6.37 2.96-.5.24-1.01.48-1.45.82-.46.36-1.09.25-1.54.74-.39.42-1.02.63-1.55.93-.49.28-.99.54-1.49.82l-1.59.87c-.53.29-1.06.6-1.6.85-.5.23-1.02.4-1.53.61-.09.04-.14.15-.21.22-.17.17-.31.41-.51.49-1.21.43-2.05 1.48-3.22 1.96v-.02c-.18-.29-.38-.84-.54-.82-.57.04-.18.58-.25.88-.21.88-.65 1.25-1.6 1.04-.23-.05-.42-.1-.46.14-.13.83-.91 1-1.44 1.39a87.114 87.114 0 0 1-4.68 3.16c-.36.23-.67.73-1.25.5-.06-.02-.24.16-.3.28-.13.24-.23.5-.38.84-.14-.11-.26-.23-.4-.33-.12-.09-.25-.15-.38-.23-.04.14-.09.28-.11.42-.17 1.01-.49 1.21-1.53.9-.33-.1-.47-.03-.44.3.05.63-.35.95-.82 1.2-.18.09-.5.14-.64.04-.61-.43-1.08-.06-1.57.22.02.03.04.07.06.1h-.02c.17.24.13.64.55.7l-.02-.03c-.39.31-.78.62-1.17.92 0-.12.05-.26 0-.34-.07-.11-.21-.17-.33-.23-.01 0-.14.12-.13.16.02.1.08.21.16.27.09.07.22.09.33.13-.57.39-1.35.57-1.43 1.45 0 .04-.26.02-.36.08-.14.1-.35.28-.32.38.07.3 0 .34-.27.31-.15-.02-.35-.01-.44.07-.86.76-1.7 1.55-2.54 2.32l.03-.03c-.22.17-.46.33-.65.53-.17.18-.14.38.15.42.52.07 1.04.11 1.56.17 1.91.21 3.82.42 5.73.64 1.08.13 2.16.24 3.23.43.58.11 1.21.27 1.68.61.71.51 1 1.35 1.13 2.2.2 1.27-.27 2.36-1.01 3.36-.04.06-.12.1-.18.14q-.51.38-.11.89c.05.06.12.14.12.2 0 .09-.04.25-.09.26-.2.04-.56-.03-.6.06-.3.65-.92 1.13-.93 1.93-.03 1.53-.11 3.07-.18 4.6-.01.32 0 .65-.06.96-.09.46-.46.75-.84.72-.39-.03-.69-.35-.71-.84-.02-.69 0-1.37.01-2.06 0-.85 0-1.7.01-2.54 0-.82-.08-1.59-.66-2.27-.24-.28-.26-.75-.41-1.12-.03-.08-.18-.18-.25-.17-.08.01-.19.15-.19.24 0 .65.04 1.29.03 1.94 0 .44-.04.89-.11 1.32-.08.43-.35.73-.82.75-.45.02-.79-.3-.86-.84-.03-.23.02-.48.03-.72.01-.72.02-1.44.04-2.16 0-.42-.15-.68-.62-.71-.48-.04-.96-.14-1.44-.2-1.26-.15-2.52-.29-3.78-.42-.14-.01-.29.08-.43.08-.52.02-1.09.15-1.55 0-1.1-.36-2.2-.1-3.29-.22-.83-.09-1.59.02-2.39.17-.83.16-1.68.17-2.52.23-.32.02-.64-.01-.96-.02 0-.09-.01-.18-.02-.27-.03 0-.06.02-.09.03.05.07.1.14.14.22-1.11.14-2.22.31-3.33.42-.92.09-1.03.11-1.21 1.02-.16.83-.24 1.68-.35 2.52-.37 2.93-.37 5.87-.22 8.82.02.4.04.81-.02 1.21-.06.44-.44.73-.83.73-.4 0-.74-.29-.82-.74-.04-.2-.04-.4-.03-.6.15-2.46.3-4.91.46-7.37.06-.89.15-1.77.21-2.65.02-.24.03-.51-.06-.71-.35-.79-.74-1.57-1.33-2.3-.02.18-.07.35-.07.53-.03 1.17-.05 2.34-.08 3.5 0 .16-.02.32-.04.48-.06.36-.29.6-.64.62-.41.03-.73-.22-.76-.62-.05-.6-.02-1.21 0-1.81.02-.4.14-.8.15-1.2.02-1.2.26-2.43-.74-3.44-.26-.26-.35-.72-.44-1.11-.1-.46-.33-.67-.79-.77-.35-.07-.37-.28.03-.37.47-.11.44-.61.46-.86.1-1.34.71-2.44 1.42-3.51.04-.06.04-.16.06-.23l-.03.03c.49-.27.74-.73.92-1.23l-.03.03c.17-.21.31-.53.53-.61.77-.26.33-1.07.72-1.49.05-.05-.1-.28-.16-.43l-.03.02.29-.29-.02.03c.52.04.85-.27 1.02-.69.17-.4.23-.61.5-.06.05.1.49-.47.4-.7-.22-.63-.23-.66.35-.79.56-.13.78-.33.46-.91-.09-.16-.04-.56.09-.67.71-.59.58-1.79 1.59-2.17.07-.03.09-.27.07-.41-.06-.53 0-.96.68-.97-.03.34.25.33.34.18.22-.35.47-.78.45-1.16-.02-.32 0-.58.22-.74.63-.47 1.08-1.12 1.64-1.65.01.15.03.3.04.45.05-.04.15-.11.15-.12-.07-.11-.15-.21-.22-.31 1-1.87 1.99-3.76 3.02-5.62.32-.58.67-1.15 1.24-1.56.31-.23.41-.6.46-1.04.03-.23.63-.38.93-.62.18-.14.28-.39.4-.6.25-.48.68-.53 1.14-.48.46.05.66.37.81.78.43 1.15.34 2.28-.05 3.42-.14.41-.4.83.02 1.23l.03-.02c-.17.26-.43.49-.49.77-.35 1.57-.66 3.15-.97 4.73-.03.15 0 .31 0 .56.82-.28 1.43-.75 2-1.28h-.03c1.54-.85 3.08-1.7 4.62-2.56.1-.06.17-.17.25-.26h-.02c1.22-.12 2.26-.64 3.19-1.41.27-.23.62-.35.92-.55.33-.21.64-.44.96-.67v.1c0 .03.02.06.03.08-.01-.05-.03-.1-.04-.15Zm-20.91 12.3.03-.04h-.05s.02.03.02.04Zm25.3-13.25-.05.05.02-.03s-.04-.07-.07-.08c-.01 0-.05.02-.07.03.06.01.12.02.18.04Zm-1.65 11.59c-.06-.03-.13-.06-.19-.08-.02 0-.04.03-.07.04.09 0 .18.01.27.02l-.07-.07.06.09Zm-6.69-7.36s-.03-.07-.05-.1l.08.08c.07.05.14.11.22.16.01-.03.03-.07.04-.1-.1-.01-.19-.03-.29-.04Zm9.63-5.26c-.02.1-.04.2-.05.3h.1c-.03-.09-.05-.19-.08-.28.02.01.04.02.05.03 0-.02-.02-.04-.03-.06Zm-8.37 4.26c-.09.04-.19.07-.28.11.02.03.05.06.07.08.06-.07.12-.14.18-.22l.05-.04-.02.06ZM8.32 50.98c.12.02.23.05.35.05.07 0 .14-.04.2-.07.01 0 0-.09 0-.1-.07-.01-.15-.03-.21-.01-.11.04-.21.11-.31.16-.03.09-.07.17-.1.26h.1c0-.1-.02-.2-.03-.3ZM18.78 66.1s.03.03.05.04c-.03-.01-.05-.03-.08-.04l-.33-.33c-.04.06-.07.13-.11.19.16.05.31.09.47.14ZM4.34 57.43c.16-.08.32-.15.47-.23-.1-.1-.21-.2-.31-.3-.08.15-.17.29-.25.44l.09.09Zm26.98-17.25c-.38-.19-.53-.31-.69-.33-.11-.01-.24.12-.36.18.14.1.26.23.41.27.11.03.25-.04.64-.12ZM15.22 65.8c-.27-.14-.39-.24-.52-.25-.08 0-.25.17-.24.2.05.12.15.28.26.3.1.02.23-.11.5-.26ZM29.3 52.35c-.12-.08-.2-.2-.29-.2-.08 0-.15.12-.23.19.09.09.19.18.29.27.07-.08.14-.16.24-.26Zm.34-12.38c-.11.15-.24.29-.22.32.08.11.2.2.32.25.04.01.21-.18.2-.22-.05-.12-.17-.21-.3-.34Zm-19.15 7.78c-.09.25-.18.38-.18.51 0 .06.19.19.24.17.12-.05.29-.17.29-.27 0-.11-.16-.21-.35-.42Zm34.24-5.57c-.25-.11-.37-.21-.45-.19-.12.03-.23.15-.34.24.07.09.14.25.21.24.12 0 .24-.11.58-.29Zm-13.36 7.99c-.1.15-.21.25-.23.36-.01.07.12.16.19.24.1-.09.22-.18.28-.29.02-.03-.12-.16-.24-.31Zm1.93-1.75c.12-.1.25-.16.27-.24.02-.08-.07-.19-.12-.29-.11.07-.24.13-.32.23-.02.03.1.18.17.31ZM6.01 54.97c.13-.07.25-.11.25-.13-.04-.13-.09-.26-.14-.39-.07.03-.2.06-.2.09.01.14.06.28.09.43Zm-.09.95c.1-.05.16-.09.23-.12-.06-.09-.12-.2-.2-.27-.02-.02-.14.09-.22.14l.19.25Zm11.11 9.94c-.06-.03-.11-.06-.17-.1-.01.03-.04.08-.03.08.05.04.11.07.17.11.01-.03.02-.06.04-.09Zm-3.25-21.42c-.15.38-.21.46-.22.56 0 .03.13.12.16.11.08-.04.19-.12.2-.2.01-.09-.06-.2-.15-.47Zm18.08 6.92c-.04-.09-.07-.15-.1-.21-.08.06-.18.11-.25.18-.02.02.05.12.08.18l.27-.15ZM7.87 52.83c-.09.29-.16.39-.15.48.02.07.13.17.21.18.08 0 .23-.09.23-.14 0-.09-.09-.18-.29-.52Zm33.77-18.08.09-.03c-.04-.05-.08-.1-.14-.13-.01-.01-.06.02-.09.04.04.04.09.08.14.13ZM35.35 37c.05.05.1.1.15.14.02-.03.07-.07.06-.09-.02-.07-.06-.13-.09-.19-.04.05-.08.09-.12.14Zm2.85 9.48c.06-.02.13-.05.19-.07-.03-.06-.05-.15-.1-.16-.06-.02-.13.04-.2.06.03.06.07.12.1.17Zm-26.16.41s-.05-.07-.07-.08c-.02 0-.05.04-.08.06l.12.12c.01-.04.03-.07.04-.1Zm20.99 2.72s-.02-.06-.04-.08a.31.31 0 0 0-.08.02c.01.03.02.06.04.07.01 0 .05-.01.07-.02ZM7.29 54.94s.09-.03.09-.04c0-.07-.03-.14-.05-.2-.03.01-.09.03-.09.04 0 .07.03.14.05.2Zm8.4 10.98s-.07-.03-.1-.05c-.02.03-.03.07-.05.1.03.01.07.05.1.04.02 0 .03-.06.05-.09Zm40.92-37.27c-.07 0-.13-.01-.18-.02.02.03.05.07.08.07s.06-.03.11-.05Zm-8.49 3.59s-.04-.06-.06-.07c-.02 0-.05.03-.08.04l.11.11c.01-.03.02-.06.04-.09ZM32.65 40s-.07-.02-.1-.04v.16c.03-.01.08-.01.1-.04.02-.01 0-.06 0-.09Zm12.51.38s.02-.06.03-.08c-.03 0-.06-.03-.07-.02-.02.02-.03.05-.02.08 0 .01.04.01.07.02Zm1.26.43s.03-.07.03-.1c0-.02-.05-.04-.08-.06-.01.05-.03.11-.04.16h.1Zm-17.07.48c-.03.07-.06.14-.08.21 0 .01.08.07.09.06.05-.04.12-.09.12-.14 0-.04-.09-.08-.14-.12Zm13.62.93s-.05-.02-.07-.03c.01.04.03.07.04.11.01-.02.02-.05.03-.07Zm-27.99 2.93.07-.03-.07-.03v.06Zm-3.16.31c.06-.03.11-.06.17-.09-.02-.03-.04-.08-.06-.08-.06 0-.12.02-.19.04.03.04.05.09.08.13Zm-.37.51s-.06.06-.06.09.04.06.06.08c.02-.03.06-.05.06-.08s-.04-.06-.06-.09Zm20.85 1.07s-.03.06-.05.09c.03.01.07.04.09.03.03-.02.04-.06.06-.09-.03-.01-.07-.02-.1-.04Zm-20.82 2.11s-.02-.05-.03-.08c-.02.02-.05.04-.05.07 0 .02.02.05.03.08.02-.02.04-.04.05-.06Zm20.63 1.36h-.08l.03.08.04-.08Zm-6.03 2.41s.05-.02.08-.03c-.02-.02-.04-.05-.07-.05-.02 0-.05.02-.08.03l.06.06ZM5.7 57.94s-.04-.05-.05-.08c-.03.02-.05.04-.08.05.03.03.06.07.09.1.01-.03.03-.05.04-.08Zm12.05 7.67s-.06.05-.06.08.03.06.05.08c.02-.03.06-.05.06-.08s-.03-.06-.05-.09Zm39.79-38.2-.04.05h.06l-.01-.05Zm-2.25.48.05.04v-.06l-.05.02Zm-2.62 2.26.05-.08h-.08l.03.08Zm-8.24 3.75s-.07.04-.07.06c0 .02.04.05.06.07.02-.02.07-.04.07-.06 0-.02-.04-.05-.06-.07ZM32 38.82l.07.05v-.08l-.07.03Zm10.24 4.54s-.05.04-.07.06c.02.02.04.07.06.07.02 0 .05-.03.07-.05-.02-.02-.04-.05-.06-.07Zm-12.17 7.1.07.05v-.07l-.07.03Zm-2.32 1.7-.08-.05v.08l.08-.04ZM6.84 54.54l-.04.06h.07l-.02-.06Zm-2.22 3.67.06.04v-.06l-.06.02Zm9.47 4.8v.14s.06-.04.07-.06c0-.02-.03-.05-.07-.08Z" class="st0"/><path d="M25.91 58.38c-.21.08-.39.2-.45.15a.933.933 0 0 1-.32-.44c-.04-.11.07-.26.11-.39.1.05.21.08.28.16.12.13.22.29.38.53ZM27.94 56.68l-.85.21c-.03-.06-.05-.12-.08-.19.25-.11.5-.22.75-.31.01 0 .09.18.14.28h.03ZM36.92 65.89c-.04.06-.06.14-.11.16-.06.02-.14-.02-.22-.03l.15-.24c.06.04.12.08.19.11ZM4.79 54.71l-.12-.47c.12.08.24.15.36.23l.02-.03-.29.29.03-.02ZM3.06 57.11c-.08.01-.16.05-.23.04-.11-.01-.21-.06-.31-.09.02-.06.04-.17.06-.17.11 0 .23.02.33.07.06.03.08.12.12.18l.03-.03ZM33.51 58.45c-.07 0-.14.01-.2.02 0-.06 0-.12.03-.18 0-.02.09-.03.1-.02.03.05.05.11.08.17ZM1.31 59.48c.1-.06.19-.14.29-.18.09-.04.21-.04.31-.05-.1.1-.18.23-.29.28-.09.04-.22-.03-.33-.05h.02ZM38.47 59.81c.03.06.06.11.09.17l-.18.09c-.03-.06-.07-.13-.07-.19 0-.02.1-.05.16-.07ZM.7 67.82c.05.05.09.1.14.15-.09.03-.18.08-.27.09-.02 0-.06-.11-.09-.18.07-.02.15-.05.22-.07ZM27.48 69.73c-.04.05-.09.1-.13.15-.03-.06-.08-.11-.1-.17 0-.02.06-.09.07-.08.06.03.11.07.16.1ZM20.14 43.82c-.05.04-.1.08-.16.11l-.06-.09.15-.12c.02.03.04.06.06.1ZM30.49 52.53c.04-.13.08-.25.12-.38l.16.13c-.1.08-.2.16-.3.23l.02.02ZM16.4 35.39l.06-.09c.05.04.1.08.14.12 0 0-.03.06-.05.09l-.15-.12ZM96.32 23.16h-.2c-.01 0-.02-.06-.03-.1h.21s.01.06.02.1ZM26.82 39.68c0 .06.02.11.02.17 0 0-.07.03-.1.02-.03-.01-.06-.07-.05-.08.04-.04.09-.07.13-.11ZM10.19 47.12l.03-.39c0 .13-.02.26-.02.39ZM40.65 47.29s-.06.03-.08.03c-.02 0-.03-.05-.05-.07.04-.01.08-.03.13-.04v.09ZM89.53 18.5c-.05.03-.1.07-.15.1-.02 0-.06-.03-.09-.05.03-.05.06-.13.09-.13.05 0 .1.05.15.08ZM25.81 56.96s.06-.09.07-.09c.06.03.11.07.15.12l-.06.08c-.06-.03-.11-.08-.16-.12Z" class="st0"/><path d="m27.91 56.67.2.06c.03 0 .07 0 .11.01h-.09l-.18-.06h-.03ZM3.03 57.15l.66.09.03-.03c-.24.12-.5.35-.66-.09l-.03.03ZM26.26 57.87c.06.03.13.06.19.08-.04.06-.06.14-.11.16-.04.02-.11-.04-.17-.07l.09-.18ZM72.87 22.38h-.18c.01-.05.01-.11.03-.16 0-.02.09-.02.09-.01.03.05.04.11.06.17ZM38.09 65.14c-.03-.06-.07-.11-.1-.17.05-.02.1-.05.16-.07.01 0 .06.07.05.08-.03.05-.07.1-.11.15ZM39.9 64.88l.03.18c-.04 0-.08.01-.12.02 0-.06-.02-.13-.02-.19h.11ZM35.62 69.11l-.06.07a.526.526 0 0 1-.14-.12s.04-.06.06-.08c.05.04.1.09.15.13ZM86.44 19.19l.08-.02-.01.07-.07-.05zM75.27 20.9s-.06.03-.09.05c0-.04.02-.09.02-.13a.5.5 0 0 0 .07.08ZM66.91 23.34s-.05-.04-.07-.06c.03-.02.05-.05.08-.05.02 0 .05.03.07.05-.02.02-.05.03-.07.05ZM57.6 25.93s-.07.03-.09.02c-.02-.02-.03-.06-.04-.1.05 0 .1-.02.15-.03 0 .04-.01.07-.02.11ZM56.16 26.23l-.09.03c0-.03-.02-.06-.03-.09.03 0 .07-.03.09-.02.02 0 .02.05.03.08ZM40.77 31.8h.29c-.02.02-.05.06-.06.06-.07-.02-.14-.05-.21-.08l-.02.02ZM14.19 35.62s-.03.06-.04.09l-.11-.11c.03-.02.06-.06.09-.06s.05.05.07.08ZM14.08 38.96s-.02-.06-.02-.08c0 0 .04-.02.06-.02 0 .03.02.06.02.08 0 0-.04.02-.06.02ZM28.68 38.79s-.02.05-.03.07c-.01-.03-.03-.07-.04-.1.03.01.05.02.07.03ZM28.98 39.3s.05-.08.06-.07c.06.02.11.05.16.07-.05.03-.1.06-.16.07-.01 0-.04-.05-.07-.07ZM21.25 39.82s-.05.05-.08.05c-.02 0-.04-.04-.07-.06.02-.02.05-.06.07-.05.03 0 .05.04.07.06ZM12.63 40.92l-.01-.08.06.02-.05.06zM24.33 41.13l.03.1-.09-.02.06-.08zM25.52 41.26s-.09.06-.09.05c-.03-.04-.05-.08-.08-.12.04 0 .08-.02.11-.01.03 0 .04.05.06.08ZM20.17 44.31l.06.09c-.05.03-.1.06-.16.08-.01 0-.04-.05-.07-.07.06-.03.11-.06.17-.09ZM49.43 28.38v.07c-.02.02-.06.02-.09.02v-.13c.03 0 .06.02.09.03ZM37.15 50.96s-.06.03-.09.05a.673.673 0 0 0-.07-.11c.03 0 .07-.02.1-.01.02 0 .03.05.05.07ZM28.13 55.71s.05.02.08.04c-.04.03-.07.07-.11.1-.01-.03-.04-.06-.04-.08 0-.02.04-.04.07-.06ZM30.58 55.8c.09 0 .18.01.27.02-.02.02-.04.05-.06.04-.06-.02-.13-.05-.19-.08l-.02.02ZM26.83 57.28s-.05.04-.07.06c-.02-.04-.04-.09-.07-.13.03 0 .07-.02.09-.01.02.01.03.05.04.08ZM2.83 58.41c-.04-.06-.09-.11-.13-.17.03.07.07.13.1.2l.03-.03ZM1.49 58.47s-.09-.06-.08-.08c.02-.07.05-.13.08-.2.03.03.09.06.08.08-.02.07-.05.13-.08.2ZM1.29 59.47l.06-.18c-.05.01-.1.03-.16.04.04.05.08.09.12.14h-.02ZM35.2 59.44s-.05.03-.08.05c-.02-.04-.04-.07-.06-.11.03 0 .07-.02.09 0 .02 0 .03.04.05.07ZM35.29 60.43v-.08l.08.04-.08.04zM37.15 60.48s.04.05.04.08c0 .02-.03.05-.05.07 0-.05 0-.1.01-.15ZM40.33 62.11s.02-.05.03-.07c.02.03.04.07.06.1l-.09-.03ZM38.87 63.95s.06.03.08.05c.01.02-.01.05-.02.08-.04-.03-.08-.05-.13-.08.02-.02.05-.04.07-.05ZM37.38 64.51c.02.06.05.12.06.18 0 .01-.05.04-.08.06-.02-.06-.05-.12-.06-.18 0-.01.05-.04.08-.06ZM36.15 66.88l-.04-.12c.02 0 .05-.01.07-.02-.01.04-.02.08-.04.14ZM38.28 66.73l-.07-.03.07-.03v.06zM37.6 67.01h.07l-.04.07-.03-.07zM26.49 67.91h.14c-.03-.06-.06-.11-.09-.17-.02.02-.07.04-.07.07 0 .03.03.06.05.08h-.03ZM36.74 67.74l-.09-.03c.04-.04.07-.08.11-.12.02.03.05.06.07.08a.55.55 0 0 0-.09.07Z" class="st0"/><path d="M26.52 67.9c-.02.05-.03.1-.05.16h.17l-.15-.14h.03ZM20.4 68.61s.05.07.04.09c0 .02-.04.04-.06.05 0-.04.01-.09.02-.14ZM54.87 26.66l.02.07-.06-.01.04-.06zM47.36 29.87l-.03-.03.03.03ZM47.33 29.84h.08c-.02.01-.03.02-.05.03l-.03-.03ZM40.78 31.78v.08s-.01-.04-.02-.06l.02-.02ZM20.79 39.29s.04-.04.06-.05c0 .01-.02.02-.03.03l-.03.02ZM26.2 41.22h-.02.02ZM23.73 41.75l.09-.04-.01.08-.08-.04zM45.97 42.28c.14-.05.28-.11.42-.16v.02c-.15.03-.29.07-.44.1v.03Z" class="st0"/><path d="m45.96 42.24.01.08v-.04l-.01-.04zM21.36 44.05l-.11-.02.08.02h.03zM29.67 52.16l.04.08-.06-.09.02.01zM30.48 52.51c-.1.11-.2.21-.3.32l.02.03c.1-.11.19-.22.29-.33l-.02-.02ZM30.61 55.78v.08s-.02-.04-.02-.06l.02-.02ZM23.66 58.36l.03-.03-.03.03ZM.04 65.46l.03.07-.07-.01.04-.06zM23.11 67.15l.02.07-.07-.01.05-.06z" class="st0"/></svg>