<svg xmlns="http://www.w3.org/2000/svg" data-name="Layer 1" viewBox="0 0 100 84">
    <path style="fill:currentColor" d="M41.17 83.84c-2.14-.15-4.52.21-6.63-.03-1.19-.13-4.92-1.56-5.47-1.5-.51.06-.59.86-1.63.47-1.26-.48-1.11-1.5-1.68-1.95-1.06-.83-3.32-1.75-4.63-2.65-2.48-1.71-4.06-3.22-6.71-4.73s-1.93-2.17-3.43-4.2c-1.01-1.36-2.88-2.58-3.93-3.98C1.46 57.78-.5 47.07.11 37.84c.28-4.31 4.41-14.81 6.84-18.52.56-.85 1.31-1.45 1.9-2.46.78-1.33 1.16-3.23 1.9-4.37 2.03-3.12 9.92-7.34 13.54-8.25 1-.25 2.31-.15 3.28-.53 1.61-.63 2.25-2.35 4.76-2.35 3.29 0 3.62-.37 6.65-.94C48.68-1.42 61.35 2.91 69 9.08c1.8 1.45 8.87 10.2 10.02 12.32.66 1.21.86 2.59 1.43 3.75 2.01 4.08 3.65 3.84 4.47 9.44.1.67.01 1.35.03 2.02 2.28-.13 13.55.12 14.71 1.75.93 1.3-.3 4.47-1.27 5.6-1.86 2.17-6.48 2.58-9.21 2.76-1.3.09-4.86-.38-5.6.38-.46.47-.9 2.21-1.15 2.94-2.02 6.04-2.83 10.27-6.07 16.02C70.65 76.18 63.03 80.04 52.17 83c-1.01.27-3.74.4-4.18.99l-6.82-.16Zm9.52-7.37c5.98-1.73 11.32-4.16 15.78-8.59s7.87-10.64 10.1-16.34c.58-1.47 1.15-2.91 1.04-4.55-6.33.66-12.58 1.14-18.63 3.27-6.68 2.36-12.71 6.39-18.55 10.32-1.27.85-5.4 4.23-6.34 4.55-4.84 1.66-4.89-3.17-2.43-6.26 6.55-8.23 28.95-17.7 39.21-20.16 2-.48 4.8-.68 6.6-1.29.27-.09.56-.07.67-.42-2.06-11.88-13.13-24.74-24.67-28.16-10.62-3.14-25.04-2.13-33.84 5.13-1.99 1.64-3.45 3.69-5.24 5.45-1.13 1.11-2.62 1.78-3.68 3.13-2.16 2.75-4.28 7.16-4.62 10.65-.8 8.14-1.57 14.38 1.42 22.32 1.12 2.97 5.03 9.42 7.42 11.39 2.23 1.83 5.5 4.25 7.88 6.01 6.05 4.48 13.11 5.35 20.49 4.87l7.39-1.32Z"/>
    <path style="fill:currentColor" d="M44.93 28.1c.1-.17.11-.91.02-1.02-2.71-.61-5.77-.95-8.01-2.76-.24-2.41 1.25-6.48 4.09-6.51 1.37-.01 7.92 2.37 8.27 2.13l2.23-4.87c1.09-.51 4.94.6 4.82 1.96-.08.92-2.59 4.62-2.37 5.46 3.27 3.02 7.95 5.17 4.32 10.15-.18.25-1.46 1.56-1.64 1.63-3.06 1.31-5.27-4-6.6-3.65-.43.11-2.43 2.44-3.05 2.97-1.98 1.65-4.31 3.13-6.94 3.41-2.57-2.55-1.3-4.86 1.12-6.79.75-.6 3.63-1.93 3.74-2.11ZM28.59 24.12c.19.19.89 1.64.91 1.97.08 1.45-1.34 6.5-1.09 7.34 1.92.96 4.72 2.79 4.61 5.21s-2.31 6.42-5.17 5.19c-.58-.25-2.01-2.45-2.58-2.32-.95 1.72-1.8 3.55-3.27 4.91-2.88 2.68-6.23 1.69-4.56-2.67.72-1.87 2.42-3 3.34-4.7-.32-.43-6.43-.93-7.61-1.78-2.25-1.63.92-6.07 2.33-7.44l7.46 1.19c.56-2.35 1.34-6.82 4.28-7.21.44-.06 1.03-.03 1.35.3Z"/>
</svg>