<svg xmlns="http://www.w3.org/2000/svg" data-name="Layer 1" viewBox="0 0 94 100">
    <path d="M0 28.47c2.68-4.73 5.44-9.59 9.45-13.36l.3 54.66c1.79 3.81 4.64 7.38 7.76 10.18l.27-71.88 9.05-4.92c.07 0 .41 1.18.41 1.25v91.96C15.91 91.93 7.2 83.73 1.33 73.17l-1.34-3.25V28.47ZM44.5 99.98c-1.28-.03-12.04-1.25-12.25-1.83V1.65c8.56-2.35 17.87-2.09 26.44.1V38.2h-9.46V8.99h-7.51v35.9h16.96v8.9H41.72v36.73h7.51v-28.1l9.46.28v35.34c-3.76.96-7.78 1.85-11.68 1.95-.83.02-1.68.02-2.5 0ZM94 37.93v.28l-8.57-.05c-2.5-7.02-6.45-13.6-12-18.59v59.82c5.15-4.23 8.64-10.46 11.17-16.64l8.82.26C90.61 77.44 77.31 91.05 63.7 96.09V3.71c15.06 5.05 26.56 18.93 30.31 34.23Z"/>
</svg>