<svg xmlns="http://www.w3.org/2000/svg" data-name="Layer 1" viewBox="0 0 80 100">
    <path style="fill:currentColor" d="M76 0H4C1.79 0 0 1.79 0 4v64c0 1.26.59 2.44 1.6 3.2l36 28a3.99 3.99 0 0 0 4.8 0l36-28c1.01-.76 1.6-1.94 1.6-3.2V4c0-2.21-1.79-4-4-4ZM40.02 83.58c-3.79 0-6.86-3.07-6.86-6.86s3.07-6.86 6.86-6.86 6.86 3.07 6.86 6.86-3.07 6.86-6.86 6.86Zm7.4-54.88v.19l-3.33 34.42c-.1 1.03-.96 1.81-1.99 1.81h-4.13c-1.03 0-1.89-.78-1.99-1.81L32.6 28.89V13.99a2 2 0 0 1 2-2h10.84a2 2 0 0 1 2 2v14.7Z"/>
</svg>