<svg xmlns="http://www.w3.org/2000/svg" data-name="Layer 1" viewBox="0 0 100 100">
    <path style="fill:currentColor" d="M34.26 0 16.03 18.38l2.53 3.38 27.51 24.56c-3.59 2.82-7.89 9.99-12.9 6.11-7.05-6.91-14.78-13.15-22.05-19.83-2.74-2.51-7.49-6.23-9.67-8.75C-1 21.02-.14 18.42 2.6 16.26c4.91-3.87 18.46-9.85 24.75-13.08C29.58 2.04 31.86.77 34.26 0ZM67.45 51.68c-1.99 1.51-2.53 2.51-5.65 1.54-.66-.21-7.85-6.37-7.84-6.89L81.79 21.6l2.2-3.22L66.02 0l31.42 16.27c2.92 2.1 3.46 4.9 1.03 7.71-10.65 8.41-20.3 19.55-31.01 27.7Z"/>
    <path style="fill:currentColor" d="M34.05 61.48c.61.52 2.06 2.34 2.84 2.21l10.65-9.27 1.48 11.27-4.61-3.4-3.27 3.63c2.69 2.44 7.6 5.52 7.85 9.4.42 6.62-3.83 12.9-2.88 19.98.22 1.63 1.27 3.05 1.43 4.7-4.34-3.82-5.91-9.71-5.98-15.36l-2.38-1.09c-2.42 2.79-4.24 6.81-3.45 10.57-4.03-3.61-1.49-10.71 0-15.19-3.63.48-4.98 3.73-6.97 6.04-.44.51-.48 1.03-1.39.81-.4-2.15-.77-4.37-.45-6.57s2.07-3.53 2.42-5.68l-8.36 4.9c-1.19-9.35 8.93-8.84 12.8-15.19-1.73.13-3.91 1.26-5.63.99-2.01-.32-4.55-4.23-6.31-5.03-2.42-1.09-6.99-1.08-9.71-1.36-.21-1.12.07-.78.63-1.09 1.53-.85 3.55-.96 5.28-.87-1.37-4.06-4.23-7.79-4.18-12.25 6.83 5.85 13.38 12.04 20.23 17.85ZM82.02 55.88c1.72-.09 3.74.01 5.28.87.56.31.84-.03.63 1.09-2.72.28-7.29.27-9.71 1.36-1.97.89-3.95 4.66-6.33 5.01-1.77.27-3.86-.83-5.62-.97 3.87 6.35 13.98 5.84 12.8 15.19l-8.36-4.9c.35 2.14 2.09 3.43 2.42 5.68s-.05 4.43-.45 6.57c-.91.21-.96-.3-1.39-.81-1.99-2.31-3.34-5.56-6.97-6.04 1.49 4.44 3.74 10.81.49 14.7-.25-3.65-1.45-7.34-3.95-10.08l-2.38 1.09c-.07 5.65-1.64 11.54-5.98 15.36 1.21-3.37 1.86-6.41 1.48-10.05-.57-5.39-5.02-13.12-1.49-18.14 1.41-2 4.51-4.25 6.4-5.89l-3.27-3.63-4.6 3.4 1.48-11.27 11 9.27 22.96-20.06c-.49 4.43-2.89 8.18-4.42 12.25Z"/>
</svg>