<svg xmlns="http://www.w3.org/2000/svg" aria-hidden="true" style="width: 0; height: 0; position: absolute;"><symbol id="icon-citizens-for-prosperity" viewBox="0 0 100 90"><path d="m50.83 23.15-.15-.81c7.06-4.75 15.76-8.83 24.19-10.47 24.01-4.65 31.14 10.48 19.96 30.39-5.89 10.49-15.37 19.61-25.11 26.45L80.83 90l-3-.17-12.1-22.56C54.08 48.51 24.8 50.97 5.78 50.89c-1.74-.06-1.59-2.65.03-2.7 19.02.08 50.33 3.44 35.68-26.12-3.37-6.8-7.4-13.32-10.83-20.09C29.93.07 32.25-.7 33.2.79c5.57 9.31 9.94 20.44 15.88 29.42 7.23 10.93 20.13 18.37 33.37 17.82 4.97-7.42 8.59-20.44.13-26.77-7.11-5.32-18.81-2.73-26.5 0-.81.29-4.81 2.25-5.26 1.9Zm30 27.72h-6.08c-.39 0-2.39.68-2.91.88-6.03 2.37-6.39 7.95-3.85 13.24 4.77-4.22 9.27-8.82 12.84-14.12" style="fill:currentColor"></path><path d="M31.08 23.7h-7.44c-1.25 0-3.13 1.11-3.09 2.55.08 2.98 4.63 8.29 5.36 11.39l-.67.72c-.41.07-.68-.43-.87-.71-2.69-3.89-3.67-9.56-8.14-11.92-1.08-.57-4.72-1.75-5.82-1.75H.66s-.63-.58-.66-.72c-.08-.28.58-.91.65-.91h8.11c.16 0 1.91-.62 2.21-.76 3.11-1.45 2.35-4.16 1.21-6.76-.5-1.15-4.03-6.78-3.71-7.42.47-.95 1.01-.47 1.46.18 4.22 6.08 4.89 13.92 14.24 14.76 1.78.16 4.95-.35 6.43.06.76.21.67.7.46 1.3Zm32.98 44.85 1.35 3.09a77.6 77.6 0 0 1-13.24 7.08c-8.99 3.74-24.18 7.66-32.3.41-.4-.36-1.49-1.18-1.09-1.62 5.63 4.57 13.18 4.33 19.93 2.9 8.83-1.86 17.3-6.49 24.56-11.73z" style="fill:currentColor"></path></symbol><symbol id="icon-frontier-fighters" viewBox="0 0 100 92"><path d="M95.95 87.49h-19.6L46.6 63.11 25.23 77.56l20.72-25.01h8.55zM0 92V71.93l24.33-29.77L9.46 20.75l24.58 20.26c1.06 1.31.92 8.6.13 10.13zm100-71.93L75.75 49.46 89.64 69.9 65.41 50.42l-.34-8.27L100 0zM24.1 4.51l29.38 24.3 21.3-14.38-20.01 24.38c-1.02.67-8.03.67-9.25.18-.67-.27-3.41-2.68-4.29-3.38-12.65-10-24.74-20.83-37.18-31.1z" style="fill:currentColor"></path></symbol><symbol id="icon-graffiti-arrow-left" viewBox="0 0 100 100"><defs><style>.4881__st0{fill:#0d0d0d;fill-rule:evenodd}</style></defs><path d="M31.24 38.63c.12-.31.05-.66.64-.67.7-.02 1.39-.1 2.02-.71.65-.63 1.6-.99 2.47-1.37 1.33-.58 2.74-.98 4.03-1.62.96-.48 2.08-.65 2.87-1.47.93-.12 1.65-.73 2.47-1.1.18-.08.47-.16.5-.29.12-.52.38-.27.7-.26.49.03.96-.04 1.43-.39.79-.58 1.62-1.14 2.65-1.32.5-.09.95-.48 1.41-.74.1-.06.19-.2.29-.21.47-.02.98.11 1.4-.05.39-.14.64-.68 1.03-.85.84-.36 1.74-.6 2.61-.89 4.74-1.58 9.5-3.1 14.48-3.79 1.91-.27 3.79-.74 5.69-1.08 1.66-.3 3.33-.5 4.98-.85 1.48-.31 3.01-.45 4.43-1.07.52-.23 1.18-.15 1.77-.25 2.75-.45 5.52-.65 8.31-.54.6.02 1.2.13 1.79.26.55.12.83.5.77.92-.07.44-.41.7-.98.69-.72-.01-1.47-.2-2.16-.07-1.7.31-3.38.76-5.06 1.16-1.72.41-3.27 1.26-4.91 1.89-1.72.67-3.55 1.03-5.32 1.59-2.53.81-5.03 1.72-7.57 2.51-2.28.71-4.41 1.76-6.56 2.79-2.11 1.01-4.25 1.96-6.37 2.96-.5.24-1.01.48-1.45.82-.46.36-1.09.25-1.54.74-.39.42-1.02.63-1.55.93-.49.28-.99.54-1.49.82l-1.59.87c-.53.29-1.06.6-1.6.85-.5.23-1.02.4-1.53.61-.09.04-.14.15-.21.22-.17.17-.31.41-.51.49-1.21.43-2.05 1.48-3.22 1.96v-.02c-.18-.29-.38-.84-.54-.82-.57.04-.18.58-.25.88-.21.88-.65 1.25-1.6 1.04-.23-.05-.42-.1-.46.14-.13.83-.91 1-1.44 1.39a87 87 0 0 1-4.68 3.16c-.36.23-.67.73-1.25.5-.06-.02-.24.16-.3.28-.13.24-.23.5-.38.84-.14-.11-.26-.23-.4-.33-.12-.09-.25-.15-.38-.23-.04.14-.09.28-.11.42-.17 1.01-.49 1.21-1.53.9-.33-.1-.47-.03-.44.3.05.63-.35.95-.82 1.2-.18.09-.5.14-.64.04-.61-.43-1.08-.06-1.57.22.02.03.04.07.06.1h-.02c.17.24.13.64.55.7l-.02-.03c-.39.31-.78.62-1.17.92 0-.12.05-.26 0-.34-.07-.11-.21-.17-.33-.23-.01 0-.14.12-.13.16.02.1.08.21.16.27.09.07.22.09.33.13-.57.39-1.35.57-1.43 1.45 0 .04-.26.02-.36.08-.14.1-.35.28-.32.38.07.3 0 .34-.27.31-.15-.02-.35-.01-.44.07-.86.76-1.7 1.55-2.54 2.32l.03-.03c-.22.17-.46.33-.65.53-.17.18-.14.38.15.42.52.07 1.04.11 1.56.17 1.91.21 3.82.42 5.73.64 1.08.13 2.16.24 3.23.43.58.11 1.21.27 1.68.61.71.51 1 1.35 1.13 2.2.2 1.27-.27 2.36-1.01 3.36-.04.06-.12.1-.18.14q-.51.38-.11.89c.05.06.12.14.12.2 0 .09-.04.25-.09.26-.2.04-.56-.03-.6.06-.3.65-.92 1.13-.93 1.93-.03 1.53-.11 3.07-.18 4.6-.01.32 0 .65-.06.96-.09.46-.46.75-.84.72-.39-.03-.69-.35-.71-.84-.02-.69 0-1.37.01-2.06 0-.85 0-1.7.01-2.54 0-.82-.08-1.59-.66-2.27-.24-.28-.26-.75-.41-1.12-.03-.08-.18-.18-.25-.17-.08.01-.19.15-.19.24 0 .65.04 1.29.03 1.94 0 .44-.04.89-.11 1.32-.08.43-.35.73-.82.75-.45.02-.79-.3-.86-.84-.03-.23.02-.48.03-.72.01-.72.02-1.44.04-2.16 0-.42-.15-.68-.62-.71-.48-.04-.96-.14-1.44-.2q-1.89-.225-3.78-.42c-.14-.01-.29.08-.43.08-.52.02-1.09.15-1.55 0-1.1-.36-2.2-.1-3.29-.22-.83-.09-1.59.02-2.39.17-.83.16-1.68.17-2.52.23-.32.02-.64-.01-.96-.02 0-.09-.01-.18-.02-.27-.03 0-.06.02-.09.03.05.07.1.14.14.22-1.11.14-2.22.31-3.33.42-.92.09-1.03.11-1.21 1.02-.16.83-.24 1.68-.35 2.52-.37 2.93-.37 5.87-.22 8.82.02.4.04.81-.02 1.21-.06.44-.44.73-.83.73-.4 0-.74-.29-.82-.74-.04-.2-.04-.4-.03-.6.15-2.46.3-4.91.46-7.37.06-.89.15-1.77.21-2.65.02-.24.03-.51-.06-.71-.35-.79-.74-1.57-1.33-2.3-.02.18-.07.35-.07.53-.03 1.17-.05 2.34-.08 3.5 0 .16-.02.32-.04.48-.06.36-.29.6-.64.62-.41.03-.73-.22-.76-.62-.05-.6-.02-1.21 0-1.81.02-.4.14-.8.15-1.2.02-1.2.26-2.43-.74-3.44-.26-.26-.35-.72-.44-1.11-.1-.46-.33-.67-.79-.77-.35-.07-.37-.28.03-.37.47-.11.44-.61.46-.86.1-1.34.71-2.44 1.42-3.51.04-.06.04-.16.06-.23l-.03.03c.49-.27.74-.73.92-1.23l-.03.03c.17-.21.31-.53.53-.61.77-.26.33-1.07.72-1.49.05-.05-.1-.28-.16-.43l-.03.02.29-.29-.02.03c.52.04.85-.27 1.02-.69.17-.4.23-.61.5-.06.05.1.49-.47.4-.7-.22-.63-.23-.66.35-.79.56-.13.78-.33.46-.91-.09-.16-.04-.56.09-.67.71-.59.58-1.79 1.59-2.17.07-.03.09-.27.07-.41-.06-.53 0-.96.68-.97-.03.34.25.33.34.18.22-.35.47-.78.45-1.16-.02-.32 0-.58.22-.74.63-.47 1.08-1.12 1.64-1.65.01.15.03.3.04.45.05-.04.15-.11.15-.12-.07-.11-.15-.21-.22-.31 1-1.87 1.99-3.76 3.02-5.62.32-.58.67-1.15 1.24-1.56.31-.23.41-.6.46-1.04.03-.23.63-.38.93-.62.18-.14.28-.39.4-.6.25-.48.68-.53 1.14-.48s.66.37.81.78c.43 1.15.34 2.28-.05 3.42-.14.41-.4.83.02 1.23l.03-.02c-.17.26-.43.49-.49.77-.35 1.57-.66 3.15-.97 4.73-.03.15 0 .31 0 .56.82-.28 1.43-.75 2-1.28h-.03c1.54-.85 3.08-1.7 4.62-2.56.1-.06.17-.17.25-.26h-.02c1.22-.12 2.26-.64 3.19-1.41.27-.23.62-.35.92-.55.33-.21.64-.44.96-.67v.1c0 .03.02.06.03.08-.01-.05-.03-.1-.04-.15Zm-20.91 12.3.03-.04h-.05s.02.03.02.04m25.3-13.25-.05.05.02-.03s-.04-.07-.07-.08c-.01 0-.05.02-.07.03.06.01.12.02.18.04Zm-1.65 11.59c-.06-.03-.13-.06-.19-.08-.02 0-.04.03-.07.04.09 0 .18.01.27.02l-.07-.07zm-6.69-7.36s-.03-.07-.05-.1l.08.08c.07.05.14.11.22.16.01-.03.03-.07.04-.1-.1-.01-.19-.03-.29-.04m9.63-5.26c-.02.1-.04.2-.05.3h.1c-.03-.09-.05-.19-.08-.28.02.01.04.02.05.03 0-.02-.02-.04-.03-.06Zm-8.37 4.26c-.09.04-.19.07-.28.11.02.03.05.06.07.08.06-.07.12-.14.18-.22l.05-.04-.02.06ZM8.32 50.98c.12.02.23.05.35.05.07 0 .14-.04.2-.07.01 0 0-.09 0-.1-.07-.01-.15-.03-.21-.01-.11.04-.21.11-.31.16-.03.09-.07.17-.1.26h.1c0-.1-.02-.2-.03-.3ZM18.78 66.1s.03.03.05.04c-.03-.01-.05-.03-.08-.04l-.33-.33c-.04.06-.07.13-.11.19.16.05.31.09.47.14M4.34 57.43c.16-.08.32-.15.47-.23-.1-.1-.21-.2-.31-.3-.08.15-.17.29-.25.44zm26.98-17.25c-.38-.19-.53-.31-.69-.33-.11-.01-.24.12-.36.18.14.1.26.23.41.27.11.03.25-.04.64-.12M15.22 65.8c-.27-.14-.39-.24-.52-.25-.08 0-.25.17-.24.2.05.12.15.28.26.3.1.02.23-.11.5-.26ZM29.3 52.35c-.12-.08-.2-.2-.29-.2-.08 0-.15.12-.23.19.09.09.19.18.29.27.07-.08.14-.16.24-.26Zm.34-12.38c-.11.15-.24.29-.22.32.08.11.2.2.32.25.04.01.21-.18.2-.22-.05-.12-.17-.21-.3-.34Zm-19.15 7.78c-.09.25-.18.38-.18.51 0 .06.19.19.24.17.12-.05.29-.17.29-.27 0-.11-.16-.21-.35-.42Zm34.24-5.57c-.25-.11-.37-.21-.45-.19-.12.03-.23.15-.34.24.07.09.14.25.21.24.12 0 .24-.11.58-.29m-13.36 7.99c-.1.15-.21.25-.23.36-.01.07.12.16.19.24.1-.09.22-.18.28-.29.02-.03-.12-.16-.24-.31m1.93-1.75c.12-.1.25-.16.27-.24s-.07-.19-.12-.29c-.11.07-.24.13-.32.23-.02.03.1.18.17.31ZM6.01 54.97c.13-.07.25-.11.25-.13-.04-.13-.09-.26-.14-.39-.07.03-.2.06-.2.09.01.14.06.28.09.43m-.09.95c.1-.05.16-.09.23-.12-.06-.09-.12-.2-.2-.27-.02-.02-.14.09-.22.14zm11.11 9.94c-.06-.03-.11-.06-.17-.1-.01.03-.04.08-.03.08.05.04.11.07.17.11.01-.03.02-.06.04-.09Zm-3.25-21.42c-.15.38-.21.46-.22.56 0 .03.13.12.16.11.08-.04.19-.12.2-.2.01-.09-.06-.2-.15-.47Zm18.08 6.92c-.04-.09-.07-.15-.1-.21-.08.06-.18.11-.25.18-.02.02.05.12.08.18zM7.87 52.83c-.09.29-.16.39-.15.48.02.07.13.17.21.18.08 0 .23-.09.23-.14 0-.09-.09-.18-.29-.52m33.77-18.08.09-.03c-.04-.05-.08-.1-.14-.13-.01-.01-.06.02-.09.04.04.04.09.08.14.13ZM35.35 37c.05.05.1.1.15.14.02-.03.07-.07.06-.09-.02-.07-.06-.13-.09-.19-.04.05-.08.09-.12.14m2.85 9.48c.06-.02.13-.05.19-.07-.03-.06-.05-.15-.1-.16-.06-.02-.13.04-.2.06.03.06.07.12.1.17Zm-26.16.41s-.05-.07-.07-.08c-.02 0-.05.04-.08.06l.12.12c.01-.04.03-.07.04-.1Zm20.99 2.72s-.02-.06-.04-.08a.3.3 0 0 0-.08.02c.01.03.02.06.04.07.01 0 .05-.01.07-.02ZM7.29 54.94s.09-.03.09-.04c0-.07-.03-.14-.05-.2-.03.01-.09.03-.09.04 0 .07.03.14.05.2m8.4 10.98s-.07-.03-.1-.05c-.02.03-.03.07-.05.1.03.01.07.05.1.04.02 0 .03-.06.05-.09m40.92-37.27c-.07 0-.13-.01-.18-.02.02.03.05.07.08.07s.06-.03.11-.05Zm-8.49 3.59s-.04-.06-.06-.07c-.02 0-.05.03-.08.04l.11.11c.01-.03.02-.06.04-.09ZM32.65 40s-.07-.02-.1-.04v.16c.03-.01.08-.01.1-.04.02-.01 0-.06 0-.09Zm12.51.38s.02-.06.03-.08c-.03 0-.06-.03-.07-.02-.02.02-.03.05-.02.08 0 .01.04.01.07.02Zm1.26.43s.03-.07.03-.1c0-.02-.05-.04-.08-.06-.01.05-.03.11-.04.16h.1Zm-17.07.48c-.03.07-.06.14-.08.21 0 .01.08.07.09.06.05-.04.12-.09.12-.14 0-.04-.09-.08-.14-.12Zm13.62.93s-.05-.02-.07-.03c.01.04.03.07.04.11.01-.02.02-.05.03-.07Zm-27.99 2.93.07-.03-.07-.03zm-3.16.31c.06-.03.11-.06.17-.09-.02-.03-.04-.08-.06-.08-.06 0-.12.02-.19.04.03.04.05.09.08.13m-.37.51s-.06.06-.06.09.04.06.06.08c.02-.03.06-.05.06-.08s-.04-.06-.06-.09m20.85 1.07s-.03.06-.05.09c.03.01.07.04.09.03.03-.02.04-.06.06-.09-.03-.01-.07-.02-.1-.04Zm-20.82 2.11s-.02-.05-.03-.08c-.02.02-.05.04-.05.07 0 .02.02.05.03.08.02-.02.04-.04.05-.06Zm20.63 1.36h-.08l.03.08.04-.08Zm-6.03 2.41s.05-.02.08-.03c-.02-.02-.04-.05-.07-.05-.02 0-.05.02-.08.03l.06.06ZM5.7 57.94s-.04-.05-.05-.08c-.03.02-.05.04-.08.05.03.03.06.07.09.1.01-.03.03-.05.04-.08Zm12.05 7.67s-.06.05-.06.08.03.06.05.08c.02-.03.06-.05.06-.08s-.03-.06-.05-.09Zm39.79-38.2-.04.05h.06l-.01-.05Zm-2.25.48.05.04v-.06zm-2.62 2.26.05-.08h-.08zm-8.24 3.75s-.07.04-.07.06.04.05.06.07c.02-.02.07-.04.07-.06s-.04-.05-.06-.07M32 38.82l.07.05v-.08zm10.24 4.54s-.05.04-.07.06c.02.02.04.07.06.07s.05-.03.07-.05c-.02-.02-.04-.05-.06-.07Zm-12.17 7.1.07.05v-.07l-.07.03Zm-2.32 1.7-.08-.05v.08l.08-.04ZM6.84 54.54l-.04.06h.07l-.02-.06Zm-2.22 3.67.06.04v-.06zm9.47 4.8v.14s.06-.04.07-.06c0-.02-.03-.05-.07-.08" class="4881__st0"></path><path d="M25.91 58.38c-.21.08-.39.2-.45.15a.93.93 0 0 1-.32-.44c-.04-.11.07-.26.11-.39.1.05.21.08.28.16.12.13.22.29.38.53Zm2.03-1.7-.85.21c-.03-.06-.05-.12-.08-.19.25-.11.5-.22.75-.31.01 0 .09.18.14.28h.03Zm8.98 9.21c-.04.06-.06.14-.11.16-.06.02-.14-.02-.22-.03l.15-.24c.06.04.12.08.19.11ZM4.79 54.71l-.12-.47c.12.08.24.15.36.23l.02-.03-.29.29zm-1.73 2.4c-.08.01-.16.05-.23.04-.11-.01-.21-.06-.31-.09.02-.06.04-.17.06-.17.11 0 .23.02.33.07.06.03.08.12.12.18zm30.45 1.34c-.07 0-.14.01-.2.02 0-.06 0-.12.03-.18 0-.02.09-.03.1-.02.03.05.05.11.08.17Zm-32.2 1.03c.1-.06.19-.14.29-.18.09-.04.21-.04.31-.05-.1.1-.18.23-.29.28-.09.04-.22-.03-.33-.05zm37.16.33c.03.06.06.11.09.17l-.18.09c-.03-.06-.07-.13-.07-.19 0-.02.1-.05.16-.07M.7 67.82c.05.05.09.1.14.15-.09.03-.18.08-.27.09-.02 0-.06-.11-.09-.18.07-.02.15-.05.22-.07Zm26.78 1.91c-.04.05-.09.1-.13.15-.03-.06-.08-.11-.1-.17 0-.02.06-.09.07-.08.06.03.11.07.16.1m-7.34-25.91c-.05.04-.1.08-.16.11l-.06-.09.15-.12c.02.03.04.06.06.1Zm10.35 8.71c.04-.13.08-.25.12-.38l.16.13c-.1.08-.2.16-.3.23zM16.4 35.39l.06-.09c.05.04.1.08.14.12 0 0-.03.06-.05.09zm79.92-12.23h-.2c-.01 0-.02-.06-.03-.1h.21s.01.06.02.1m-69.5 16.52c0 .06.02.11.02.17 0 0-.07.03-.1.02s-.06-.07-.05-.08c.04-.04.09-.07.13-.11m-16.63 7.44.03-.39c0 .13-.02.26-.02.39Zm30.46.17s-.06.03-.08.03-.03-.05-.05-.07c.04-.01.08-.03.13-.04v.09ZM89.53 18.5c-.05.03-.1.07-.15.1-.02 0-.06-.03-.09-.05.03-.05.06-.13.09-.13.05 0 .1.05.15.08M25.81 56.96s.06-.09.07-.09q.09.045.15.12l-.06.08c-.06-.03-.11-.08-.16-.12Z" class="4881__st0"></path><path d="m27.91 56.67.2.06c.03 0 .07 0 .11.01h-.09l-.18-.06h-.03Zm-24.88.48.66.09.03-.03c-.24.12-.5.35-.66-.09zm23.23.72c.06.03.13.06.19.08-.04.06-.06.14-.11.16-.04.02-.11-.04-.17-.07l.09-.18Zm46.61-35.49h-.18c.01-.05.01-.11.03-.16 0-.02.09-.02.09-.01.03.05.04.11.06.17M38.09 65.14c-.03-.06-.07-.11-.1-.17.05-.02.1-.05.16-.07.01 0 .06.07.05.08-.03.05-.07.1-.11.15Zm1.81-.26.03.18c-.04 0-.08.01-.12.02 0-.06-.02-.13-.02-.19h.11Zm-4.28 4.23-.06.07a.5.5 0 0 1-.14-.12s.04-.06.06-.08c.05.04.1.09.15.13Zm50.82-49.92.08-.02-.01.07zM75.27 20.9s-.06.03-.09.05c0-.04.02-.09.02-.13a.5.5 0 0 0 .07.08m-8.36 2.44s-.05-.04-.07-.06c.03-.02.05-.05.08-.05.02 0 .05.03.07.05-.02.02-.05.03-.07.05Zm-9.31 2.59s-.07.03-.09.02c-.02-.02-.03-.06-.04-.1.05 0 .1-.02.15-.03 0 .04-.01.07-.02.11m-1.44.3-.09.03c0-.03-.02-.06-.03-.09.03 0 .07-.03.09-.02.02 0 .02.05.03.08M40.77 31.8h.29c-.02.02-.05.06-.06.06-.07-.02-.14-.05-.21-.08zm-26.58 3.82s-.03.06-.04.09l-.11-.11c.03-.02.06-.06.09-.06s.05.05.07.08Zm-.11 3.34s-.02-.06-.02-.08c0 0 .04-.02.06-.02 0 .03.02.06.02.08 0 0-.04.02-.06.02m14.6-.17s-.02.05-.03.07c-.01-.03-.03-.07-.04-.1.03.01.05.02.07.03m.3.51s.05-.08.06-.07c.06.02.11.05.16.07-.05.03-.1.06-.16.07-.01 0-.04-.05-.07-.07Zm-7.73.52s-.05.05-.08.05c-.02 0-.04-.04-.07-.06.02-.02.05-.06.07-.05.03 0 .05.04.07.06Zm-8.62 1.1-.01-.08.06.02zm11.7.21.03.1-.09-.02zm1.19.13s-.09.06-.09.05c-.03-.04-.05-.08-.08-.12.04 0 .08-.02.11-.01.03 0 .04.05.06.08m-5.35 3.05.06.09c-.05.03-.1.06-.16.08-.01 0-.04-.05-.07-.07.06-.03.11-.06.17-.09Zm29.26-15.93v.07c-.02.02-.06.02-.09.02v-.13c.03 0 .06.02.09.03ZM37.15 50.96s-.06.03-.09.05a.7.7 0 0 0-.07-.11c.03 0 .07-.02.1-.01.02 0 .03.05.05.07Zm-9.02 4.75s.05.02.08.04c-.04.03-.07.07-.11.1-.01-.03-.04-.06-.04-.08s.04-.04.07-.06m2.45.09c.09 0 .18.01.27.02-.02.02-.04.05-.06.04-.06-.02-.13-.05-.19-.08zm-3.75 1.48s-.05.04-.07.06c-.02-.04-.04-.09-.07-.13.03 0 .07-.02.09-.01s.03.05.04.08Zm-24 1.13c-.04-.06-.09-.11-.13-.17.03.07.07.13.1.2zm-1.34.06s-.09-.06-.08-.08c.02-.07.05-.13.08-.2.03.03.09.06.08.08-.02.07-.05.13-.08.2m-.2 1 .06-.18c-.05.01-.1.03-.16.04.04.05.08.09.12.14zm33.91-.03s-.05.03-.08.05c-.02-.04-.04-.07-.06-.11.03 0 .07-.02.09 0 .02 0 .03.04.05.07Zm.09.99v-.08l.08.04zm1.86.05s.04.05.04.08c0 .02-.03.05-.05.07 0-.05 0-.1.01-.15m3.18 1.63s.02-.05.03-.07c.02.03.04.07.06.1zm-1.46 1.84s.06.03.08.05c.01.02-.01.05-.02.08-.04-.03-.08-.05-.13-.08.02-.02.05-.04.07-.05m-1.49.56c.02.06.05.12.06.18 0 .01-.05.04-.08.06-.02-.06-.05-.12-.06-.18 0-.01.05-.04.08-.06m-1.23 2.37-.04-.12c.02 0 .05-.01.07-.02-.01.04-.02.08-.04.14Zm2.13-.15-.07-.03.07-.03zm-.68.28h.07l-.04.07zm-11.11.9h.14c-.03-.06-.06-.11-.09-.17-.02.02-.07.04-.07.07s.03.06.05.08h-.03Zm10.25-.17-.09-.03c.04-.04.07-.08.11-.12.02.03.05.06.07.08a.6.6 0 0 0-.09.07" class="4881__st0"></path><path d="M26.52 67.9c-.02.05-.03.1-.05.16h.17l-.15-.14h.03Zm-6.12.71s.05.07.04.09c0 .02-.04.04-.06.05 0-.04.01-.09.02-.14m34.47-41.95.02.07-.06-.01zm-7.51 3.21-.03-.03zm-.03-.03h.08c-.02.01-.03.02-.05.03zm-6.55 1.94v.08s-.01-.04-.02-.06zm-19.99 7.51s.04-.04.06-.05c0 .01-.02.02-.03.03zm5.41 1.93h-.02zm-2.47.53.09-.04-.01.08zm22.24.53c.14-.05.28-.11.42-.16v.02c-.15.03-.29.07-.44.1v.03Z" class="4881__st0"></path><path d="m45.96 42.24.01.08v-.04zm-24.6 1.81-.11-.02.08.02zm8.31 8.11.04.08-.06-.09zm.81.35c-.1.11-.2.21-.3.32l.02.03c.1-.11.19-.22.29-.33l-.02-.02Zm.13 3.27v.08s-.02-.04-.02-.06zm-6.95 2.58.03-.03zM.04 65.46l.03.07-.07-.01zm23.07 1.69.02.07-.07-.01z" class="4881__st0"></path></symbol><symbol id="icon-headhunters" viewBox="0 0 100 84"><path d="M41.17 83.84c-2.14-.15-4.52.21-6.63-.03-1.19-.13-4.92-1.56-5.47-1.5-.51.06-.59.86-1.63.47-1.26-.48-1.11-1.5-1.68-1.95-1.06-.83-3.32-1.75-4.63-2.65-2.48-1.71-4.06-3.22-6.71-4.73s-1.93-2.17-3.43-4.2c-1.01-1.36-2.88-2.58-3.93-3.98C1.46 57.78-.5 47.07.11 37.84c.28-4.31 4.41-14.81 6.84-18.52.56-.85 1.31-1.45 1.9-2.46.78-1.33 1.16-3.23 1.9-4.37 2.03-3.12 9.92-7.34 13.54-8.25 1-.25 2.31-.15 3.28-.53 1.61-.63 2.25-2.35 4.76-2.35 3.29 0 3.62-.37 6.65-.94C48.68-1.42 61.35 2.91 69 9.08c1.8 1.45 8.87 10.2 10.02 12.32.66 1.21.86 2.59 1.43 3.75 2.01 4.08 3.65 3.84 4.47 9.44.1.67.01 1.35.03 2.02 2.28-.13 13.55.12 14.71 1.75.93 1.3-.3 4.47-1.27 5.6-1.86 2.17-6.48 2.58-9.21 2.76-1.3.09-4.86-.38-5.6.38-.46.47-.9 2.21-1.15 2.94-2.02 6.04-2.83 10.27-6.07 16.02C70.65 76.18 63.03 80.04 52.17 83c-1.01.27-3.74.4-4.18.99l-6.82-.16Zm9.52-7.37c5.98-1.73 11.32-4.16 15.78-8.59s7.87-10.64 10.1-16.34c.58-1.47 1.15-2.91 1.04-4.55-6.33.66-12.58 1.14-18.63 3.27-6.68 2.36-12.71 6.39-18.55 10.32-1.27.85-5.4 4.23-6.34 4.55-4.84 1.66-4.89-3.17-2.43-6.26 6.55-8.23 28.95-17.7 39.21-20.16 2-.48 4.8-.68 6.6-1.29.27-.09.56-.07.67-.42-2.06-11.88-13.13-24.74-24.67-28.16-10.62-3.14-25.04-2.13-33.84 5.13-1.99 1.64-3.45 3.69-5.24 5.45-1.13 1.11-2.62 1.78-3.68 3.13-2.16 2.75-4.28 7.16-4.62 10.65-.8 8.14-1.57 14.38 1.42 22.32 1.12 2.97 5.03 9.42 7.42 11.39 2.23 1.83 5.5 4.25 7.88 6.01 6.05 4.48 13.11 5.35 20.49 4.87z" style="fill:currentColor"></path><path d="M44.93 28.1c.1-.17.11-.91.02-1.02-2.71-.61-5.77-.95-8.01-2.76-.24-2.41 1.25-6.48 4.09-6.51 1.37-.01 7.92 2.37 8.27 2.13l2.23-4.87c1.09-.51 4.94.6 4.82 1.96-.08.92-2.59 4.62-2.37 5.46 3.27 3.02 7.95 5.17 4.32 10.15-.18.25-1.46 1.56-1.64 1.63-3.06 1.31-5.27-4-6.6-3.65-.43.11-2.43 2.44-3.05 2.97-1.98 1.65-4.31 3.13-6.94 3.41-2.57-2.55-1.3-4.86 1.12-6.79.75-.6 3.63-1.93 3.74-2.11m-16.34-3.98c.19.19.89 1.64.91 1.97.08 1.45-1.34 6.5-1.09 7.34 1.92.96 4.72 2.79 4.61 5.21s-2.31 6.42-5.17 5.19c-.58-.25-2.01-2.45-2.58-2.32-.95 1.72-1.8 3.55-3.27 4.91-2.88 2.68-6.23 1.69-4.56-2.67.72-1.87 2.42-3 3.34-4.7-.32-.43-6.43-.93-7.61-1.78-2.25-1.63.92-6.07 2.33-7.44l7.46 1.19c.56-2.35 1.34-6.82 4.28-7.21.44-.06 1.03-.03 1.35.3Z" style="fill:currentColor"></path></symbol><symbol id="icon-uec" viewBox="0 0 94 100"><path d="M0 28.47c2.68-4.73 5.44-9.59 9.45-13.36l.3 54.66c1.79 3.81 4.64 7.38 7.76 10.18l.27-71.88 9.05-4.92c.07 0 .41 1.18.41 1.25v91.96C15.91 91.93 7.2 83.73 1.33 73.17l-1.34-3.25V28.47Zm44.5 71.51c-1.28-.03-12.04-1.25-12.25-1.83V1.65c8.56-2.35 17.87-2.09 26.44.1V38.2h-9.46V8.99h-7.51v35.9h16.96v8.9H41.72v36.73h7.51v-28.1l9.46.28v35.34c-3.76.96-7.78 1.85-11.68 1.95-.83.02-1.68.02-2.5 0ZM94 37.93v.28l-8.57-.05c-2.5-7.02-6.45-13.6-12-18.59v59.82c5.15-4.23 8.64-10.46 11.17-16.64l8.82.26C90.61 77.44 77.31 91.05 63.7 96.09V3.71c15.06 5.05 26.56 18.93 30.31 34.23Z"></path></symbol><symbol id="icon-warning" viewBox="0 0 80 100"><path d="M76 0H4C1.79 0 0 1.79 0 4v64c0 1.26.59 2.44 1.6 3.2l36 28a3.99 3.99 0 0 0 4.8 0l36-28c1.01-.76 1.6-1.94 1.6-3.2V4c0-2.21-1.79-4-4-4M40.02 83.58c-3.79 0-6.86-3.07-6.86-6.86s3.07-6.86 6.86-6.86 6.86 3.07 6.86 6.86-3.07 6.86-6.86 6.86m7.4-54.88v.19l-3.33 34.42c-.1 1.03-.96 1.81-1.99 1.81h-4.13c-1.03 0-1.89-.78-1.99-1.81L32.6 28.89v-14.9a2 2 0 0 1 2-2h10.84a2 2 0 0 1 2 2v14.7Z" style="fill:currentColor"></path></symbol><symbol id="icon-xenothreat" viewBox="0 0 100 100"><path d="M34.26 0 16.03 18.38l2.53 3.38 27.51 24.56c-3.59 2.82-7.89 9.99-12.9 6.11-7.05-6.91-14.78-13.15-22.05-19.83-2.74-2.51-7.49-6.23-9.67-8.75C-1 21.02-.14 18.42 2.6 16.26c4.91-3.87 18.46-9.85 24.75-13.08C29.58 2.04 31.86.77 34.26 0m33.19 51.68c-1.99 1.51-2.53 2.51-5.65 1.54-.66-.21-7.85-6.37-7.84-6.89L81.79 21.6l2.2-3.22L66.02 0l31.42 16.27c2.92 2.1 3.46 4.9 1.03 7.71-10.65 8.41-20.3 19.55-31.01 27.7Z" style="fill:currentColor"></path><path d="M34.05 61.48c.61.52 2.06 2.34 2.84 2.21l10.65-9.27 1.48 11.27-4.61-3.4-3.27 3.63c2.69 2.44 7.6 5.52 7.85 9.4.42 6.62-3.83 12.9-2.88 19.98.22 1.63 1.27 3.05 1.43 4.7-4.34-3.82-5.91-9.71-5.98-15.36l-2.38-1.09c-2.42 2.79-4.24 6.81-3.45 10.57-4.03-3.61-1.49-10.71 0-15.19-3.63.48-4.98 3.73-6.97 6.04-.44.51-.48 1.03-1.39.81-.4-2.15-.77-4.37-.45-6.57s2.07-3.53 2.42-5.68l-8.36 4.9c-1.19-9.35 8.93-8.84 12.8-15.19-1.73.13-3.91 1.26-5.63.99-2.01-.32-4.55-4.23-6.31-5.03-2.42-1.09-6.99-1.08-9.71-1.36-.21-1.12.07-.78.63-1.09 1.53-.85 3.55-.96 5.28-.87-1.37-4.06-4.23-7.79-4.18-12.25 6.83 5.85 13.38 12.04 20.23 17.85Zm47.97-5.6c1.72-.09 3.74.01 5.28.87.56.31.84-.03.63 1.09-2.72.28-7.29.27-9.71 1.36-1.97.89-3.95 4.66-6.33 5.01-1.77.27-3.86-.83-5.62-.97 3.87 6.35 13.98 5.84 12.8 15.19l-8.36-4.9c.35 2.14 2.09 3.43 2.42 5.68s-.05 4.43-.45 6.57c-.91.21-.96-.3-1.39-.81-1.99-2.31-3.34-5.56-6.97-6.04 1.49 4.44 3.74 10.81.49 14.7-.25-3.65-1.45-7.34-3.95-10.08l-2.38 1.09c-.07 5.65-1.64 11.54-5.98 15.36 1.21-3.37 1.86-6.41 1.48-10.05-.57-5.39-5.02-13.12-1.49-18.14 1.41-2 4.51-4.25 6.4-5.89l-3.27-3.63-4.6 3.4 1.48-11.27 11 9.27 22.96-20.06c-.49 4.43-2.89 8.18-4.42 12.25Z" style="fill:currentColor"></path></symbol></svg>