<svg xmlns="http://www.w3.org/2000/svg" aria-hidden="true" style="width: 0; height: 0; position: absolute;"><symbol id="icon-citizens-for-prosperity" viewBox="0 0 100 90"><path d="m50.83 23.15-.15-.81c7.06-4.75 15.76-8.83 24.19-10.47 24.01-4.65 31.14 10.48 19.96 30.39-5.89 10.49-15.37 19.61-25.11 26.45L80.83 90l-3-.17-12.1-22.56C54.08 48.51 24.8 50.97 5.78 50.89c-1.74-.06-1.59-2.65.03-2.7 19.02.08 50.33 3.44 35.68-26.12-3.37-6.8-7.4-13.32-10.83-20.09C29.93.07 32.25-.7 33.2.79c5.57 9.31 9.94 20.44 15.88 29.42 7.23 10.93 20.13 18.37 33.37 17.82 4.97-7.42 8.59-20.44.13-26.77-7.11-5.32-18.81-2.73-26.5 0-.81.29-4.81 2.25-5.26 1.9Zm30 27.72h-6.08c-.39 0-2.39.68-2.91.88-6.03 2.37-6.39 7.95-3.85 13.24 4.77-4.22 9.27-8.82 12.84-14.12" style="fill:currentColor"></path><path d="M31.08 23.7h-7.44c-1.25 0-3.13 1.11-3.09 2.55.08 2.98 4.63 8.29 5.36 11.39l-.67.72c-.41.07-.68-.43-.87-.71-2.69-3.89-3.67-9.56-8.14-11.92-1.08-.57-4.72-1.75-5.82-1.75H.66s-.63-.58-.66-.72c-.08-.28.58-.91.65-.91h8.11c.16 0 1.91-.62 2.21-.76 3.11-1.45 2.35-4.16 1.21-6.76-.5-1.15-4.03-6.78-3.71-7.42.47-.95 1.01-.47 1.46.18 4.22 6.08 4.89 13.92 14.24 14.76 1.78.16 4.95-.35 6.43.06.76.21.67.7.46 1.3Zm32.98 44.85 1.35 3.09a77.6 77.6 0 0 1-13.24 7.08c-8.99 3.74-24.18 7.66-32.3.41-.4-.36-1.49-1.18-1.09-1.62 5.63 4.57 13.18 4.33 19.93 2.9 8.83-1.86 17.3-6.49 24.56-11.73z" style="fill:currentColor"></path></symbol><symbol id="icon-frontier-fighters" viewBox="0 0 100 92"><path d="M95.95 87.49h-19.6L46.6 63.11 25.23 77.56l20.72-25.01h8.55zM0 92V71.93l24.33-29.77L9.46 20.75l24.58 20.26c1.06 1.31.92 8.6.13 10.13zm100-71.93L75.75 49.46 89.64 69.9 65.41 50.42l-.34-8.27L100 0zM24.1 4.51l29.38 24.3 21.3-14.38-20.01 24.38c-1.02.67-8.03.67-9.25.18-.67-.27-3.41-2.68-4.29-3.38-12.65-10-24.74-20.83-37.18-31.1z" style="fill:currentColor"></path></symbol><symbol id="icon-headhunters" viewBox="0 0 100 84"><path d="M41.17 83.84c-2.14-.15-4.52.21-6.63-.03-1.19-.13-4.92-1.56-5.47-1.5-.51.06-.59.86-1.63.47-1.26-.48-1.11-1.5-1.68-1.95-1.06-.83-3.32-1.75-4.63-2.65-2.48-1.71-4.06-3.22-6.71-4.73s-1.93-2.17-3.43-4.2c-1.01-1.36-2.88-2.58-3.93-3.98C1.46 57.78-.5 47.07.11 37.84c.28-4.31 4.41-14.81 6.84-18.52.56-.85 1.31-1.45 1.9-2.46.78-1.33 1.16-3.23 1.9-4.37 2.03-3.12 9.92-7.34 13.54-8.25 1-.25 2.31-.15 3.28-.53 1.61-.63 2.25-2.35 4.76-2.35 3.29 0 3.62-.37 6.65-.94C48.68-1.42 61.35 2.91 69 9.08c1.8 1.45 8.87 10.2 10.02 12.32.66 1.21.86 2.59 1.43 3.75 2.01 4.08 3.65 3.84 4.47 9.44.1.67.01 1.35.03 2.02 2.28-.13 13.55.12 14.71 1.75.93 1.3-.3 4.47-1.27 5.6-1.86 2.17-6.48 2.58-9.21 2.76-1.3.09-4.86-.38-5.6.38-.46.47-.9 2.21-1.15 2.94-2.02 6.04-2.83 10.27-6.07 16.02C70.65 76.18 63.03 80.04 52.17 83c-1.01.27-3.74.4-4.18.99l-6.82-.16Zm9.52-7.37c5.98-1.73 11.32-4.16 15.78-8.59s7.87-10.64 10.1-16.34c.58-1.47 1.15-2.91 1.04-4.55-6.33.66-12.58 1.14-18.63 3.27-6.68 2.36-12.71 6.39-18.55 10.32-1.27.85-5.4 4.23-6.34 4.55-4.84 1.66-4.89-3.17-2.43-6.26 6.55-8.23 28.95-17.7 39.21-20.16 2-.48 4.8-.68 6.6-1.29.27-.09.56-.07.67-.42-2.06-11.88-13.13-24.74-24.67-28.16-10.62-3.14-25.04-2.13-33.84 5.13-1.99 1.64-3.45 3.69-5.24 5.45-1.13 1.11-2.62 1.78-3.68 3.13-2.16 2.75-4.28 7.16-4.62 10.65-.8 8.14-1.57 14.38 1.42 22.32 1.12 2.97 5.03 9.42 7.42 11.39 2.23 1.83 5.5 4.25 7.88 6.01 6.05 4.48 13.11 5.35 20.49 4.87z" style="fill:currentColor"></path><path d="M44.93 28.1c.1-.17.11-.91.02-1.02-2.71-.61-5.77-.95-8.01-2.76-.24-2.41 1.25-6.48 4.09-6.51 1.37-.01 7.92 2.37 8.27 2.13l2.23-4.87c1.09-.51 4.94.6 4.82 1.96-.08.92-2.59 4.62-2.37 5.46 3.27 3.02 7.95 5.17 4.32 10.15-.18.25-1.46 1.56-1.64 1.63-3.06 1.31-5.27-4-6.6-3.65-.43.11-2.43 2.44-3.05 2.97-1.98 1.65-4.31 3.13-6.94 3.41-2.57-2.55-1.3-4.86 1.12-6.79.75-.6 3.63-1.93 3.74-2.11m-16.34-3.98c.19.19.89 1.64.91 1.97.08 1.45-1.34 6.5-1.09 7.34 1.92.96 4.72 2.79 4.61 5.21s-2.31 6.42-5.17 5.19c-.58-.25-2.01-2.45-2.58-2.32-.95 1.72-1.8 3.55-3.27 4.91-2.88 2.68-6.23 1.69-4.56-2.67.72-1.87 2.42-3 3.34-4.7-.32-.43-6.43-.93-7.61-1.78-2.25-1.63.92-6.07 2.33-7.44l7.46 1.19c.56-2.35 1.34-6.82 4.28-7.21.44-.06 1.03-.03 1.35.3Z" style="fill:currentColor"></path></symbol><symbol id="icon-warning" viewBox="0 0 80 100"><path d="M76 0H4C1.79 0 0 1.79 0 4v64c0 1.26.59 2.44 1.6 3.2l36 28a3.99 3.99 0 0 0 4.8 0l36-28c1.01-.76 1.6-1.94 1.6-3.2V4c0-2.21-1.79-4-4-4M40.02 83.58c-3.79 0-6.86-3.07-6.86-6.86s3.07-6.86 6.86-6.86 6.86 3.07 6.86 6.86-3.07 6.86-6.86 6.86m7.4-54.88v.19l-3.33 34.42c-.1 1.03-.96 1.81-1.99 1.81h-4.13c-1.03 0-1.89-.78-1.99-1.81L32.6 28.89v-14.9a2 2 0 0 1 2-2h10.84a2 2 0 0 1 2 2v14.7Z" style="fill:currentColor"></path></symbol><symbol id="icon-xenothreat" viewBox="0 0 100 100"><path d="M34.26 0 16.03 18.38l2.53 3.38 27.51 24.56c-3.59 2.82-7.89 9.99-12.9 6.11-7.05-6.91-14.78-13.15-22.05-19.83-2.74-2.51-7.49-6.23-9.67-8.75C-1 21.02-.14 18.42 2.6 16.26c4.91-3.87 18.46-9.85 24.75-13.08C29.58 2.04 31.86.77 34.26 0m33.19 51.68c-1.99 1.51-2.53 2.51-5.65 1.54-.66-.21-7.85-6.37-7.84-6.89L81.79 21.6l2.2-3.22L66.02 0l31.42 16.27c2.92 2.1 3.46 4.9 1.03 7.71-10.65 8.41-20.3 19.55-31.01 27.7Z" style="fill:currentColor"></path><path d="M34.05 61.48c.61.52 2.06 2.34 2.84 2.21l10.65-9.27 1.48 11.27-4.61-3.4-3.27 3.63c2.69 2.44 7.6 5.52 7.85 9.4.42 6.62-3.83 12.9-2.88 19.98.22 1.63 1.27 3.05 1.43 4.7-4.34-3.82-5.91-9.71-5.98-15.36l-2.38-1.09c-2.42 2.79-4.24 6.81-3.45 10.57-4.03-3.61-1.49-10.71 0-15.19-3.63.48-4.98 3.73-6.97 6.04-.44.51-.48 1.03-1.39.81-.4-2.15-.77-4.37-.45-6.57s2.07-3.53 2.42-5.68l-8.36 4.9c-1.19-9.35 8.93-8.84 12.8-15.19-1.73.13-3.91 1.26-5.63.99-2.01-.32-4.55-4.23-6.31-5.03-2.42-1.09-6.99-1.08-9.71-1.36-.21-1.12.07-.78.63-1.09 1.53-.85 3.55-.96 5.28-.87-1.37-4.06-4.23-7.79-4.18-12.25 6.83 5.85 13.38 12.04 20.23 17.85Zm47.97-5.6c1.72-.09 3.74.01 5.28.87.56.31.84-.03.63 1.09-2.72.28-7.29.27-9.71 1.36-1.97.89-3.95 4.66-6.33 5.01-1.77.27-3.86-.83-5.62-.97 3.87 6.35 13.98 5.84 12.8 15.19l-8.36-4.9c.35 2.14 2.09 3.43 2.42 5.68s-.05 4.43-.45 6.57c-.91.21-.96-.3-1.39-.81-1.99-2.31-3.34-5.56-6.97-6.04 1.49 4.44 3.74 10.81.49 14.7-.25-3.65-1.45-7.34-3.95-10.08l-2.38 1.09c-.07 5.65-1.64 11.54-5.98 15.36 1.21-3.37 1.86-6.41 1.48-10.05-.57-5.39-5.02-13.12-1.49-18.14 1.41-2 4.51-4.25 6.4-5.89l-3.27-3.63-4.6 3.4 1.48-11.27 11 9.27 22.96-20.06c-.49 4.43-2.89 8.18-4.42 12.25Z" style="fill:currentColor"></path></symbol></svg>