<svg xmlns="http://www.w3.org/2000/svg" aria-hidden="true" style="width: 0; height: 0; position: absolute;"><symbol id="icon-citizens-for-prosperity-logo" viewBox="0 0 317 100"><path d="m56.75 25.73-.16-.9c7.89-5.28 17.59-9.81 27.01-11.63 26.81-5.17 34.77 11.64 22.29 33.76-6.58 11.65-17.16 21.79-28.04 29.39l12.4 23.66-3.35-.19-13.51-25.06c-13.01-20.85-45.7-18.11-66.93-18.2-1.94-.06-1.78-2.94.03-3 21.24.09 56.19 3.82 39.84-29.02-3.76-7.56-8.26-14.8-12.09-22.33C33.42.09 36.02-.77 37.07.89c6.22 10.35 11.1 22.71 17.73 32.68 8.07 12.14 22.47 20.41 37.26 19.8 5.55-8.24 9.59-22.71.15-29.74-7.94-5.91-21-3.03-29.59 0-.9.32-5.37 2.5-5.87 2.11Zm33.5 30.8h-6.79c-.44 0-2.66.75-3.25.98-6.73 2.63-7.14 8.83-4.3 14.71 5.33-4.69 10.35-9.8 14.34-15.69" style="fill:currentColor"></path><path d="M34.7 26.34h-8.3c-1.4 0-3.5 1.24-3.45 2.83.09 3.32 5.17 9.21 5.98 12.65l-.75.8c-.45.08-.76-.48-.97-.79-3-4.32-4.1-10.62-9.09-13.25-1.2-.63-5.27-1.95-6.5-1.95H.74c-.05 0-.7-.64-.73-.8-.09-.31.65-1.01.73-1.01H9.8c.18 0 2.13-.69 2.47-.85 3.47-1.61 2.63-4.62 1.35-7.51-.56-1.27-4.5-7.53-4.14-8.24.52-1.05 1.13-.52 1.63.19 4.71 6.76 5.46 15.47 15.9 16.4 1.98.18 5.53-.39 7.18.07.85.24.74.78.52 1.45Zm231.7 39.85c3.55.59 3.88 4.43 3.45 7.37-.11.74-.86 1.81-.82 2.08.06.43.73 1.11.85 2.17.25 2.22-.18 4.83 0 7.1h-2.42v-6.79c0-.87-1.55-1.28-2.27-1.36-3.38-.35-7.45.18-10.88.11l-.44.34v7.7h-2.72V66.64l.45-.45h14.79Zm-12.53 8.15h12.53c1.32 0 1.55-5.43 0-5.43h-12.53zm-71.39-30.49c3.25.54 3.51 4.48 3.14 7.07-.12.82-.77 1.69-.81 2.19s.73 1.75.84 2.67c.24 2.13-.18 4.62 0 6.8h-2.72v-7.4c0-.07-.94-.75-1.06-.75h-12.08c-.3.19-.39.42-.45.75-.19 1.04.29 7.1 0 7.4h-2.42V43.86h15.55Zm-13.14 2.71v4.98l.45.45h12.08c.09 0 .82-.47.91-.6l-.19-4.79-13.24-.04Zm-7.39 19.63c3.7.55 3.96 4.68 3.46 7.68-.13.78-.79 1.24-.84 1.58-.03.18.76 1.53.86 2.36.25 2.22-.18 4.83 0 7.1h-2.42v-7.1c0-1.61-4.97-.74-5.89-.74-2.38 0-5.48-1.01-7.7.13v7.7H147l.15-18.72h14.79Zm0 2.72h-12.53v5.43h12.53c1.23 0 1.77-5.12 0-5.43m87.09 0h-15.25l-.45.45v4.53l.45.45h12.23c.11 3.39.06 2.46-2.25 2.4-2.68-.07-6.86-.3-9.39 0-.44.05-.78.04-1.04.47v4.83l.45.45h15.25v2.42h-18.11V66.19h17.66c.79.64.37 1.81.45 2.72m-53.73-47.4v4.98c0 .74-1.5 2.26-2.21 2.62l-13.6 5.95c-.34.38-.73 2.44-.04 2.44h15.85v2.72h-18.72v-5.28c0-.88 1.75-2.2 2.51-2.62 3.47-1.92 9.72-3.34 12.69-5.43.92-.64 1.38-1.59.97-2.69l-16.17-.28V21.5h18.72Zm20.53 0v2.41h-15.25l-.45.46v4.83l.45.45h11.62v2.41h-12.07v5.44h15.7v2.71h-18.12V21.51zm-66.8 22.41c1.86-.38 10.25-.32 12.32-.08 1.82.22 3.25 1.64 3.47 3.47.31 2.55.26 8.89 0 11.49-.19 1.98-1.42 3.52-3.48 3.77-2.55.31-8.56.24-11.19 0-2.13-.19-3.79-1.19-4.07-3.48s-.31-9.88.03-12.06c.21-1.37 1.56-2.84 2.92-3.12Zm-.22 3.1V59.4l.45.45h12.38c.26-.25.5-.54.62-.89.35-1.09.32-9.25.14-10.74-.16-1.34-.64-1.81-1.96-1.96-1.49-.17-9.64-.21-10.74.14-.35.11-.64.36-.89.62m22.26 19.24c2.22-.37 9.38-.34 11.7-.07 2.13.24 3.53 1.62 3.77 3.77.29 2.57.24 8.26.01 10.88-.19 2.13-1.19 3.79-3.48 4.07-2.55.31-8.89.26-11.49 0-1.98-.19-3.52-1.42-3.77-3.48-.27-2.26-.31-9.88.03-12.06.25-1.62 1.66-2.85 3.22-3.12Zm12.38 15.86c.34-.47.34-1.02.39-1.58.2-2.37.3-8.03 0-10.29-.13-.99-.36-1.23-1.36-1.36-2.17-.28-8.05-.22-10.3 0-.79.08-1.63.26-1.88 1.14-.3 1.06-.24 9.09-.07 10.51.1.84.33 1.54 1.2 1.82 1.2.39 8.78.29 10.45.15.55-.05 1.11-.04 1.58-.39Zm74.64-60.61v2.42c-.52.49-12.27-.25-14.34 0-1.35.16-2.43 1.18-1.51 2.4 1.09 1.43 10.92 4.66 13.34 6s3.59 4.28 1.5 6.59c-.16.18-1.74 1.31-1.86 1.31h-15.85v-2.72h15.25c.59 0 .94-1.44.61-2.12-.53-1.08-11.49-5.01-13.5-6.12s-2.81-2.63-2.22-5.07c.18-.76 1.78-2.7 2.44-2.7h16.15Zm-39.85 2.56c.17-.8 1.85-2.23 2.7-2.44 3.07-.74 4.21.63 5.41 3.08 1.89 3.84 3.24 8.19 5.17 12.04.52.74 1.27 1 2.11.6l.61-.6V21.5h2.72v15.55c0 1.03-2.21 2.89-3.24 3.1-2.61.53-3.92-1.01-4.96-3.05-1.97-3.84-3.36-8.34-5.25-12.26-.62-1.44-2.85-.66-2.85.43v14.94h-2.42V24.06Zm-10.57 42.12v2.72h-15.55c-.57 0-1.1 2.15-.13 2.55 3.94 2.01 8.58 3.33 12.47 5.34 2.07 1.07 3.79 2.48 3.07 5.1-.26.95-2.06 3.01-3.03 3.01h-15.55v-2.42h14.64c1.04 0 2.09-2.21.75-2.86-3.98-1.94-8.58-3.31-12.48-5.33-2.44-1.27-3.71-2.68-2.78-5.71.21-.69 2.15-2.4 2.73-2.4h15.85ZM71.52 76.16l1.5 3.43a87.6 87.6 0 0 1-14.78 7.87c-10.04 4.16-27 8.51-36.06.45-.45-.4-1.66-1.31-1.22-1.8 6.28 5.08 14.71 4.81 22.25 3.22 9.86-2.07 19.31-7.21 27.43-13.03l.88-.15Zm140.99 8.75h-2.72l.3-18.72h15.25c.99 0 2.58 1.52 2.99 2.45.75 1.7.51 5.93-.87 7.22-1.66 1.55-8.07.78-10.59.89-1.3.05-2.58.71-3.93.09l-.44.38v7.7Zm12.84-16h-12.83v5.43h12.53c.12 0 .68-.35.78-.51.45-.9.54-4.62-.47-4.93Zm-97.06 16h-2.42V66.19h15.25c.56 0 2 1.02 2.42 1.5 1.58 1.8 1.49 6.07 0 7.87-.22.27-1.3 1.2-1.52 1.2h-13.28l-.45.45zm0-10.57h12.83c1.1 0 1.1-5.43 0-5.43h-12.83zm16-52.83v2.42h-14.94c-.15 0-.71.45-.91.6-.3.5-.32 10.46-.17 11.64.05.4.39 1.34.77 1.34h15.25v2.72h-15.55c-.38 0-2.11-1.12-2.41-1.52-.51-.68-.7-1.71-.77-2.55-.22-2.49-.33-9.14.03-11.47.17-1.09 1.82-3.19 2.85-3.19h15.85Zm-.3 22.34v2.72h-15.7v4.98l.45.45h11.62v2.42h-11.62l-.45.45v7.25c0 .06.45.34.3.45h-2.72V43.86h18.11Zm156.68 22.34v7.09c0 .12.35.68.51.78l11.96.22c.27-.08.7-.44.84-.67.67-1.13.17-5.89-.02-7.41l2.73.13c.33.23.26.59.3.93.09.79-.2 5.85-.33 6.62-.17 1.03-1.06 2.09-1.98 2.55-2.08 1.04-3.72.11-5.85.64v7.85h-2.72v-7.85c-2.35-.13-5.39.42-7.1-1.5-.21-.23-1.05-1.54-1.05-1.67v-7.7h2.72Zm-4.83 0v2.72h-8.15v16h-2.72v-16h-7.85v-2.72zM169.65 21.51v2.41h-7.7l-.45.46v15.84h-2.42V24.38l-.45-.46h-7.7v-2.41zm-23.25 0h2.42c.09 6.24-.03 12.47 0 18.72h-2.42zm25.36 0h2.42v18.72h-2.42zm100.53 44.68h2.42v18.72h-2.42z" style="fill:currentColor"></path><path d="M154.77 51.15c2.77-.84 3.93 3.33 1.38 4.11-2.77.84-3.93-3.33-1.38-4.11m22.04 22.33c2.68-.49 3.44 3.75.82 4.18-3.1.52-3.43-3.71-.82-4.18" style="fill:currentColor"></path></symbol><symbol id="icon-frontier-fighters-logo" viewBox="0 0 488 100"><path d="M254.31 53.43v16.18h23.57V53.43h11.29V95.1h-10.56l-.73-.74V70.1l-8.11 7.84h-14.72l-.74.74V95.1h-10.56l-.73-.74V53.43zm131.57 0v8.33h-32.89v24.51h32.89v8.82h-32.65c-2.76-3.05-7.91-5.18-10.58-8.06-.71-.76-.84-.86-.98-1.96-.9-6.9.64-15.85.12-22.97l10.95-8.67zM434.49 4.9v8.33H401.6v24.51h32.89v8.09l-.74.74h-31.91c-2.66-3-8.03-5.3-10.58-8.07-.7-.77-.84-.85-.98-1.96-.9-6.9.64-15.85.12-22.97l10.95-8.67zM104.57 95.1H83.22L50.79 68.6l-23.3 15.71 22.6-27.19h9.31zM0 100V78.19l26.52-32.36-16.21-23.28L37.1 44.57c1.15 1.43 1 9.35.14 11.01zm108.99-78.19L82.56 53.76 97.7 75.98 71.29 54.8l-.37-8.99L108.99 0zM26.27 4.9l32.02 26.41L81.5 15.68l-21.81 26.5c-1.11.73-8.75.72-10.08.19-.73-.29-3.72-2.91-4.67-3.67C31.15 27.84 17.97 16.06 4.42 4.9zm436.2 48.53v8.33h-11.29v7.84H488v17.16l-11.54 8.33H465.9v-8.82h10.8v-7.84h-36.82V61.27c1.98-.14 9.9-7.84 10.56-7.84zM171.34 4.9v8.34h-31.42v25l-11.29 7.84V12.75l11.04-7.85zm0 48.53v8.33h-31.42v24.27l-11.29 8.58v-32.6l11.04-8.58zm281.31-19.61v-8.33h20.62V13.24h-20.62V4.9l20.74.13c.69.21 10.35 7.37 10.71 7.93.67 1.01.75 11.32.2 12.53l-10.79 8.34h-20.87Zm-48.6 48.53v-8.33h20.62V61.77h-20.62v-8.33h20.87c2.45 2.52 8.35 5.32 10.35 7.8 1.5 1.86.52 10.06.45 12.78l-10.79 8.34h-20.87ZM248.42 4.9v8.33h-11.78v24.51h11.78v7.11c0 .49-.28 1.4-.74 1.72h-10.8l-11.43-8.44V13.58c1.19-1.15 10.24-8.68 10.94-8.68zm-38.05 0 10.94 7.95v13.03l-10.94 7.94H190v-8.33h20.12V13.24H190V4.9zm40.99 41.67v-8.82h11.29V13.24h-11.29V4.9h12.03l10.47 8.17c-.55 7.49 1 16.69.11 23.97-.08.69-.06.86-.53 1.43-.44.53-10.35 8.1-11.04 8.1h-11.05Zm-38.29 6.86v8.33h-11.29v24.51h11.29v8.82h-11.05c-.63 0-9.25-6.77-10.07-7.59-.41-.41-.89-.74-1.21-1.24l-.15-24.15c1.19-1.16 10.24-8.68 10.95-8.68h11.54Zm79.53-40.19V4.9h16.94l11.05 8.58v32.35l-.74.74h-10.31l-.63-.74c-.01-.2.39-.37.39-.49V13.97l-.74-.74H292.6Zm94.27-8.34-.74 41.67h-10.31l-.74-.74V4.9zm62.84 0v41.67h-11.29V4.9c3.91-.54 7.38-.54 11.29 0m-59.9 48.53h11.29V95.1h-11.29zM289.17 4.9v41.67h-10.56l-.73-.74V4.9zm-102.61 0v41.67H176l-.73-.74V4.9zm0 48.53V95.1H176l-.73-.74V53.43zm52.53 16.18v16.91l-11.54 8.58h-11.04v-8.83h11.29v-7.84h-13.26v-8.82zm132.56-56.37h-48.12V4.9h40.02zm-32.9 48.52H292.6v-8.33h38.05zm-29.21 2.95h10.31l.74.73v28.92l-.74.74h-10.31zm42.47-48.53v30.39h-10.8V17.4c0-.17-.87-.54.25-1.23h10.56Z" style="fill:currentColor"></path><path d="m380.48 69.61-8.2 8.23-15.85.59v-8.82zm-213.56 0-8.2 8.23c-4.93-.13-9.95.4-14.85.39-.57 0-.64-.03-1-.53v-8.09h24.06Zm262.17-48.53-8.1 8.33h-15.96v-8.33zm-262.17 0-8.1 8.33h-15.95v-7.6l.73-.73zm61.62 32.35 10.55 8.33h-22.58v-8.33zm258.48-6.86h-14.48l-9.58-9.32h14.48zM438.41 95.1h-14.48l-9.57-9.32h14.97zm38.54-41.67L488 61.76h-22.09v-8.33zm-14.48 32.84v8.83h-11.05l-9.08-8.83zm-238.6-39.7h-14.48l-9.08-9.32h14.48z" style="fill:currentColor"></path></symbol><symbol id="icon-headhunters-logo" viewBox="0 0 188 100"><path d="m85.23 100 .57-15.29-5.64 2.28c-.11 1.43-.6 4.1-.28 5.42.04.16 1.74 1 .57 2.14-1.3 1.27-3.81-.99-4-2.67-.48-4.3-.1-10.01.63-14.28.68-4 2.08-7.86 3.14-11.76.28-.69 1.15-.46 1.73-.3 1.13.3 1.79 1.29 1.77 2.45-.05 2.15-.73 6-1.21 8.17-.19.84-1.81 5.54-1.47 5.88l5.44-1.33c1.14-7.57 3.65-14.75 6-21.99-1.5-.1-3.17.14-4.65-.02-.83-.09-3.45-1.09-3.83-1.05-.36.04-.42.6-1.15.33-.89-.33-.78-1.05-1.18-1.37-.74-.58-2.33-1.22-3.25-1.86-1.74-1.2-2.84-2.25-4.7-3.31s-1.35-1.52-2.4-2.94c-.71-.96-2.02-1.81-2.75-2.79-3.92-5.24-5.3-12.74-4.87-19.2.2-3.02 3.09-10.37 4.8-12.97.39-.59.92-1.02 1.33-1.72.55-.93.82-2.26 1.33-3.06 1.43-2.19 6.96-5.14 9.5-5.78.7-.18 1.62-.1 2.3-.37C84.09 2.17 84.54.96 86.3.97c2.31 0 2.54-.26 4.66-.66 6.8-1.29 15.69 1.74 21.05 6.06 1.26 1.01 6.22 7.14 7.03 8.63.46.85.6 1.81 1 2.63 1.41 2.86 2.56 2.69 3.13 6.61.07.47 0 .94.02 1.41 1.6-.09 9.5.09 10.31 1.23.65.91-.21 3.13-.89 3.92-1.3 1.52-4.54 1.8-6.46 1.93-.91.06-3.41-.27-3.93.27-.32.33-.63 1.55-.81 2.06-1.41 4.23-1.99 7.19-4.26 11.22-4 7.09-9.35 9.79-16.96 11.86-.71.19-2.62.28-2.93.7-4.56 13.26-8.46 27.01-8.6 41.18h-3.43Zm32.8-67.1c-4.44.46-8.82.8-13.07 2.29-4.69 1.65-8.91 4.47-13.01 7.23-.89.6-3.79 2.96-4.45 3.19-3.39 1.16-3.43-2.22-1.7-4.38 4.59-5.76 20.3-12.4 27.49-14.12 1.4-.33 3.36-.48 4.63-.9.19-.06.39-.05.47-.29-1.44-8.32-9.21-17.33-17.3-19.72C93.65 4 83.53 4.71 77.36 9.79c-1.4 1.15-2.42 2.58-3.68 3.82-.79.78-1.84 1.25-2.58 2.19-1.52 1.93-3 5.02-3.24 7.46-.56 5.7-1.1 10.07 1 15.63.78 2.08 3.53 6.59 5.2 7.97 1.56 1.28 3.86 2.97 5.53 4.21 4.24 3.14 9.19 3.75 14.37 3.41.74-1.61 1.35-3.61 2.21-5.14.7-1.25 1.39-1.15 2.57-.45 2.02 1.19.83 2.92.4 4.67 4.2-1.21 7.94-2.91 11.07-6.02s5.52-7.45 7.08-11.44c.4-1.03.81-2.04.73-3.19Zm15.07 31.35c-.29-.26-2.58.25-3.13.19s-.74-.55-1.26-.57c-.08 3.5-.88 6.95-1.33 10.42-.56 4.29-1.09 8.68-1.53 13-.27 2.73-.23 5.73-.59 8.4-.12.87-.63.96-1.4.68-.94-.34-1.31-1.3-1.42-2.22-.33-2.79.57-6.91.12-9.3-.3-1.61-2.94-6.67-3.82-8.4-.59-1.15-1.22-2.32-1.95-3.4-.44 2.23-.8 4.53-1.05 6.79-.22 2-.44 4.11-.57 6.12-.06.95.2 3.09-.03 3.79-.32.99-2.51-.43-2.85-1.29-.19-.47-.33-1.57-.37-2.11-.25-3.44.15-8.7.39-12.24.16-2.4.58-4.83.8-7.22.57-.88 1.68-1.06 2.63-.81 2.75.71 5.61 6.94 6.84 9.39.1.2-.1.36.4.27.32-3.13.55-6.53 1.2-9.6.18-.84.92-3.6 1.38-4.16.93-1.12 2.5.46 2.76.19-.23-.75.79-1.31 1.39-1.57 1.32-.55 3.01-.57 4.33-1.21.54-1.23 1.46-6.21 3.11-6.16 1.09.03 2.66 1.45 2.74 2.56.04.53-.58 2.41-.02 2.53.3.07 3.5-.63 4.21-.72 1.95-.23 4.55-.87 5.87.94.29.4 1.03 1.89.79 2.28-.46.73-1.18 0-1.72 0-1.78-.02-7.84.95-9.64 1.43-.36.1-.84.11-1.04.49-.66 2.21-1 4.5-1.48 6.74-1.37 6.39-4.03 17.65-3.18 23.93.16 1.17.92 1.79 1.49 2.72-.62 1.25-2.67-.7-3.21-1.37-3.14-3.86-1.54-12.77-.93-17.56.55-4.32 1.35-8.64 2.07-12.93Z" style="fill:currentColor"></path><path d="M56.42 90.64s-.98 0-1.34-.09c-1.81-.45-2.53-2.03-3.54-3.33-1.73.24-4.95 2.49-6.46 2.46-.61-.01-3.02-1.13-3.14-1.83-.11-.63.3-2.27.44-2.99 1.47-7.64 4.62-15.07 7.6-22.2 1.03-1.28 3.98.32 4.28 1.6-.19 6.31-1.03 12.65-.03 18.94 1.07.38 2.14.54 2.87 1.52.16-1.16.15-2.35.31-3.51.37-2.74.86-5.88 1.59-8.53.25-.89 1.57-4.09 1.4-4.64-.12-.4-.61-.38-.54-1.17.13-1.41 2.03-3.05 3.18-3.71.41-.23 3.22-1.73 3.41-1.76.75-.09.89.31 1.33.37 2.43.32 4.17-.1 6.37 1.46 4.77 3.37 3.9 7.84 1.24 12.3s-7.22 9.6-10.85 13.4c-.95 1-3.18 3.27-4.47 3.54-1.03.22-2.68.02-3.37-.85-.32-.4-.24-.93-.28-.96Zm5.84-5.06c3.48-3.78 11.75-13.71 11.88-18.77 0-.26-.15-1.63-.21-1.85-.5-1.72-6.39-1.15-7.75-.29-.31 2.64-1.49 5.07-2.22 7.61-1.34 4.63-2.71 9.5-2.76 14.34.41-.27.74-.68 1.06-1.04m-14.98-.3 3.41-1.27-.93-6.57c-.72.77-.73 2.2-1.05 3.25-.19.65-1.62 4.38-1.43 4.59m9.87.81c-.37-.4-2.37.12-2.41.43l1.61 3.56c.87-.57 1.96-.43 2.75-1.07.09-.39-1.19-.78-1.5-1.36-.25-.47-.19-1.28-.45-1.56M16.19 99.04h-3.34l-.25-.32c-.63-5.66 1.12-11.48 2.25-17l-.28-.65-5.73 2.67C8.38 87.51 7.3 91.18 7.39 95c-1.39.77-3.61-2.11-3.61-3.14v-5.64c-1.03 1.44-4 .29-3.78-1.2s3.47-3.31 4.5-4.3c.45-2.36.92-4.72 1.33-7.08.24-1.39.25-2.96.49-4.29.13-.71 1.12-4.79 1.39-5.11.95-1.13 3.6 1.02 4 2.09.57 1.5-.02 3.65-.35 5.21-.52 2.48-1.48 4.86-1.66 7.41.09.09 2.08-.62 2.44-.71.9-.21 2.54-.29 3.24-.56.21-.08.29-.22.33-.44.99-4.24 1.9-8.54 3.15-12.71.64-2.12 1.85-6.3 3.07-8.01 1.28-1.8 4.99.35 4.12 2.6-3.33 10.22-6.83 20.47-8.86 31.07-.56 2.91-1.11 5.87-1.01 8.84Zm156.32-26.06c-.85.91-2.22 2.18-3.17 3.03-1.93 1.73-4.21 3.1-5.91 5.06 4.13-.61 8.05-2.35 11.54-4.6.66.47 1.26 1.18.83 1.99-1.12 2.11-8.6 5.53-11 5.99-1.33.25-2.53.17-3.8.49-.27.24-.77 4.52-.81 5.21-.02.37-.04.77 0 1.14.09.67.97 1.43-.63 1.21-3.13-.43-1.9-5.28-1.88-7.48-1.19-.92-2.47-1.57-.74-2.8-1.11 0-2.31.4-3.39.71-5.32 1.57-10.14 4.28-14.87 7.09-1.84 0-3.24-1.62-1.95-3.3 2.69-3.5 12.46-6.31 16.78-7.08 2.17-.39 3.34-.64 4.48 1.62.31-.18.23-.41.29-.66.56-2.56.8-5.35 1.39-7.97.18-.79 1.1-3.18 1.08-3.7-.03-.57-1.28-1.01-1.06-1.81.13-.46.97-1.37 1.35-1.72 2.08-1.9 3.92-2.76 6.73-3.19 2.42-.37 5.11-.54 6.91 1.38 3.03 3.21.18 6.9-2.17 9.4Zm.64-7.96c-1.33-.39-6.07-.24-6.96.77-.34.38-2.32 6.83-2.63 7.88-.12.42-.86 2.82-.71 3.01.34-.11.6-.34.86-.57 2.12-1.79 5.28-5.11 7.05-7.27.95-1.15 1.97-2.37 2.38-3.82Z" style="fill:currentColor"></path><path d="M183.06 68.46c-2.53 3.24-2.85 8.72-.99 12.37 1.22 2.39 5.73 4.73 2.01 7.29-2.09 1.44-9.84 3.16-12.02 1.98-.25-.14-.49-.27-.61-.55-.29-1.12 1.87-.77 2.51-.87 1.63-.27 7.02-1.65 7.02-3.68 0-.85-2.04-3.27-2.59-4.3-1.66-3.08-2.32-6.14-1.78-9.63s2.76-7.79 6.85-6.51c.31-.24.17-1.63 1.24-1.83.95-.18 2.93.53 3.25 1.52.46 1.43-1.64 6.09-2.11 7.85-.21.78-.59 4.2-1.18 4.38-.76.24-1.77-.44-1.92-1.27-.36-2 .09-4.72.33-6.74Zm-85.58-3.01c.51-.49 2.45-.33 3.01.23 1.24 1.21.24 5.91.17 7.65-.07 1.94-.31 6.69.87 8.13 1.48 1.79 3.04-2.85 3.39-3.86 1.52-4.38 1.92-9.33 3.2-13.8.49-.7 2.67-.19 2.99.61.46 1.14.03 4.87-.17 6.23-.56 3.89-2.44 12.66-6.66 13.97-8.43 2.63-8.74-11.48-7.76-16.57.1-.52.63-2.27.95-2.58Zm-67.75 8.74c3.13-.65 7.12-2.85 10.23-3.04 1.45-.09 2.79 1.82 1.86 2.45-6.16 1.84-11.76 5.01-17.5 7.81-4.5-2.82-.89-3.79 1.3-5.5.71-.55 1.31-1.43 2-2.01 1.9-1.58 4.15-3.15 6.3-4.3.15-.85-1.14.15-1.53.29-1.17.4-5.19 1.8-6.15 1.59s-2.22-2.01-1.76-3.02c.57-1.25 4.8-2.48 6.15-2.82 1.78-.44 4.26-.95 6.07-1.18.72-.09 2.56-.32 3.18-.17.76.18 1.74 1.45 1.82 2.21.09.85-.73.54-1.31.71-1.83.54-4.51 2.46-6.15 3.58-1.54 1.06-3.09 2.19-4.52 3.4Zm115.76-.38.25.35c2.37-.75 4.79-1.73 7.19-2.36 2.16-.57 4.42-1.52 4.94 1.5l-.17.22c-6.22 1.79-11.86 5.02-17.61 7.89-4.71-2.8-.76-3.93 1.49-5.7.74-.58 1.37-1.48 2.11-2.09 1.9-1.57 4.09-2.76 6-4.31l-5.15 1.72c-1.18.21-2.03.87-3.15.09-1.71-1.19-1.74-2.71.09-3.73 2.67-1.49 10.18-3.1 13.26-3.16 1.54-.03 3.05 1.48 2.39 2.99-.18.13-.65-.12-1-.08-1.21.14-5.88 3.43-7.15 4.32-1.12.79-2.22 1.86-3.49 2.34ZM42.31 82.22c-2.51-.04-5.12.9-7.48 1.77-2.78 1.02-5.47 2.33-8.06 3.78-1.65.93-3.69 3.22-5.48 1.72-1.4-1.17-.97-2.13.13-3.26 2.9-2.97 13.26-6.47 17.39-6.85 2.24-.21 3.19.65 3.5 2.84m56.61 4.26c2.12-.23 7.32-.26 9.28.34.85.26 1.53.9 1.62 1.83.15 1.6-.71.87-1.61.84-3.78-.13-7.51 1.21-11.07 1.34-1.79.07-2.28-1.74-1.9-3.26.24-.4 3.08-1.02 3.68-1.09m-44.65 4.79c.28.29.94 1.5.33 1.65-.23.05-.57-.18-.89-.14-3.03.41-7.54 3.47-10.21 3.54-1.13.03-3.18-2.04-2.24-3.03.77-.81 7.43-2.58 8.84-2.8s3.03-.41 4.17.77ZM95.11 19.68c.07-.12.08-.64.01-.72-1.9-.43-4.05-.67-5.62-1.93-.17-1.69.88-4.54 2.87-4.56.96 0 5.56 1.66 5.8 1.49l1.57-3.41c.77-.36 3.47.42 3.38 1.38-.06.64-1.82 3.24-1.66 3.82 2.29 2.11 5.58 3.62 3.03 7.11-.13.18-1.02 1.09-1.15 1.14-2.15.92-3.7-2.8-4.63-2.56-.3.08-1.7 1.71-2.14 2.08-1.39 1.15-3.02 2.19-4.87 2.39-1.8-1.79-.91-3.4.79-4.76.52-.42 2.54-1.35 2.62-1.48Zm-11.46-2.79c.14.13.62 1.15.64 1.38.06 1.01-.94 4.55-.77 5.14 1.35.67 3.31 1.95 3.23 3.65s-1.62 4.49-3.63 3.64c-.41-.17-1.41-1.71-1.81-1.62-.67 1.2-1.26 2.48-2.29 3.44-2.02 1.87-4.37 1.18-3.2-1.87.5-1.31 1.69-2.1 2.34-3.29-.23-.3-4.51-.65-5.34-1.25-1.58-1.14.65-4.25 1.64-5.21l5.23.83c.39-1.64.94-4.78 3-5.05.31-.04.72-.02.95.21Z" style="fill:currentColor"></path></symbol><symbol id="icon-made-by-the-community-black" viewBox="0 0 400 400"><defs><style>.5f53__cls-1{fill:#fff}</style></defs><path d="M193.75.12c101.57-3.5 190.66 71.72 204.35 172.19 17.95 131.8-93.98 243.75-225.79 225.79-81.59-11.11-148.88-73-167.17-153.12C-23.01 121.66 67.96 4.45 193.75.12m35.72 11.07L202.2 9.03l-2.19 28.21 27.31 2.04.59-5.75-20.45-1.56.31-5.58 16.12 1.24.3-5.57-15.8-1.25.31-5.27 19.97 1.57.8-5.91Zm-71 31.01 22.02-3.56c6.38-2.17 7.2-5.85 6.45-12.05-.82-6.8-1.62-15.54-10.34-15.65l-22.35 3.63 4.21 27.62Zm126.19 2.17c1.5-.04 4.6.25 5.72-.95.41-.44 3.3-6.4 3.44-7.1.2-.96.28-1.65-.34-2.49l-25.11-12.38-12.24 25.7L282 58.93c.59-.16 1.31-.39 1.74-.84s3.91-7.8 3.96-8.38c.14-1.6-2.52-3.81-3.04-5.34m-135.18.61-23.35-20.24c-.29-.2-.52-.16-.84-.09-1.65.35-4.25 2.43-6.16 2.7l-.97 31.27 6.77-2.84.1-5.48L138 44.5c1.51-.78 3.88 3.04 4.86 3.23zM95.22 56.46l9.6 11.33 5.58-4.35-18.11-21.53-5.74 5.08 5.25 21.88-20.75-9.17-5.88 4.73 17.8 21.79 4.97-4.01.11-.72-9.58-11.68 15.48 6.98c.91-.17 4.92-3.53 5-4.04l-3.73-16.27Zm218.28 7.13L315 48l-5.69-4.86c-.41 0-.72 2.96-.77 3.56-.52 6.14-.53 12.38-1 18.54l-5.98 7.35-.11.89 5.35 4.06 6.3-7.37 21.48-5.34c.29-.38-.94-1.42-1.23-1.71-1.26-1.21-2.97-2.22-4.23-3.49zM192.82 45.08C71.18 50.35 2.8 189.42 73.26 289.41c63.53 90.16 198.65 86.66 257.73-6.33C398.4 176.99 317.67 39.66 192.82 45.07Zm196.34 175.71-9.92-1.41-15.34-14.73-1.1-.3-.78 7.43c3.57 3.54 7.74 6.57 11.3 10.11.26.26.44.28.33.75l-14.2 7.2-.68 7.38 1.15-.24 18.29-10.23 10.01 1.17zM37.54 207.15l-5.89.62 1.55 11.78-21.72 2.93c-.23.15-.29.37-.3.64-.1 1.56.94 4.58.97 6.33l21.79-2.78 1.74 11.49 5.6-.76zm324.33 39.69-5.57-1.85-10.87 28.51 5.58 1.86 4.04-10.85 20.36 8.02c.28.08.4-.08.56-.26.2-.22 2.12-5.12 2.21-5.58.06-.33.17-.55-.18-.79l-20.15-7.93 4.01-11.13ZM36.92 258l9.79-4.03c.26-.33.09-.61 0-.94-.14-.55-2.23-5.47-2.53-5.55l-25.86 10.69 2.66 6.36 10.05-3.92 5.86 14.55-9.9 4.24 2.49 6.5 26.34-10.69-2.97-6.34-10.03 4L36.91 258Zm302.63 24.18c-.18 1.18-3.8 5.39-3.28 6.2l23.75 14.44c.26-.16 3.05-4.66 3.25-5.15.13-.33.3-.59.02-.92l-23.73-14.56ZM73.52 311.64l4.94-3.56-16.27-21.86-22.45 16.62 16.28 22.13 2.27-1.42 2.5-2.12-12.05-16.57c1.16-.2 3.66-3.31 4.63-2.68l9.45 12.56 4.18-3.27-9.25-12.75c-.12-.78 3.14-2.61 3.84-3.12l11.94 16.05Zm263.54 4.65h-24.03l-4.49 4.81 20.67 19.02 4.73-5.03-13-12.6 24.02.61 4.79-5.06-20.6-19.1-4.78 5.15zm-37.83 13.02-6.22 3.59 11.45 18.85-13.3 8.43-11.49-18.45c-.6-.43-5.36 2.94-6.16 3.59l.27.91c4.28 6.14 7.76 12.86 11.99 19.02 1.12 1.64 1.58 3.16 3.98 2.81l21.86-13.5c.92-.66 1.43-1.61 1.25-2.74l-13.64-22.51Zm-187.89 26.67c-.21.81-2.21 4.41-2.89 4.3l-13.2-8.48 8.65-13.66 13.36 8.07.16.49-2.35 3.84 5.73 3.87c1.61-2.76 7.11-7.85 3.54-10.65-6.14-4.82-14.8-8.47-21.15-13.27-1.19-.54-2.46-.31-3.33.62-3.38 6.26-8.47 12.34-11.72 18.58-2.13 4.11-.44 4.29 2.76 6.42 6.29 4.2 12.92 8 19.37 11.95.49.06.98.05 1.46-.05 1.76-.4 4.49-6.54 5.8-8.13zm158.44 22.01-7.76-27.28-7.38 2.24-4.25 22.25-15.05-16.59-7.41 2.22 7.42 26.78 6.8-2.05-4.01-14.69 11.48 12.57 6.15-1.45 2.83-17.01 4.36 14.55 6.8-1.53Zm-130.93-26.6c-1.2.27-1.48 1.46-1.86 2.48-2.49 6.65-3.86 14.22-6.35 20.94-.38 1.65.25 3.09 1.93 3.5 7.58 1.86 15.26 5.2 22.8 6.97 2.4.56 3.54 1.11 4.66-1.54 2.83-6.74 4.03-15.2 6.76-22.1.13-1.75-.66-2.4-2.12-3.01-5.61-2.33-16.04-5.28-22.08-6.75-1.27-.31-2.38-.78-3.74-.47Zm47.52 38.69v-13.8c0-.08.3-1.48.62-1.39l6.88 15.14 6.46-.1 7.49-14.53c1.25-1.31.26.07.26.26v14.73h6.82l.62-28.22h-7.6l-10.54 20.15-9.82-20.41-7.7-.36-.62 28.22z" style="fill:currentColor"></path><path d="M192.82 45.08C317.67 39.67 398.4 177 330.99 283.09c-59.08 92.99-194.2 96.48-257.73 6.33-70.46-100-2.08-239.07 119.56-244.34m7.51 38.66v-5.43c0-.05-.42-.49-.62-.47v5.89c-34.62.02-67.43 17.11-87.56 44.99-28.27 39.17-27.06 92.56 2.79 130.47 20.09 25.51 51.25 41.08 83.94 41.26.21.06.52.7.52.79v7.91c-23.14-2.97-45.7-9.73-65.15-22.75-66.22-44.31-65.23-144.23-.49-189.09l10.46-6.75c-14.37 7.02-27.66 17.9-37.82 30.24-26.06 31.62-31.64 74.25-18.62 112.87 14.45 42.87 53.28 69.56 96.44 78.28l-13.2 3.69c-1.38 1.13.43 5.16 1.93 5.85 8.76-2.59 17.71-5.01 26.78-6.14v11.47c.24.18.62-.63.62-.78v-10.7c9.08 1.12 18.01 3.57 26.78 6.14 1.5-.7 3.31-4.73 1.93-5.85l-13.2-3.69c31.52-6.53 61.97-22.6 81.18-48.89 25.81-35.34 29.38-88.39 7.55-126.5-11.22-19.59-29.1-36.39-49.35-46.3l15.33 10.24c57.04 42.89 60.09 133.2 4.66 178.88-21.17 17.45-47.5 26.39-74.56 29.77v-8.68c33.2.07 64.84-15.9 85.08-41.89 29.32-37.65 30.34-90.52 2.61-129.36-20.15-28.22-53.08-45.49-88-45.48Zm-78.14-3.41c-5.56 3.06-8.81 10.42-10.08 16.43-1.35 6.37-1.35 15.46 5.25 5.56 4.09-6.15 6.75-14.67 4.83-21.98Zm155.65 0c-1.92 7.31.74 15.84 4.83 21.98 3.38 5.08 6.61 6.88 6.01-1.36-.51-7.04-4.46-17.05-10.84-20.62m-176.7 37.79c1.15.72 3.12-2.16 3.62-2.97 4.18-6.64 6.15-17.66 2.7-24.89-6.07 5.71-8.25 15.28-7.61 23.41.06.78.79 4.13 1.29 4.44Zm197.75 0c.49-.31 1.23-3.67 1.29-4.44.64-8.13-1.53-17.71-7.61-23.41-3.44 7.17-1.49 18.07 2.58 24.7.51.83 2.54 3.92 3.74 3.16ZM94.75 103.28c-4.96 5.86-5.97 15.01-4.72 22.39.35 2.04.97 4.71 2.59 6.09 2.29.45 4.37-7.91 4.67-9.51 1.2-6.31 1.06-13.45-2.54-18.97m210.53 0c-3.6 5.52-3.74 12.67-2.54 18.97.3 1.6 2.39 9.96 4.67 9.51 1.62-1.38 2.24-4.05 2.59-6.09 1.25-7.37.24-16.52-4.72-22.39M83.9 117.23c-3.76 5.44-3.78 13.24-2.49 19.54.64 3.15 1.79 7.16 4.35 9.22 1.9.16 3.17-7.57 3.27-9.06.46-6.67-.59-14.55-5.13-19.7m232.23 0c-4.58 5.19-5.61 13.27-5.11 19.99.1 1.41 1.38 8.92 3.26 8.76 2.56-2.06 3.7-6.07 4.35-9.22 1.29-6.3 1.27-14.09-2.49-19.54ZM74.45 131.49c-2.9 7.55-1.43 17.39 2.42 24.39 2.38 4.32 5.03 6.27 5.63-.37.65-7.17-1.42-17.58-6.51-22.93-.27-.28-1.14-1.4-1.54-1.09m251.14 0c-.39-.3-1.27.81-1.54 1.09-5.13 5.39-7.17 15.71-6.51 22.93.6 6.63 3.25 4.69 5.63.37 3.84-6.97 5.36-16.87 2.42-24.39M67.47 147.31c-.94.19-.87 6.83-.79 7.92.38 5.11 3.49 12.57 6.7 16.55 4.56 5.65 5.53 2.6 5.09-3.22-.57-7.4-4.58-17.13-11-21.24Zm264.79 0c-6.68 4.82-11.76 17.19-10.68 25.24.69 5.09 4.58-.01 5.99-2.02 4.02-5.73 6.48-13.84 5.72-20.86-.06-.52-.25-2.54-1.04-2.36ZM77.19 191.29c1.22-6.89-3.13-16.09-7.7-21.21-.86-.96-5.25-5.01-6.35-4.8s-.24 5.26-.07 6.26c.76 4.49 2.95 9.05 5.54 12.75 1.09 1.55 6.42 8.35 8.59 6.99Zm245.64.02c3.14.09 5.76-3.3 7.54-5.58 2.94-3.79 5.78-9.1 6.61-13.85.18-1.02.92-6.38-.08-6.58-1.1-.22-5.5 3.84-6.35 4.8-4.62 5.16-8.85 14.23-7.72 21.22Zm-245 14.58c.58-3.6-1.32-7.6-3.03-10.73-3.09-5.65-8.5-11.79-14.93-13.43.2 7.93 5.39 16.09 11.32 21.07 1.78 1.5 4.18 3.48 6.64 3.09m262.33-24.17c-6.54 1.68-11.92 7.89-15.04 13.63-1.69 3.11-3.51 6.95-2.92 10.53 3.8.22 7.82-3.94 10.22-6.64 4.24-4.78 7.59-11 7.74-17.53ZM58.63 198.47c.73 6.79 5.79 13.22 11.01 17.35 1.41 1.12 8.77 6.43 10.25 4.37.99-1.39-2.4-7.11-3.34-8.49-4.19-6.22-10.41-11.68-17.92-13.23m282.77 0c-7.51 1.55-13.73 7.01-17.92 13.23-.93 1.39-4.33 7.1-3.34 8.49 1.48 2.06 8.84-3.25 10.25-4.37 5.23-4.14 10.29-10.57 11.01-17.35m-258.01 35.3c.98-1.57-3.17-6.9-4.29-8.18-4.76-5.44-12.42-10.67-19.85-10.69 1.66 6.67 7.76 12.38 13.55 15.75 1.44.84 9.49 4.87 10.59 3.12m257.39-18.87c-7.41-.02-15.12 5.27-19.85 10.69-1.12 1.28-5.27 6.61-4.29 8.18 2.06.85 4.51-.27 6.46-1.05 7.33-2.96 15.65-9.92 17.68-17.82M62.24 231.07c-.56.17-.5.43-.38.89 1.2 4.74 10.22 10.86 14.54 12.75 3.59 1.58 16.92 6.17 9.98-2.23-3.84-4.65-11.36-9.27-17.21-10.7-1.49-.36-5.63-1.12-6.93-.72Zm272.59.04c-5.23.45-10.46 2.78-14.73 5.73s-15.5 13.28-1.95 9.83c6.67-1.7 15.92-7.1 19.28-13.28 1.62-2.99.27-2.53-2.59-2.28ZM95.5 259.83c1.31-1.82-6.87-7.2-8.25-7.97-6.24-3.49-13.75-5.63-20.86-4.09-.23.22.6 1.25.8 1.52 4.48 6.05 13.73 10.18 21.09 11.15 2.53.33 4.86.57 7.22-.61m238.15-12.06c-7.12-1.54-14.63.61-20.86 4.09-3.1 1.73-7.32 4.38-8.27 7.98 2.4 1.16 4.69.94 7.24.6 7.36-.97 16.61-5.1 21.09-11.15.2-.27 1.04-1.3.8-1.52m-230.1 23.83c1.44-2.31-7.08-6.3-8.65-6.93-6.81-2.72-14.63-3.79-21.7-1.4-.29.39 2.06 2.6 2.48 2.95 3.59 3.01 9.01 5.09 13.58 5.95s9.96 1.41 14.29-.57m223.28-8.33c-7.06-2.39-14.9-1.33-21.7 1.4-1.95.78-9.26 4.19-8.71 6.77 1.18.77 2.85 1.25 4.25 1.4 7.3.77 18-1.85 23.69-6.62.42-.35 2.76-2.56 2.48-2.95Zm-214.04 18.82c.27-.3.47-.75.26-1.14-2.14-2.44-5.76-3.68-8.85-4.51-7.5-2.01-15.57-2.12-22.63 1.4-.09.66.53 1.01.96 1.36 4.1 3.45 12.22 5.34 17.48 5.47 2.68.07 11.04-.62 12.79-2.59Zm205.67-4.24c-8.01-3.99-17.92-3.44-26.12-.24-2.01.78-4.42 1.67-5.45 3.75-.04 1.63 5.61 2.77 6.96 2.96 6.05.84 13.32.06 18.93-2.39.8-.35 6.32-3.14 5.68-4.08m-194.5 11.86c-1.18-1.34-6.07-2.52-7.9-2.8-7.97-1.21-17.46-.44-23.94 4.72 7.49 5.09 18.89 5.03 27.27 2.16 1.23-.42 6.09-2.36 4.57-4.08m152.12 0c-1.52 1.73 3.34 3.66 4.57 4.08 8.4 2.88 19.75 2.93 27.27-2.16-6.48-5.16-15.97-5.93-23.94-4.72-1.83.28-6.72 1.46-7.9 2.8m-171.87 14.48c8.39 3.26 18.39 2.13 26.47-1.59 1.96-.9 4.75-2.25 5.42-4.41-.29-1.55-5.31-2.27-6.62-2.37-6.64-.51-15.05.89-20.82 4.28-.76.44-3.95 2.62-4.3 3.15-.21.31-.16.59-.15.93Zm191.62 0c.02-.34.06-.62-.15-.93-.35-.53-3.54-2.7-4.3-3.15-5.78-3.39-14.18-4.79-20.82-4.28-1.31.1-6.33.82-6.62 2.37.67 2.15 3.46 3.5 5.42 4.41 8.08 3.72 18.08 4.86 26.47 1.59Zm-147.62.03c-5.28-2.04-12.36-.73-17.66 1.05s-10.38 4.87-13.63 9.31c0 1.15 8.68 1.18 9.77 1.1 5.45-.4 12.95-3.33 17.42-6.45 1.7-1.19 3.99-2.77 4.09-5Zm103.61 0c.1 2.23 2.39 3.82 4.09 5 4.47 3.12 11.97 6.06 17.42 6.45 1.09.08 9.77.05 9.77-1.1-4.26-5.73-11.4-9.16-18.28-10.55-4.1-.83-9.1-1.53-13 .18Zm-119.71 19.82c7.3 1.16 14.95-1.59 21.06-5.45 1.95-1.23 9.52-6.73 8.68-9.23-2.63-1.73-7.01-.53-9.9.27-7.5 2.06-16.58 7.05-19.84 14.42Zm135.81 0c-3.26-7.36-12.35-12.36-19.84-14.42-2.89-.79-7.26-1.99-9.9-.27-.83 2.51 6.74 8 8.68 9.23 6.13 3.87 13.74 6.58 21.06 5.45Z" class="5f53__cls-1"></path><path d="m95.22 56.46 3.73 16.27c-.08.52-4.09 3.87-5 4.04l-15.48-6.98 9.58 11.68-.11.72-4.97 4.01-17.8-21.79 5.88-4.73 20.75 9.17-5.25-21.88 5.74-5.08 18.11 21.53-5.58 4.35-9.6-11.33Zm91.15 333.62-7.13-.31.62-28.22 7.7.36 9.82 20.41 10.54-20.15h7.6l-.62 28.22h-6.82v-14.73c0-.2.99-1.57-.26-.26l-7.49 14.53-6.46.1-6.88-15.14c-.31-.09-.62 1.32-.62 1.39zm83.41-12.09-6.8 1.53-4.36-14.55-2.83 17.01-6.15 1.45-11.48-12.57 4.01 14.69-6.81 2.05-7.42-26.78 7.41-2.22 15.05 16.59 4.25-22.25 7.37-2.24zm14.88-333.62c.52 1.54 3.18 3.75 3.04 5.34-.05.58-3.52 7.92-3.96 8.38s-1.14.68-1.74.84l-25.87-11.78 12.24-25.7 25.11 12.38c.61.84.53 1.53.34 2.49-.14.7-3.03 6.66-3.44 7.1-1.12 1.19-4.22.91-5.72.95m1.24-8.36-13.19-6.22c-.96.02-2.17 3.97-2.9 4.81l10.68 5.1c3.11-.36 4.86-.03 5.41-3.7Zm-18.09 3.42-2.55 5.56 13.83 6.38 1.53-3.44-2.46-3.72-10.35-4.77ZM138.85 351.39c1.36-.31 2.47.16 3.74.47 6.04 1.48 16.47 4.43 22.08 6.75 1.46.61 2.25 1.27 2.12 3.01-2.73 6.9-3.93 15.37-6.76 22.1-1.11 2.65-2.26 2.1-4.66 1.54-7.54-1.77-15.22-5.11-22.8-6.97-1.69-.41-2.32-1.85-1.93-3.5 2.49-6.72 3.86-14.28 6.35-20.94.38-1.02.66-2.21 1.86-2.48Zm19.92 11.42-15.51-4.54-4.82 15.7 15.65 4.61 4.67-15.77Zm-.3-320.61-4.21-27.62 22.35-3.63c8.72.11 9.52 8.85 10.34 15.65.75 6.2-.07 9.88-6.45 12.05l-22.02 3.56Zm6.2-6.83c3.83-1.13 8.84-.98 12.54-2.19 1.72-.56 2.93-1.94 2.93-3.83 0-1.57-1.3-8.83-1.96-10.13-.75-1.46-1.85-1.9-3.42-2.09l-12.52 2.15 2.44 16.08Zm172.39 280.92-12.69-12.21 4.79-5.15 20.59 19.11-4.79 5.06-24.02-.61 13 12.6-4.73 5.03-20.67-19.03 4.49-4.8zm-225.72 39.69 6.19 3.9c-1.31 1.59-4.04 7.73-5.8 8.13-.48.11-.97.12-1.46.05-6.45-3.95-13.08-7.75-19.37-11.95-3.2-2.14-4.89-2.32-2.76-6.42 3.24-6.25 8.33-12.32 11.72-18.58.87-.93 2.14-1.15 3.33-.62 6.35 4.8 15 8.45 21.15 13.27 3.57 2.8-1.94 7.88-3.54 10.65l-5.73-3.87 2.35-3.84-.16-.49-13.36-8.07-8.65 13.66 13.2 8.48c.68.11 2.69-3.49 2.89-4.3m-37.82-44.34-11.94-16.05c-.7.51-3.96 2.35-3.84 3.12l9.25 12.75-4.18 3.27-9.45-12.56c-.97-.63-3.47 2.48-4.63 2.68l12.05 16.57-2.5 2.12-2.27 1.42-16.28-22.13 22.45-16.62 16.27 21.86-4.94 3.56ZM229.47 11.19l-.8 5.91-19.97-1.57-.31 5.27 15.79 1.26-.29 5.56-16.12-1.24-.31 5.58 20.45 1.57-.59 5.74-27.31-2.04 2.19-28.2zM36.92 258l5.91 14.87 10.03-4 2.97 6.34-26.34 10.69-2.49-6.5 9.9-4.24-5.86-14.55-10.05 3.92-2.66-6.36 25.86-10.69c.3.08 2.39 5 2.53 5.55.08.33.25.61 0 .94L36.93 258Zm262.31 71.31 13.64 22.51c.18 1.13-.34 2.09-1.25 2.74l-21.86 13.5c-2.4.36-2.86-1.17-3.98-2.81-4.23-6.16-7.71-12.88-11.99-19.02l-.27-.91c.8-.65 5.56-4.01 6.16-3.59l11.49 18.45 13.3-8.43-11.45-18.85 6.22-3.59ZM149.48 44.98l-6.62 2.75c-.98-.19-3.34-4.01-4.86-3.23l-12.97 5.8-.1 5.48-6.77 2.84.97-31.27c1.91-.27 4.5-2.35 6.16-2.7.32-.07.55-.11.84.09zm-24.19-12.71v11.78l8.99-3.72zm236.58 214.57-4.01 11.13 20.15 7.93c.35.24.24.45.18.79-.09.46-2.01 5.36-2.21 5.58-.16.18-.29.34-.56.26l-20.36-8.02-4.04 10.85-5.58-1.86 10.87-28.51 5.57 1.85ZM37.54 207.15l3.74 30.25-5.6.76-1.74-11.49-21.79 2.78c-.03-1.75-1.07-4.76-.97-6.33.02-.26.07-.48.3-.64l21.72-2.93-1.55-11.78zM313.5 63.59l15.62-3.96c1.25 1.27 2.97 2.29 4.23 3.49.3.28 1.53 1.33 1.23 1.71l-21.48 5.34-6.3 7.37-5.35-4.06.11-.89 5.98-7.35c.47-6.15.47-12.39 1-18.54.05-.61.36-3.57.77-3.56L315 48zm75.66 157.2-.94 7.13-10.01-1.17-18.29 10.23-1.15.24.68-7.38 14.2-7.2c.11-.48-.07-.5-.33-.75-3.55-3.54-7.73-6.57-11.3-10.11l.78-7.43 1.1.3 15.34 14.73zm-49.61 61.39 23.73 14.56c.28.34.11.59-.02.92-.19.49-2.99 4.99-3.25 5.15l-23.75-14.44c-.52-.82 3.1-5.02 3.28-6.2Z" class="5f53__cls-1"></path><path d="M200.33 83.74c34.92 0 67.85 17.26 88 45.48 27.73 38.84 26.71 91.71-2.61 129.36-20.24 25.99-51.88 41.96-85.08 41.89v8.68c27.06-3.38 53.39-12.33 74.56-29.77 55.43-45.68 52.38-135.99-4.66-178.88l-15.33-10.24c20.25 9.9 38.14 26.71 49.35 46.3 21.82 38.11 18.26 91.17-7.55 126.5-19.21 26.29-49.66 42.36-81.18 48.89l13.2 3.69c1.38 1.13-.43 5.16-1.93 5.85-8.77-2.57-17.7-5.02-26.78-6.14v10.7c0 .15-.38.95-.62.78v-11.47c-9.07 1.13-18.02 3.55-26.78 6.14-1.5-.69-3.3-4.72-1.93-5.85l13.2-3.69c-43.16-8.72-81.99-35.42-96.44-78.28-13.02-38.61-7.43-81.25 18.62-112.87 10.16-12.33 23.45-23.21 37.82-30.24l-10.46 6.75c-64.74 44.87-65.73 144.78.49 189.09 19.46 13.02 42.01 19.78 65.15 22.75v-7.91c0-.09-.32-.72-.52-.79-32.69-.18-63.85-15.75-83.94-41.26-29.85-37.91-31.06-91.3-2.79-130.47 20.13-27.88 52.94-44.97 87.56-44.99v-5.89c.2-.02.62.41.62.47v5.43Zm-1.24 214.88v-7.44c-21.67-.34-42.79-7.69-59.81-20.96-23.6-18.41-38.18-47.25-38.16-77.43l-2.19-.67 2.19-.67c-.24-49.32 38.94-92.7 87.93-97.73 3.34-.34 6.7-.21 10.02-.67l.33-7.43c-32.6.13-63.48 15.58-83.39 41.1-28.8 36.9-29.91 88.44-3.06 126.75 19.48 27.78 52 45.02 86.14 45.17Zm1.86 0c36.22-.07 70.36-19.44 89.43-49.95 29.23-46.75 17.94-107.83-25.59-141.17-18.26-13.99-41.05-21.75-64.15-21.89l.33 7.43c3.23.47 6.5.32 9.75.64 49.09 4.87 88.69 48.3 88.2 97.77l2.19.67-2.19.67c.42 40.39-26.08 77.55-63.47 91.8-11.04 4.21-22.66 6.34-34.49 6.59v7.44Zm-2.17-202.79c-19.9.31-39.25 6.73-55.29 18.35-24.39 17.67-39.72 46.79-39.59 77.15l23.87-2.17c1.11-32.97 25.87-61.74 58.24-67.8 3.92-.73 7.86-.96 11.82-1.35l.95-24.17Zm97.67 95.51c-.32-11.45-2.24-22.55-6.28-33.26-13.86-36.77-49.41-61.87-88.91-62.25l.95 24.17c9.45.48 18.52 2.32 27.17 6.16 24.91 11.05 41.83 35.61 42.89 62.99l24.18 2.18Zm-99.22-65.12c-33.77.56-62.2 29.66-62.95 63.26 8.63-.65 17.59-1.26 26.1-2.89 23.78-4.54 29.62-15.17 33.9-37.72 1.42-7.47 2.25-15.07 2.94-22.64Zm68.52 63.26c-.78-33.61-29.16-62.67-62.95-63.26.55 6.34 1.21 12.7 2.26 18.98 4.03 23.94 8.95 36.49 34.58 41.39 8.51 1.63 17.47 2.24 26.1 2.89Zm-137.98 5.58-23.87-2.17c-.09 17.67 5.14 35.29 14.45 50.21 17.18 27.53 47.75 45.05 80.44 45.3l-.93-24.19c-14.27-.49-27.84-4.92-39.48-13.08-18.18-12.74-29.79-33.73-30.6-56.06Zm168.68-2.18-24.18 2.18c-.62 12.38-4.17 24.51-10.73 35.01-12.79 20.46-35.06 33.49-59.35 34.13l-.93 24.19c39.1-.16 74.53-25.14 88.6-61.32 4.25-10.93 6.28-22.45 6.59-34.19m-99.23 65.43c-1.57-13.55-2.66-29.53-8.31-42.07-8.91-19.74-36.2-19.76-54.63-21.5.85 30.06 22.97 56.23 52.39 62.18 3.49.71 7.03.91 10.55 1.38Zm68.53-63.57c-18.44 1.73-45.71 1.74-54.63 21.5-1.35 3-2.47 6.81-3.33 10-2.79 10.37-4.07 21.38-4.98 32.07 2.02-.46 4.21-.38 6.31-.66 31.4-4.26 55.68-31.21 56.63-62.9Z" style="fill:currentColor"></path><path d="M132.11 324.04c3.26-7.36 12.35-12.36 19.84-14.42 2.89-.79 7.26-1.99 9.9-.27.83 2.51-6.74 8-8.68 9.23-6.11 3.86-13.76 6.61-21.06 5.45Zm135.81 0c-7.32 1.13-14.93-1.58-21.06-5.45-1.95-1.23-9.52-6.73-8.68-9.23 2.63-1.73 7.01-.53 9.9.27 7.5 2.06 16.58 7.05 19.84 14.42Zm-119.71-19.82c-.1 2.23-2.39 3.82-4.09 5-4.47 3.12-11.97 6.06-17.42 6.45-1.09.08-9.77.05-9.77-1.1 3.25-4.43 8.46-7.58 13.63-9.31s12.38-3.1 17.66-1.05Zm103.61 0c3.9-1.71 8.9-1.01 13-.18 6.89 1.39 14.03 4.82 18.28 10.55 0 1.15-8.68 1.18-9.77 1.1-5.45-.4-12.95-3.33-17.42-6.45-1.7-1.19-3.99-2.77-4.09-5Zm44.01-.03c-8.39 3.26-18.39 2.13-26.47-1.59-1.96-.9-4.75-2.25-5.42-4.41.29-1.55 5.31-2.27 6.62-2.37 6.64-.51 15.05.89 20.82 4.28.76.44 3.95 2.62 4.3 3.15.21.31.16.59.15.93Zm-191.62 0c-.02-.34-.06-.62.15-.93.35-.53 3.54-2.7 4.3-3.15 5.78-3.39 14.18-4.79 20.82-4.28 1.31.1 6.33.82 6.62 2.37-.67 2.15-3.46 3.5-5.42 4.41-8.08 3.72-18.08 4.86-26.47 1.59Zm19.75-14.48c1.52 1.73-3.34 3.66-4.57 4.08-8.38 2.87-19.78 2.94-27.27-2.16 6.48-5.16 15.97-5.93 23.94-4.72 1.83.28 6.72 1.46 7.9 2.8m152.12 0c1.18-1.34 6.07-2.52 7.9-2.8 7.97-1.21 17.46-.44 23.94 4.72-7.52 5.08-18.86 5.04-27.27 2.16-1.23-.42-6.09-2.36-4.57-4.08m42.38-11.86c.64.94-4.88 3.73-5.68 4.08-5.61 2.45-12.88 3.23-18.93 2.39-1.35-.19-7-1.33-6.96-2.96 1.02-2.08 3.44-2.96 5.45-3.75 8.2-3.2 18.11-3.75 26.12.24m-205.67 4.24c-1.74 1.97-10.1 2.65-12.79 2.59-5.26-.13-13.38-2.01-17.48-5.47-.43-.36-1.04-.71-.96-1.36 7.06-3.51 15.13-3.41 22.63-1.4 3.09.83 6.71 2.06 8.85 4.51.2.39 0 .84-.26 1.14Zm-9.24-10.49c-4.32 1.98-9.72 1.43-14.29.57s-10-2.94-13.58-5.95c-.42-.35-2.76-2.56-2.48-2.95 7.06-2.39 14.89-1.33 21.7 1.4 1.57.63 10.09 4.62 8.65 6.93m223.28-8.33c.29.39-2.06 2.6-2.48 2.95-5.68 4.77-16.38 7.39-23.69 6.62-1.4-.15-3.06-.63-4.25-1.4-.55-2.59 6.76-5.99 8.71-6.77 6.8-2.72 14.64-3.79 21.7-1.4ZM95.5 259.83c-2.37 1.18-4.69.95-7.22.61-7.36-.97-16.61-5.1-21.09-11.15-.2-.27-1.04-1.3-.8-1.52 7.12-1.54 14.63.61 20.86 4.09 1.39.77 9.57 6.15 8.25 7.97m238.15-12.06c.23.22-.6 1.25-.8 1.52-4.48 6.05-13.74 10.18-21.09 11.15-2.55.34-4.84.55-7.24-.6.95-3.6 5.17-6.25 8.27-7.98 6.24-3.49 13.75-5.63 20.86-4.09m-271.41-16.7c1.3-.4 5.44.36 6.93.72 5.85 1.43 13.37 6.05 17.21 10.7 6.94 8.4-6.39 3.81-9.98 2.23-4.32-1.9-13.34-8.02-14.54-12.75-.12-.47-.18-.73.38-.89Zm272.59.04c2.87-.25 4.22-.7 2.59 2.28-3.36 6.18-12.61 11.58-19.28 13.28-13.55 3.45-2.34-6.87 1.95-9.83s9.51-5.28 14.73-5.73Zm5.95-16.21c-2.03 7.89-10.35 14.86-17.68 17.82-1.95.79-4.4 1.9-6.46 1.05-.98-1.57 3.17-6.9 4.29-8.18 4.73-5.41 12.44-10.71 19.85-10.69M83.39 233.77c-1.1 1.75-9.15-2.28-10.59-3.12-5.79-3.37-11.89-9.08-13.55-15.75 7.43.02 15.09 5.24 19.85 10.69 1.12 1.28 5.27 6.61 4.29 8.18m258.01-35.3c-.73 6.79-5.79 13.22-11.01 17.35-1.41 1.12-8.77 6.43-10.25 4.37-.99-1.39 2.4-7.11 3.34-8.49 4.19-6.22 10.41-11.68 17.92-13.23m-282.77 0c7.51 1.55 13.73 7.01 17.92 13.23.93 1.39 4.33 7.1 3.34 8.49-1.48 2.06-8.84-3.25-10.25-4.37-5.23-4.14-10.29-10.57-11.01-17.35m281.53-16.75c-.15 6.52-3.5 12.75-7.74 17.53-2.4 2.7-6.43 6.86-10.22 6.64-.59-3.58 1.23-7.42 2.92-10.53 3.12-5.74 8.5-11.96 15.04-13.63ZM77.83 205.89c-2.46.38-4.86-1.59-6.64-3.09-5.94-4.99-11.13-13.14-11.32-21.07 6.44 1.65 11.84 7.78 14.93 13.43 1.71 3.13 3.61 7.13 3.03 10.73m245-14.58c-1.13-6.98 3.1-16.06 7.72-21.22.86-.96 5.25-5.01 6.35-4.8 1 .2.26 5.56.08 6.58-.84 4.75-3.67 10.06-6.61 13.85-1.78 2.29-4.4 5.67-7.54 5.58Zm-245.64-.02c-2.16 1.36-7.5-5.44-8.59-6.99-2.59-3.71-4.78-8.27-5.54-12.75-.17-1-.99-6.05.07-6.26s5.5 3.84 6.35 4.8c4.58 5.12 8.92 14.32 7.7 21.21Zm-9.72-43.98c6.42 4.11 10.43 13.84 11 21.24.45 5.82-.53 8.88-5.09 3.22-3.21-3.98-6.32-11.44-6.7-16.55-.08-1.09-.15-7.73.79-7.92Zm264.79 0c.79-.18.98 1.85 1.04 2.36.75 7.02-1.7 15.14-5.72 20.86-1.41 2-5.3 7.11-5.99 2.02-1.08-8.05 4-20.42 10.68-25.24Zm-6.67-15.82c2.93 7.52 1.42 17.42-2.42 24.39-2.38 4.32-5.03 6.27-5.63-.37-.66-7.22 1.39-17.54 6.51-22.93.27-.28 1.14-1.4 1.54-1.09m-251.14 0c.39-.3 1.27.81 1.54 1.09 5.09 5.36 7.17 15.76 6.51 22.93-.6 6.63-3.25 4.69-5.63.37-3.85-7-5.33-16.84-2.42-24.39m241.68-14.26c3.76 5.44 3.78 13.24 2.49 19.54-.64 3.15-1.79 7.16-4.35 9.22-1.88.16-3.15-7.36-3.26-8.76-.5-6.72.53-14.8 5.11-19.99Zm-232.23 0c4.54 5.15 5.59 13.03 5.13 19.7-.1 1.48-1.37 9.22-3.27 9.06-2.56-2.06-3.7-6.07-4.35-9.22-1.29-6.3-1.27-14.09 2.49-19.54m221.38-13.95c4.96 5.86 5.97 15.01 4.72 22.39-.35 2.04-.97 4.71-2.59 6.09-2.29.45-4.37-7.91-4.67-9.51-1.2-6.31-1.06-13.45 2.54-18.97m-210.53 0c3.6 5.52 3.74 12.67 2.54 18.97-.3 1.6-2.39 9.96-4.67 9.51-1.62-1.38-2.24-4.05-2.59-6.09-1.25-7.37-.24-16.52 4.72-22.39m6.39 14.84c-.49-.31-1.23-3.67-1.29-4.44-.64-8.13 1.53-17.71 7.61-23.41 3.46 7.23 1.49 18.25-2.7 24.89-.51.8-2.47 3.69-3.62 2.97Zm197.75 0c-1.2.75-3.23-2.33-3.74-3.16-4.07-6.63-6.02-17.52-2.58-24.7 6.07 5.71 8.25 15.28 7.61 23.41-.06.78-.79 4.13-1.29 4.44Zm-21.05-37.79c6.39 3.58 10.33 13.58 10.84 20.62.6 8.24-2.63 6.44-6.01 1.36-4.09-6.15-6.75-14.67-4.83-21.98m-155.65 0c1.92 7.31-.74 15.84-4.83 21.98-6.59 9.9-6.59.82-5.25-5.56 1.27-6.01 4.52-13.37 10.08-16.43Zm145.62-40.9 10.35 4.77 2.46 3.73-1.53 3.44-13.83-6.38zm18.09-3.42c-.54 3.67-2.3 3.34-5.41 3.7l-10.68-5.1c.72-.84 1.93-4.8 2.9-4.81l13.19 6.22Zm-127.13 326.8-4.67 15.77-15.66-4.61 4.82-15.7zm5.9-327.44-2.44-16.08 12.52-2.15c1.58.19 2.68.63 3.42 2.09.66 1.29 1.96 8.56 1.96 10.13 0 1.89-1.21 3.27-2.93 3.83-3.7 1.21-8.71 1.06-12.54 2.19Zm-39.38-3.1 8.99 8.06-8.99 3.72z" style="fill:currentColor"></path><path d="M296.45 192.88c-.31 11.73-2.34 23.26-6.59 34.19-14.08 36.18-49.5 61.15-88.6 61.32l.93-24.19c24.29-.64 46.57-13.67 59.35-34.13 6.56-10.5 10.1-22.63 10.73-35.01zm0-1.54-24.18-2.18c-1.06-27.38-17.99-51.95-42.89-62.99-8.65-3.84-17.72-5.68-27.17-6.16l-.95-24.17c39.5.38 75.05 25.48 88.91 62.25 4.04 10.71 5.96 21.81 6.28 33.26Zm-168.68 3.72c.81 22.33 12.42 43.32 30.6 56.06 11.64 8.16 25.2 12.59 39.48 13.08l.93 24.19c-32.69-.24-63.26-17.77-80.44-45.3-9.3-14.91-14.53-32.54-14.45-50.21l23.87 2.17Zm71.01-99.23-.95 24.17c-3.96.39-7.9.62-11.82 1.35-32.36 6.07-57.12 34.84-58.24 67.8l-23.87 2.17c-.13-30.36 15.2-59.48 39.59-77.15 16.04-11.62 35.39-18.05 55.29-18.35Z" class="5f53__cls-1"></path><path d="M265.75 189.48c-8.63-.65-17.59-1.26-26.1-2.89-25.63-4.89-30.55-17.44-34.58-41.39-1.06-6.28-1.71-12.64-2.26-18.98 33.79.58 62.16 29.64 62.95 63.26Zm-68.52-63.26c-.69 7.58-1.52 15.17-2.94 22.64-4.28 22.55-10.12 33.18-33.9 37.72-8.51 1.63-17.47 2.24-26.1 2.89.75-33.6 29.17-62.7 62.95-63.26Zm-.01 132.09c-3.51-.47-7.06-.68-10.55-1.38-29.42-5.95-51.54-32.12-52.39-62.18 18.42 1.74 45.72 1.75 54.63 21.5 5.66 12.54 6.74 28.52 8.31 42.07Zm68.53-63.57c-.95 31.69-25.23 58.64-56.63 62.9-2.1.29-4.29.2-6.31.66.91-10.69 2.19-21.69 4.98-32.07.86-3.19 1.98-7 3.33-10 8.92-19.76 36.19-19.77 54.63-21.5Z" class="5f53__cls-1"></path><path d="M200.95 298.62v-7.44c11.83-.25 23.45-2.38 34.49-6.59 37.4-14.25 63.9-51.41 63.47-91.8l2.19-.67-2.19-.67c.49-49.47-39.11-92.9-88.2-97.77-3.25-.32-6.52-.17-9.75-.64l-.33-7.43c23.1.15 45.89 7.9 64.15 21.89 43.53 33.34 54.81 94.42 25.59 141.17-19.07 30.5-53.21 49.88-89.43 49.95Zm-1.86 0c-34.14-.15-66.66-17.39-86.14-45.17-26.85-38.3-25.75-89.84 3.06-126.75 19.92-25.52 50.79-40.97 83.39-41.1l-.33 7.43c-3.32.46-6.68.33-10.02.67-48.99 5.04-88.17 48.41-87.93 97.73l-2.19.67 2.19.67c-.02 30.18 14.55 59.03 38.16 77.43 17.02 13.27 38.14 20.62 59.81 20.96v7.44Z" class="5f53__cls-1"></path></symbol><symbol id="icon-made-by-the-community-white" viewBox="0 0 400 400"><defs><style>.af5a__cls-1{fill:#fff}</style></defs><path d="M186.61.27c129.88-6.53 233.01 105.24 210.22 234.66-22.54 128-161.66 201.6-280.54 146.66C-4.62 325.71-38.64 169.06 49.49 68.12 83.27 29.43 134.87 2.87 186.61.27m5.88 10.3C102.21 13.98 26 81.96 12.64 171.25c-18.67 124.8 86.61 232.56 211.78 216.51 83.16-10.66 150.34-76.33 162.75-159.26C404.8 110.64 311.45 6.07 192.49 10.57" style="fill:currentColor"></path><path d="M192.49 10.57c118.96-4.5 212.31 100.07 194.68 217.94-12.41 82.93-79.59 148.6-162.75 159.26C99.25 403.81-6.03 296.05 12.64 171.25 26 81.96 102.21 13.98 192.49 10.57m35.35 10.2-25.89-1.93-2.22 26.65 26.05 2.21.58-5.75-19.41-1.47c.44-.82.02-4.83.78-5.01l14.61.85c.88-.29.3-4.2.78-5.25l-15.29-1.18.29-4.71 18.93 1.43c.38-.1.42-.36.48-.69.26-1.4-.07-3.61.29-5.15ZM160.5 50.48l20.59-3.38c2.96-.67 6.16-3.12 6.69-6.25s-1.14-13.96-2.92-16.64c-2.18-3.29-5.53-3.71-9.21-3.43l-19.22 3.27 4.08 26.43Zm119.68 2.06c1.75-.13 4.4.12 5.59-1.32.54-.66 3-5.75 3.17-6.54s.14-1.73-.38-2.43l-24.08-11.5-11.33 23.96c.09.37 2.83 1.62 3.4 1.9 5.65 2.79 12.18 6.15 17.94 8.53 1.77.73 3.65 1.81 5.06-.15.55-.77 3.42-6.63 3.52-7.39.22-1.68-2.07-3.71-2.89-5.06m-127.91.29-22.44-19.2-6.53 2.73c-.54 7.71-.56 15.39-.72 23.1-.02.89-.9 6.54.13 6.6l6.18-2.93.18-5.27 12.76-5.54 3.83 3.16zm-42.63 22.06 5.25-4.5-16.91-20.47-5.7 4.83 4.71 20.74-19.31-8.78-5.97 4.81 17.2 20.73 5.13-4.53-9.1-11.05 14.34 6.41c.41.1.72-.08 1.06-.27s3.45-2.76 3.72-3.06c.23-.27.37-.4.24-.78l-3.77-15.23 9.12 11.18Zm197.89-4.12 1.44-15.09-5.85-4.61-1.54 21.25-5.81 7.56 5.14 4.12 6.41-7.12c5.86-2.13 13.61-2.62 19.27-4.85.36-.14 1.06-.26.94-.82-.08-.34-4.71-3.99-5.43-4.44l-14.56 3.99ZM193.38 52.92C77.3 57.86 12.2 191.09 80.58 285.85c62.59 86.73 194.43 79.72 247.19-13.24C384.96 171.83 308.5 48.02 193.39 52.92Zm185.01 173.43.61-6.92-9.24-1.35-14.73-14.09-1.04-.28-.75 7.35c3.39 3.15 7.14 6.04 10.46 9.26.32.31.69.51.58 1.03l-13.16 6.55-.96 7.28 1.39-.23 17.36-9.71zM46.12 206.64l-5.88.59 1.47 11.17-20.88 2.65.9 6.75 20.67-2.65 1.66 10.9 5.6-.73-3.54-28.69ZM353.4 244.3c-1.64-.46-3.19-1.31-4.8-1.83-.29-.09-.29-.44-.63.05l-10.16 26.91 5.3 1.91 3.83-10.29 19.03 7.6.81-.25 2.2-6.16-19.39-7.38zm-300.85.61-24.89 10.1 2.47 6.06c1.47-.03 9.11-4.01 9.79-3.53l5.34 13.61-9.31 4 2.53 6.48 24.68-10.02c.33-.38-2.17-6.32-2.52-6.43l-9.8 3.49-5.29-13.78 9.27-3.84zm279.43 32.94c-.23 1.06-3.56 5.22-3.15 5.85l22.82 13.69c.59-1.57 2.54-3.48 3.09-4.89.16-.42.24-.68-.13-1.03l-22.62-13.62ZM69.04 290.47l11.33 15.27c.84-1.12 3.25-2.11 4-3.06.21-.26.33-.42.16-.76l-15.32-20.55-21.3 16.04 15.45 20.97c.66.2 4.03-2.82 4.81-3.37l-11.43-15.55c.63-.58 3.38-3.08 4.08-2.71l8.97 11.9L74 305.3l-9.06-12.06 4.1-2.79Zm245.55 25.58 22.49.58 4.81-4.85-19.75-18.06-4.59 4.83 12.34 11.61-22.49-.29-.61.27c-.43 1.3-4.13 3.77-3.97 4.85l19.32 17.79 4.78-4.87-12.32-11.87Zm-28.5 35.56-10.9-17.5c-.22-.24-.37-.09-.59 0-.55.25-5.2 3.22-5.22 3.53 4 6.08 7.53 12.89 11.68 18.83 1.92 2.74 2.28 3.7 5.68 1.85 5.42-2.95 13.42-7.97 18.41-11.59 1.47-1.06 2.23-1.58 1.66-3.66l-13.24-20.81-5.71 3.61L299 343.96l-12.91 7.63Zm-160.88-5.27c.67-2.18 4.63-6.25 4.41-8.36-.12-1.14-1.1-1.65-1.9-2.24-4.67-3.46-13.45-9.02-18.59-11.7-1.9-.99-2.68-1.62-4.33.26l-11.7 18.59c-.48 1.12-.36 2.52.67 3.28 6.52 3.49 12.82 8.8 19.3 12.17 1.45.75 2.53 1.56 4.06.36.45-.35 4.04-5.88 4.33-6.56.15-.37.38-.69.1-1.09l-5.32-3.24c-.6 0-2.24 3.05-2.51 3.81l-.65-.03-12.26-7.77 8.1-13.08 12.77 7.67-2.33 4.23 5.85 3.71Zm140.86 22.35-7.54-25.86-6.9 1.93-3.8 20.99-14.17-15.53-7.59 1.71 7.36 25.87 6.48-1.94-3.55-13.34 10.34 11.43 5.82-1.58 2.95-16.02 4.14 13.79 6.44-1.44Zm-124.18-25.53c-.54.16-1.29 1.17-1.53 1.7-1.59 3.52-3.18 10.21-4.34 14.19-.55 1.89-2.22 6.34-1.96 8 .28 1.81 2.43 2.01 3.95 2.53 7.14 2.44 14.55 4.33 21.76 6.48 1.56-.07 2.03-1.25 2.52-2.51 1.98-5.07 3.99-12.45 5.43-17.8.39-1.44 1.2-3.11.41-4.52-.63-1.11-5.06-2.15-6.5-2.61-5.3-1.69-11.6-3.89-16.92-5.13-.9-.21-1.87-.6-2.79-.32ZM188 353.1h-7.5l-.29 26.76h6.76l.3-14.12 7.19 14.43 5.99-.07 6.96-14.07c.17 3.75.28 7.58.16 11.34-.02.53-.74 3.08.13 3.08h6.18l.74-26.76c-1.62.17-6.36-.94-7.5 0l-9.71 18.82z" class="af5a__cls-1"></path><path d="M193.38 52.92c115.11-4.89 191.57 118.91 134.38 219.69-52.75 92.96-184.6 99.97-247.19 13.24-68.38-94.76-3.28-227.99 112.8-232.93Zm5.94 242.39v8.09c-32.9-3.87-65.34-17.54-86.15-43.98-28.69-36.47-29.8-91.26-3.49-129.34 8.95-12.96 20.56-23.47 33.76-31.96-3.53 1.71-6.89 3.96-10.09 6.23-40.99 29.07-55.59 78.12-40.2 125.97 13.43 41.74 50.4 67.02 92.04 75.73l-12.86 3.6c-.82.8.46 4.53 1.48 5.01l25.8-5.67v7.94c.23.17.59-.6.59-.74v-7.21l25.59 5.76c1.28-.4 2.54-4.46 1.56-5.2l-12.74-3.5c30.55-6.58 59.9-21.94 78.16-47.85 19.97-28.33 25.29-69.93 13.51-102.51-8.28-22.89-25.27-42.57-45.82-55.34-1.27-.79-2.68-1.73-4.09-2.23 12.49 8.05 23.55 17.84 32.29 29.9 31.26 43.13 26.39 107.24-13.17 143.47-20.55 18.82-47.55 28.57-74.99 31.91v-8.09c1.63-.9 4.11-.3 6.04-.43 92.03-6.03 130.04-121.57 59.38-181.17-18.03-15.21-42.01-24.03-65.72-23.83-.29-.29.58-3.46-.58-3.82v3.82c-47.76-.36-89.88 34.08-99.89 80.53-13.26 61.52 30.94 120.3 93.57 124.46 1.07.07 5.79-.33 6.03.44ZM126.09 86.36c-6.59 4.24-11.04 15.79-9.97 23.35.55 3.86 3.73-.16 4.8-1.62 4.24-5.78 6.98-14.67 5.17-21.74Zm147.63 0c-1.8 7.1.9 15.93 5.17 21.74 1.07 1.46 4.25 5.47 4.8 1.62 1.08-7.56-3.38-19.11-9.97-23.35Zm-165.66 35.18c1.56-1.39 3.65-6.41 4.3-8.49 1.6-5.18 2.41-12.07-.22-16.98-4.01 3.67-6.17 9.57-6.87 14.88-.26 1.99-.72 10.17 1.14 11.16.57.32 1.24-.19 1.66-.57Zm179.62-25.47c-3.31 6.52-1.29 17.05 2.45 23.13.47.77 2.12 3.26 3.08 3.01.73-.39 1.06-1.53 1.24-2.31 1.08-4.62 0-11.32-1.63-15.75-1.12-3.05-2.7-5.9-5.15-8.08Zm-187.17 12.34c-.63-.47-2.53 2.99-2.79 3.53-2.41 5.11-3.45 16.87-.66 21.83 1.82 3.24 3.51-1.17 4.18-3.03 2.57-7.14 2.66-15.48-.73-22.34Zm198.79 0c-3.5 7.04-3.35 16.43-.23 23.6 2.5 5.75 4.11 1.92 4.84-2.08 1.1-5.98.5-15.83-3.49-20.74-.31-.38-.5-.9-1.12-.78M89.64 121.35c-3.43 6.75-3.45 15.24-1.02 22.34s4.6 5.26 5.64-1.1c1.11-6.83.37-16.03-4.62-21.24m220.53 0c-4.39 4.52-5.4 12.27-5.01 18.39.34 5.25 2.59 13.99 6.03 3.95 2.43-7.1 2.4-15.59-1.02-22.34M80.82 135.18c-1.91 5.98-1.49 12.27.51 18.17.51 1.51 3.61 8.88 5.48 8.57.97-.16 1.57-3.39 1.65-4.24.53-5.82-.8-13.22-3.77-18.28-.32-.55-3.22-4.81-3.87-4.21Zm237.09.38c-3.67 3.22-6.25 11.74-6.57 16.51-.1 1.54-.22 9.52 1.67 9.84s4.97-7.06 5.48-8.57c1.86-5.5 2.85-12.89.07-18.16-.19.17-.46.21-.65.38M74.05 149.88c-1.7 7.46.94 16.09 5.22 22.27 1.32 1.9 4.7 6.35 5.33 1.67 1.01-7.44-3.83-20.01-10.56-23.94Zm251.71 0c-5.33 3.28-8.47 9.97-9.79 15.93-.68 3.05-1.7 7.6.27 10.22 1.67.38 5.11-5.11 5.86-6.44 3.3-5.9 5.2-13 3.67-19.71ZM69.93 166.94v5.15c0 3.86 4.79 12.28 7.36 15.28.77.9 4.95 5.29 6.15 4.26.81-3.33-.35-7.21-1.53-10.36-2.08-5.58-6.38-11.97-11.99-14.33Zm259.95 0c-6.01 2.62-10.33 9.38-12.35 15.44-.98 2.92-1.95 6.18-1.16 9.26 3.73-.42 7.36-5.46 9.23-8.54 1.36-2.25 4.29-8.55 4.29-11.01v-5.15ZM84.05 205.47c.35-3.33-1.01-6.52-2.49-9.42-2.94-5.73-8.06-11.41-14.27-13.52-.02 7.73 5.25 15.51 11.03 20.28 1.59 1.31 3.58 2.77 5.73 2.66m231.72-.01c2.13.13 4.14-1.34 5.72-2.65 5.78-4.78 11.05-12.56 11.03-20.28-6.21 2.16-11.31 7.77-14.26 13.52-1.41 2.76-2.99 6.28-2.48 9.41ZM66.11 198.7c.69 7.67 9.4 17.28 16.39 19.93 5.44 2.06 3.61-1.74 1.99-4.94-3.35-6.61-10.88-13.8-18.38-14.99m267.59 0c-7.53 1.2-15.02 8.35-18.38 14.99-1.62 3.2-3.44 6.99 1.99 4.94 6.99-2.64 15.7-12.25 16.39-19.93M89.34 231.93c1.11-1.13-3.22-6.79-4.11-7.8-4.58-5.24-11.69-9.98-18.83-10.14 2.08 6.37 7.42 11.64 13.14 14.94 2.92 1.68 6.35 3.34 9.79 3ZM333.41 214c-7.17.16-14.21 4.89-18.83 10.14-1.83 2.08-4.15 4.94-4.11 7.8 3.44.34 6.87-1.32 9.79-3 5.72-3.3 11.07-8.55 13.14-14.94ZM68.76 229.58c3.27 6.67 10.06 11.4 16.98 13.74 2.57.87 5.51 1.81 8.18.98 1.14-1.61-3.58-6.07-4.73-7.07-5.35-4.64-13.25-8.46-20.43-7.65m262.29 0c-7.15-.82-15.11 3.03-20.43 7.65-1.16 1-5.87 5.46-4.73 7.07 3.65.91 7.97-.73 11.33-2.24 5.67-2.55 11.08-6.82 13.83-12.49ZM73.46 245.17c1.25 2.84 4.06 5.11 6.61 6.77 3.93 2.56 10.36 4.89 15.04 5.25 6.01.46 7.47-.79 2.6-4.95-6.26-5.35-16.07-8.5-24.25-7.07m252.89 0c-8.17-1.44-17.99 1.71-24.25 7.07-1.52 1.3-5 4.43-1.16 4.96 5.35.75 14.29-2.32 18.8-5.26 2.55-1.66 5.36-3.93 6.61-6.77M79.64 259.88c3.66 4.84 10.45 7.54 16.37 8.48 2.66.42 9.64 1.05 11.85-.41 2.01-1.33-2.04-3.82-3.13-4.49-7.16-4.35-17.02-6.19-25.08-3.58Zm240.53 0c-8.07-2.61-17.92-.77-25.08 3.58-1.7 1.03-5.75 3.55-2.27 4.8 3.84 1.37 11.13.29 15.06-.82 4.45-1.25 9.58-3.77 12.29-7.56M87.58 273.7c5.13 5.3 14.22 6.64 21.33 6.18 1.36-.09 8.46-1.09 8.59-2.8-.94-2.01-3.21-2.87-5.15-3.61-7.94-3.01-16.99-3.44-24.77.22Zm224.65 0c-7.71-3.66-16.9-3.25-24.77-.22-1.88.72-4.25 1.67-5.15 3.61.13 1.71 7.23 2.72 8.59 2.8 7.09.45 16.22-.89 21.33-6.18Zm-184.46 11.26c-.96-1.09-4.56-2.05-6.02-2.35-7.27-1.48-15.55-.9-22.09 2.73-.26.4-2.02.93-1.79 1.44.41.9 5.87 2.68 7.05 2.95 5.86 1.34 14.12.86 19.7-1.48 1.04-.44 4.4-1.86 3.15-3.29m174.17 1.39c-7.05-4.51-16.01-5.4-24.12-3.69-4.84 1.02-9.43 2.93-2.2 5.75 6.79 2.65 16.77 2.89 23.49-.05.54-.23 3.26-1.4 2.83-2.01m-192.9 12.05c7.7 3.28 17.09 2.2 24.6-1.12 2-.88 4.71-2.21 5.65-4.27-.39-2.32-10.02-2.37-11.87-2.25-6.35.42-14.13 2.73-18.38 7.64m181.73 0c-5.48-6.08-15.73-8.2-23.67-7.64-1.25.09-6.35.79-6.59 2.25-.31 1.9 7.34 4.99 8.85 5.48 6.95 2.25 14.56 2.83 21.4-.09Zm-139.99.32c-3.65-1.59-8.49-.99-12.34-.18-4.44.93-9.26 2.92-12.9 5.62-.56.42-4.73 3.9-4.14 4.53 8.27 2.27 18.27-.44 25.26-5.17.85-.57 4.88-3.72 4.12-4.8m127.64 9.97c.59-.63-3.58-4.11-4.14-4.53-3.33-2.48-7.47-4.26-11.49-5.27-4.25-1.07-9.65-1.9-13.75-.17-1.02 1.44 5.04 5.38 6.15 6.01 6.8 3.87 15.54 6.09 23.23 3.96m-142.18 8.83c1.51.22 3.94 0 5.59 0 5.4 0 17.83-6.96 20.85-11.5 2.1-3.15.54-3.33-2.64-3.22-8.65.31-20.19 6.65-24.54 14.28-.03.09.65.43.73.44Zm121.74 0c1.68.17 3.83 0 5.59 0 .04 0 .76-.35.73-.44-4.39-7.65-15.82-13.97-24.54-14.28-3.18-.11-4.74.07-2.64 3.22 3.38 5.07 14.84 10.89 20.85 11.5Z" style="fill:currentColor"></path><path d="m109.64 74.89-9.12-11.18 3.77 15.23c.13.38 0 .52-.24.78-.27.3-3.38 2.87-3.72 3.06s-.65.37-1.06.27l-14.34-6.41 9.1 11.05-5.13 4.53-17.2-20.73 5.97-4.81 19.31 8.78-4.71-20.74 5.7-4.83 16.91 20.47-5.25 4.5ZM188 353.1l9.41 19.41 9.71-18.82c1.13-.94 5.88.17 7.5 0l-.74 26.76h-6.18c-.87 0-.15-2.54-.13-3.08.12-3.76 0-7.59-.16-11.34l-6.96 14.07-5.99.07-7.19-14.43-.3 14.12h-6.76l.29-26.76zm78.07 15.59-6.44 1.44-4.15-13.79-2.95 16.02-5.82 1.58-10.34-11.43 3.55 13.34-6.48 1.95-7.37-25.87 7.59-1.71 14.17 15.53 3.8-20.99 6.9-1.93zm14.11-316.15c.82 1.35 3.11 3.38 2.89 5.06-.1.76-2.97 6.62-3.52 7.39-1.41 1.96-3.29.88-5.06.15-5.76-2.38-12.29-5.74-17.94-8.53-.57-.28-3.32-1.53-3.4-1.9l11.33-23.96 24.08 11.5c.52.7.55 1.6.38 2.43s-2.62 5.88-3.17 6.54c-1.19 1.44-3.85 1.2-5.59 1.32m-.07-5.37c.15-.14 1.35-2.41.96-2.71l-12.64-6.04-2.04 4.98 9.31 4.38c.64.12 4.06-.26 4.41-.6Zm-5.24 11.81 1.43-3.31-2.29-3.29-9.99-4.85-2.36 5.58zM141.89 343.16c.93-.28 1.9.11 2.79.32 5.32 1.24 11.63 3.44 16.92 5.13 1.45.46 5.88 1.5 6.5 2.61.8 1.41-.02 3.08-.41 4.52-1.44 5.35-3.45 12.74-5.43 17.8-.49 1.26-.95 2.44-2.52 2.51-7.21-2.16-14.62-4.05-21.76-6.48-1.52-.52-3.67-.71-3.95-2.53-.25-1.66 1.41-6.11 1.96-8 1.16-3.98 2.75-10.66 4.34-14.19.24-.53.99-1.54 1.53-1.7Zm18.91 11.13-14.7-4.42-4.41 15 14.7 4.41zm-.3-303.81-4.08-26.43 19.22-3.27c3.68-.28 7.03.14 9.21 3.43 1.78 2.69 3.45 13.48 2.92 16.64s-3.74 5.58-6.69 6.25l-20.59 3.38Zm18.14-22.86c-.61-.66-2.1-1-2.98-.98-3.43.09-7.98 1.66-11.51 2.05l2.23 15.01c2.7-.87 12.3-1.15 13.83-3.16.7-.92.63-2.35.58-3.45-.09-1.7-1.16-8.4-2.14-9.47Zm135.95 288.43 12.32 11.87-4.78 4.87L302.81 315c-.16-1.08 3.54-3.55 3.97-4.85l.61-.27 22.49.29-12.34-11.61 4.59-4.83 19.75 18.06-4.81 4.85-22.49-.58Zm-189.38 30.29-5.85-3.71 2.33-4.23-12.77-7.67-8.1 13.08 12.26 7.77.65.03c.27-.77 1.91-3.82 2.51-3.81l5.32 3.24c.28.4.06.72-.1 1.09-.29.68-3.88 6.21-4.33 6.56-1.53 1.21-2.61.4-4.06-.36-6.48-3.37-12.78-8.68-19.3-12.17-1.03-.76-1.15-2.16-.67-3.28l11.7-18.59c1.65-1.88 2.43-1.25 4.33-.26 5.14 2.68 13.93 8.24 18.59 11.7.8.59 1.79 1.1 1.9 2.24.21 2.11-3.74 6.17-4.41 8.36ZM227.84 20.77c-.37 1.54-.04 3.75-.29 5.15-.06.34-.1.59-.48.69l-18.93-1.43-.29 4.71 15.29 1.18c-.48 1.05.1 4.96-.78 5.25l-14.61-.85c-.76.18-.35 4.19-.78 5.01l19.41 1.47-.58 5.75-26.05-2.21 2.22-26.65 25.89 1.93Zm-158.8 269.7-4.1 2.79L74 305.32l-4.21 3.35-8.97-11.9c-.7-.37-3.45 2.12-4.08 2.71l11.43 15.55c-.78.55-4.15 3.56-4.81 3.37l-15.45-20.97 21.3-16.04 15.32 20.55c.18.34.05.49-.16.76-.75.95-3.16 1.94-4 3.06l-11.33-15.27Zm-16.49-45.56 2.27 6.14-9.27 3.84 5.29 13.78 9.8-3.49c.35.11 2.85 6.05 2.52 6.43l-24.68 10.02-2.53-6.48 9.31-4-5.34-13.61c-.68-.48-8.32 3.5-9.79 3.53l-2.47-6.06zm233.54 106.7 12.91-7.63-11.14-18.09 5.71-3.61 13.24 20.81c.57 2.09-.19 2.6-1.66 3.66-4.99 3.62-12.99 8.63-18.41 11.59-3.4 1.85-3.77.9-5.68-1.85-4.15-5.94-7.68-12.75-11.68-18.83.03-.31 4.67-3.29 5.22-3.53.22-.1.37-.25.59 0l10.9 17.5ZM152.27 52.83l-6.61 2.65-3.83-3.16-12.76 5.54-.18 5.27-6.18 2.93c-1.03-.06-.15-5.7-.13-6.6.16-7.71.18-15.4.72-23.1l6.53-2.73zm-23.23-.88 8.23-3.68-8.23-7.21v10.88ZM353.4 244.3l-3.81 10.56 19.39 7.38-2.2 6.16-.81.25-19.03-7.6-3.83 10.29-5.3-1.91 10.16-26.91c.33-.49.34-.15.63-.05 1.61.52 3.16 1.37 4.8 1.83M46.12 206.64l3.54 28.69-5.6.72-1.67-10.9-20.67 2.65-.9-6.75 20.88-2.65-1.47-11.17zM307.53 70.77l14.56-3.99c.72.45 5.35 4.1 5.43 4.44.12.56-.58.68-.94.82-5.66 2.22-13.41 2.72-19.27 4.85l-6.41 7.12-5.14-4.12 5.81-7.56 1.54-21.25 5.85 4.61-1.44 15.09Zm70.86 155.58-9.48-1.11-17.36 9.71-1.39.23.96-7.28 13.16-6.55c.1-.51-.27-.72-.58-1.03-3.32-3.22-7.07-6.11-10.46-9.26l.75-7.35 1.04.28 14.73 14.09 9.24 1.35zm-46.41 51.5 22.62 13.62c.37.36.29.62.13 1.03-.55 1.41-2.5 3.33-3.09 4.89l-22.82-13.69c-.41-.62 2.92-4.78 3.15-5.85Z" style="fill:currentColor"></path><path d="M199.32 295.31c-.24-.78-4.96-.37-6.03-.44-62.63-4.15-106.82-62.93-93.57-124.46 10.01-46.44 52.13-80.89 99.89-80.53v-3.82c1.17.36.29 3.53.59 3.82 23.7-.2 47.69 8.62 65.72 23.83 70.66 59.6 32.65 175.14-59.38 181.17-1.93.13-4.41-.47-6.04.43v8.09c27.44-3.34 54.44-13.09 74.99-31.91 39.57-36.23 44.43-100.34 13.17-143.47-8.74-12.06-19.8-21.85-32.29-29.9 1.41.5 2.82 1.44 4.09 2.23 20.55 12.77 37.55 32.45 45.82 55.34 11.78 32.58 6.47 74.18-13.51 102.51-18.26 25.91-47.61 41.27-78.16 47.85l12.74 3.5c.98.74-.28 4.8-1.56 5.2l-25.59-5.76v7.21c0 .14-.36.9-.59.74V309l-25.8 5.67c-1.01-.49-2.3-4.21-1.48-5.01l12.86-3.6c-41.65-8.71-78.61-33.98-92.04-75.73-15.39-47.85-.79-96.9 40.2-125.97 3.2-2.27 6.56-4.51 10.09-6.23-13.21 8.49-24.81 19-33.76 31.96-26.31 38.08-25.21 92.86 3.49 129.34 20.8 26.44 53.25 40.11 86.15 43.98v-8.09Zm-.3-2.94c-.21-2 .15-4.29 0-6.32-50.12.28-93.25-42.83-92.67-93.04l-.44-.44-1.58-.19 1.58-.19.44-.44c-.51-50.24 42.52-93.19 92.67-93.04l.29-7.36c-17.3.16-34.54 4.69-49.49 13.3-42.48 24.46-61.6 75.57-44.91 122.14 14.08 39.28 52.41 66.72 94.4 66.61.17-.43-.27-.82-.29-1.03m1.47 1.03c46.75.15 87.98-33.39 98.07-78.81 13.62-61.31-31.62-120.89-94.38-123.24-.75-.03-3.52-.16-3.85.3l.46 7.07c28.8.11 56.24 14.1 73.63 36.79 12.38 16.15 19.2 36.3 19.29 56.73l1.77.15-1.77.15c-.05 21-7.27 41.49-20.17 57.91-17.3 22.02-44.54 35.64-72.75 35.61l-.29 7.35Zm-1.47-192.34c-18.92.17-37.49 6.33-52.73 17.41-23.17 16.83-37.88 44.55-37.55 73.47l22.89-2.4c.75-35.19 31.06-64.95 66.2-65.25l1.18-23.23Zm92.34 90.88c-.14-29.25-14.57-56.78-38.13-73.77-15.16-10.92-33.69-16.98-52.44-17.11l1.18 23.24c35.19.31 65.37 30.05 66.2 65.25l23.19 2.4Zm-94.1-62.35c-6.19.51-12.22 1.48-18.09 3.52-23.9 8.33-41.2 31.6-41.6 57.06 17.22-2.04 42.64-1.66 51.52-19.79 2.05-4.19 3.53-9.99 4.56-14.56 1.92-8.53 3.11-17.5 3.62-26.23Zm64.98 60.58c-.33-23.19-14.96-44.88-35.77-54.66-7.57-3.56-15.58-5.34-23.92-5.92.63 9.68 1.88 19.71 4.26 29.12.89 3.52 2.1 7.81 3.63 11.08 8.75 18.77 34.22 18.31 51.8 20.39Zm-130.59 5.03-22.9-2.38c-.76 49 41.33 91.17 90.27 90.87l-1.18-23.23c-35.16-.19-65.49-30.09-66.2-65.26Zm159.7-2.38-23.2 2.38c-.74 35.18-31.03 65.03-66.2 65.26l-1.18 23.24c40.42.09 76.74-28.21 87.25-66.99 2.12-7.81 3.16-15.79 3.32-23.89Zm-94.09 62.35c-.51-8.73-1.69-17.7-3.62-26.23-.87-3.84-2-8.2-3.43-11.86-8.23-21-33.8-20.16-52.64-22.49.49 27.99 21 52.84 48.22 58.97 3.79.85 7.61 1.3 11.47 1.61m64.98-60.59c-16.37 2.12-39.47 1.46-49.76 16.84-3.59 5.36-5.54 13.6-6.85 19.92-1.61 7.78-2.64 15.89-3.08 23.83 3.94-.32 7.85-.78 11.71-1.67 27.09-6.23 47.49-31.02 47.98-58.91Z" class="af5a__cls-1"></path><path d="M257.98 317.52c-6.01-.61-17.47-6.42-20.85-11.5-2.1-3.15-.54-3.33 2.64-3.22 8.72.31 20.15 6.63 24.54 14.28.03.09-.69.44-.73.44-1.75 0-3.9.17-5.59 0Zm-121.74 0c-.08-.01-.76-.35-.73-.44 4.34-7.62 15.88-13.97 24.54-14.28 3.18-.11 4.74.07 2.64 3.22-3.02 4.54-15.45 11.5-20.85 11.5-1.64 0-4.08.22-5.59 0Zm14.54-18.8c.76 1.08-3.27 4.23-4.12 4.8-6.99 4.73-16.99 7.44-25.26 5.17-.59-.63 3.58-4.11 4.14-4.53 3.64-2.71 8.46-4.69 12.9-5.62 3.85-.81 8.69-1.41 12.34.18m127.64 9.97c-7.7 2.13-16.43-.09-23.23-3.96-1.11-.63-7.16-4.57-6.15-6.01 4.1-1.73 9.49-.89 13.75.17 4.03 1.01 8.16 2.79 11.49 5.27.56.42 4.73 3.9 4.14 4.53M109.04 298.4c4.25-4.91 12.03-7.22 18.38-7.64 1.85-.12 11.49-.08 11.87 2.25-.94 2.06-3.65 3.39-5.65 4.27-7.51 3.32-16.9 4.4-24.6 1.12m181.73 0c-6.84 2.92-14.45 2.34-21.4.09-1.51-.49-9.16-3.58-8.85-5.48.24-1.46 5.34-2.16 6.59-2.25 7.94-.56 18.19 1.56 23.67 7.64Zm-163-13.44c1.25 1.43-2.11 2.85-3.15 3.29-5.58 2.34-13.84 2.81-19.7 1.48-1.18-.27-6.64-2.05-7.05-2.95-.23-.52 1.53-1.04 1.79-1.44 6.55-3.63 14.82-4.21 22.09-2.73 1.47.3 5.07 1.26 6.02 2.35m174.17 1.39c.43.62-2.3 1.78-2.83 2.01-6.71 2.94-16.7 2.7-23.49.05-7.23-2.82-2.64-4.74 2.2-5.75 8.11-1.7 17.07-.82 24.12 3.69M87.58 273.7c7.78-3.66 16.84-3.23 24.77-.22 1.93.73 4.21 1.59 5.15 3.61-.13 1.72-7.23 2.72-8.59 2.8-7.11.46-16.2-.88-21.33-6.18Zm224.65 0c-5.11 5.3-14.24 6.63-21.33 6.18-1.36-.09-8.46-1.09-8.59-2.8.9-1.93 3.27-2.88 5.15-3.61 7.87-3.03 17.07-3.43 24.77.22Zm7.94-13.82c-2.71 3.79-7.84 6.31-12.29 7.56-3.93 1.11-11.22 2.2-15.06.82-3.49-1.25.57-3.77 2.27-4.8 7.16-4.35 17.02-6.19 25.08-3.58m-240.53 0c8.07-2.61 17.92-.77 25.08 3.58 1.09.66 5.13 3.16 3.13 4.49-2.2 1.46-9.18.83-11.85.41-5.91-.94-12.7-3.64-16.37-8.48Zm-6.18-14.71c8.17-1.44 17.99 1.71 24.25 7.07 4.87 4.16 3.41 5.42-2.6 4.95-4.68-.36-11.11-2.68-15.04-5.25-2.55-1.66-5.36-3.93-6.61-6.77m252.89 0c-1.25 2.84-4.06 5.11-6.61 6.77-4.51 2.94-13.45 6.01-18.8 5.26-3.84-.54-.36-3.67 1.16-4.96 6.26-5.35 16.07-8.5 24.25-7.07M68.76 229.58c7.18-.81 15.08 3.01 20.43 7.65 1.16 1 5.87 5.46 4.73 7.07-2.67.84-5.61-.11-8.18-.98-6.92-2.35-13.71-7.07-16.98-13.74m262.29 0c-2.75 5.67-8.16 9.94-13.83 12.49-3.36 1.51-7.68 3.14-11.33 2.24-1.14-1.61 3.58-6.07 4.73-7.07 5.32-4.62 13.28-8.47 20.43-7.65Zm2.36-15.58c-2.07 6.39-7.42 11.64-13.14 14.94-2.92 1.68-6.35 3.34-9.79 3-.04-2.86 2.28-5.72 4.11-7.8 4.61-5.24 11.65-9.98 18.83-10.14ZM89.34 231.93c-3.44.34-6.87-1.32-9.79-3-5.72-3.3-11.06-8.57-13.14-14.94 7.14.16 14.25 4.9 18.83 10.14.89 1.02 5.22 6.67 4.11 7.8ZM333.7 198.7c-.69 7.67-9.4 17.28-16.39 19.93-5.44 2.06-3.61-1.74-1.99-4.94 3.36-6.64 10.85-13.79 18.38-14.99m-267.59 0c7.51 1.19 15.04 8.38 18.38 14.99 1.62 3.2 3.44 6.99-1.99 4.94-6.99-2.64-15.7-12.25-16.39-19.93m17.94 6.77c-2.15.11-4.13-1.34-5.73-2.66-5.78-4.78-11.05-12.55-11.03-20.28 6.21 2.11 11.33 7.79 14.27 13.52 1.49 2.9 2.85 6.09 2.49 9.42m231.72-.01c-.51-3.13 1.07-6.65 2.48-9.41 2.95-5.75 8.05-11.37 14.26-13.52.02 7.73-5.25 15.51-11.03 20.28-1.58 1.3-3.58 2.78-5.72 2.65ZM69.93 166.94c5.61 2.36 9.91 8.75 11.99 14.33 1.17 3.15 2.34 7.03 1.53 10.36-1.2 1.03-5.38-3.36-6.15-4.26-2.57-3-7.36-11.42-7.36-15.28v-5.15Zm259.95 0v5.15c0 2.46-2.93 8.76-4.29 11.01-1.87 3.08-5.5 8.12-9.23 8.54-.79-3.07.18-6.34 1.16-9.26 2.03-6.06 6.34-12.82 12.35-15.44ZM74.05 149.88c6.73 3.93 11.57 16.5 10.56 23.94-.63 4.68-4.02.23-5.33-1.67-4.29-6.18-6.93-14.81-5.22-22.27Zm251.71 0c1.53 6.71-.36 13.81-3.67 19.71-.75 1.33-4.19 6.82-5.86 6.44-1.97-2.62-.95-7.16-.27-10.22 1.33-5.97 4.47-12.65 9.79-15.93Zm-7.85-14.32c.19-.17.46-.21.65-.38 2.78 5.26 1.79 12.65-.07 18.16-.51 1.51-3.61 8.88-5.48 8.57s-1.77-8.3-1.67-9.84c.32-4.77 2.9-13.29 6.57-16.51m-237.09-.38c.65-.6 3.55 3.67 3.87 4.21 2.97 5.06 4.3 12.46 3.77 18.28-.08.85-.68 4.08-1.65 4.24-1.87.31-4.97-7.06-5.48-8.57-1.99-5.9-2.41-12.19-.51-18.17Zm8.82-13.83c4.98 5.2 5.72 14.4 4.62 21.24-1.03 6.37-3.13 8.41-5.64 1.1s-2.4-15.59 1.02-22.34m220.53 0c3.43 6.75 3.45 15.24 1.02 22.34-3.44 10.04-5.69 1.31-6.03-3.95-.4-6.12.62-13.87 5.01-18.39m-209.66-12.94c3.38 6.86 3.3 15.2.73 22.34-.67 1.85-2.36 6.27-4.18 3.03-2.78-4.96-1.75-16.72.66-21.83.25-.54 2.15-4 2.79-3.53Zm7.55 13.13c-.42.38-1.09.89-1.66.57-1.86-.99-1.4-9.17-1.14-11.16.7-5.31 2.86-11.21 6.87-14.88 2.63 4.92 1.82 11.8.22 16.98-.64 2.09-2.74 7.11-4.3 8.49Zm191.24-13.13c.62-.11.81.4 1.12.78 3.99 4.91 4.59 14.76 3.49 20.74-.74 4-2.34 7.82-4.84 2.08-3.13-7.17-3.27-16.57.23-23.6m-11.62-12.34c2.45 2.17 4.03 5.03 5.15 8.08 1.62 4.44 2.71 11.14 1.63 15.75-.18.78-.52 1.92-1.24 2.31-.96.25-2.61-2.24-3.08-3.01-3.74-6.08-5.76-16.61-2.45-23.13Zm-13.96-9.71c6.59 4.24 11.04 15.79 9.97 23.35-.55 3.86-3.73-.16-4.8-1.62-4.26-5.81-6.97-14.64-5.17-21.74Zm-147.63 0c1.81 7.06-.93 15.96-5.17 21.74-1.07 1.46-4.25 5.47-4.8 1.62-1.08-7.56 3.38-19.11 9.97-23.35Zm148.78-27.38-13.21-5.86 2.35-5.59 10 4.86 2.29 3.28zm5.24-11.81c-.35.34-3.78.73-4.41.6l-9.31-4.38 2.04-4.98 12.64 6.04c.4.3-.81 2.57-.96 2.71ZM160.8 354.29l-4.42 14.99-14.7-4.42 4.42-15zm17.84-326.67c.98 1.07 2.05 7.77 2.14 9.47.06 1.11.12 2.54-.58 3.45-1.53 2.01-11.12 2.29-13.83 3.16l-2.23-15.01c3.53-.39 8.08-1.96 11.51-2.05.88-.02 2.38.32 2.98.98Zm-49.6 24.33V41.07l8.23 7.2z" class="af5a__cls-1"></path><path d="M291.35 192.82c-.16 8.1-1.2 16.07-3.32 23.89-10.52 38.78-46.83 67.08-87.25 66.99l1.18-23.24c35.16-.23 65.45-30.07 66.2-65.26l23.2-2.38Zm.01-.88-23.19-2.4c-.83-35.19-31.01-64.93-66.2-65.25l-1.18-23.24c18.75.13 37.28 6.19 52.44 17.11 23.57 16.98 38 44.51 38.13 73.77Zm-159.71 3.26c.71 35.16 31.04 65.06 66.2 65.26l1.18 23.23c-48.94.3-91.04-41.88-90.27-90.87l22.9 2.38Zm67.37-94.14-1.18 23.23c-35.15.3-65.45 30.06-66.2 65.25l-22.89 2.4c-.33-28.92 14.37-56.64 37.55-73.47 15.24-11.07 33.81-17.24 52.73-17.41Z" style="fill:currentColor"></path><path d="M262.24 190.17c-17.59-2.07-43.05-1.61-51.8-20.39-1.52-3.27-2.74-7.56-3.63-11.08-2.38-9.41-3.63-19.44-4.26-29.12 8.34.59 16.36 2.37 23.92 5.92 20.81 9.78 35.44 31.47 35.77 54.66Zm0 4.41c-.49 27.89-20.9 52.68-47.98 58.91-3.86.89-7.76 1.35-11.71 1.67.44-7.93 1.48-16.05 3.08-23.83 1.31-6.32 3.26-14.56 6.85-19.92 10.29-15.38 33.39-14.72 49.76-16.84Zm-64.98-64.99c-.5 8.73-1.7 17.69-3.62 26.23-1.03 4.57-2.5 10.37-4.56 14.56-8.88 18.13-34.3 17.75-51.52 19.79.41-25.45 17.71-48.73 41.6-57.06 5.87-2.05 11.9-3.02 18.09-3.52Zm0 125.58c-3.86-.32-7.68-.76-11.47-1.61-27.22-6.13-47.73-30.98-48.22-58.97 18.84 2.33 44.41 1.49 52.64 22.49 1.43 3.66 2.56 8.02 3.43 11.86 1.93 8.53 3.11 17.5 3.62 26.23" style="fill:currentColor"></path><path d="m200.49 293.4.29-7.35c28.21.02 55.45-13.59 72.75-35.61 12.9-16.42 20.12-36.91 20.17-57.91l1.77-.15-1.77-.15c-.09-20.43-6.91-40.58-19.29-56.73-17.39-22.69-44.83-36.69-73.63-36.79l-.46-7.07c.33-.46 3.1-.33 3.85-.3 62.76 2.36 108 61.94 94.38 123.24-10.09 45.43-51.32 78.96-98.07 78.81Zm-1.47-1.03c.02.2.46.6.29 1.03-41.98.11-80.32-27.32-94.4-66.61-16.69-46.57 2.43-97.68 44.91-122.14 14.95-8.61 32.19-13.14 49.49-13.3l-.29 7.36c-50.15-.15-93.18 42.8-92.67 93.04l-.44.44-1.58.19 1.58.19.44.44c-.58 50.21 42.55 93.32 92.67 93.04.15 2.03-.21 4.32 0 6.32" style="fill:currentColor"></path></symbol></svg>